<?xml version="1.0" encoding="utf-8"?>
<!-- Generator: Adobe Illustrator 18.1.1, SVG Export Plug-In . SVG Version: 6.00 Build 0)  -->
<svg version="1.1" id="Capa_1" xmlns="http://www.w3.org/2000/svg" xmlns:xlink="http://www.w3.org/1999/xlink" x="0px" y="0px"
	 viewBox="0 0 85.04 85.04" enable-background="new 0 0 85.04 85.04" xml:space="preserve">
<g>
	<path fill="#502711" stroke="#26160D" stroke-miterlimit="10" d="M1.53,138.39c0.034-0.344,0.053-0.693,0.053-1.047
		c0-2.657-1.005-5.074-2.646-6.912c2.514-0.735,4.353-3.054,4.353-5.806c0-3.343-2.71-6.052-6.052-6.052
		c-2.157,0-4.045,1.132-5.117,2.831c0.078-0.496,0.13-1,0.13-1.518c0-5.395-4.373-9.768-9.768-9.768
		c-0.106,0-0.21,0.013-0.315,0.016c0.285-0.773,0.448-1.605,0.448-2.477c0-0.516-0.057-1.018-0.16-1.503
		c5.468-0.36,9.795-4.897,9.795-10.456c0-0.922-0.131-1.812-0.354-2.664c0.119,0.003,0.235,0.018,0.354,0.018
		c8.859,0,16.041-7.182,16.041-16.041S1.109,60.968-7.75,60.968S-23.791,68.15-23.791,77.01c0,3.185,0.94,6.145,2.54,8.64
		c-4.326,1.295-7.48,5.3-7.48,10.047c0,1.942,0.537,3.755,1.457,5.315c-2.619,1.07-4.465,3.64-4.465,6.643
		c0,3.542,2.568,6.477,5.942,7.064c-0.938,1.5-1.488,3.266-1.488,5.165c0,5.395,4.373,9.768,9.768,9.768
		c0.663,0,1.31-0.068,1.935-0.193c-2.219,1.907-3.63,4.728-3.63,7.884c0,5.515,4.296,10.014,9.723,10.364
		c1.203,2.51,3.759,4.247,6.727,4.247c4.122,0,7.464-3.342,7.464-7.464C4.702,141.967,3.446,139.741,1.53,138.39z M-8.797,124.266
		c-0.007,0.119-0.018,0.237-0.018,0.358c0,0.831,0.168,1.623,0.471,2.344c-0.157-0.007-0.312-0.024-0.471-0.024
		c-0.769,0-1.516,0.089-2.238,0.248C-10.126,126.373-9.359,125.382-8.797,124.266z"/>
	<g>
		<path fill="#502711" d="M-2.294,66.479c0,0-10.584,5.842-8.084,9.647s6.311,6.766,7.822,4.202s2.845-5.99,0.262-6.444
			c-2.583-0.453-3.756-1.116-3.503,0.715c0.253,1.831,1.511,2.331,1.511,2.331"/>
		<path fill="#26160D" d="M-2.294,66.479c0,0-0.512,0.331-1.382,0.94c-0.874,0.602-2.089,1.516-3.45,2.699
			c-0.67,0.6-1.381,1.274-2.003,2.07c-0.615,0.779-1.188,1.741-1.185,2.687c0,0.234,0.059,0.457,0.143,0.672
			c0.097,0.206,0.223,0.404,0.411,0.657c0.343,0.49,0.68,0.918,1.059,1.373c0.75,0.886,1.586,1.744,2.534,2.387
			c0.902,0.65,2.085,1.13,2.769,0.594c0.182-0.116,0.31-0.319,0.454-0.517c0.153-0.256,0.302-0.509,0.435-0.755
			c0.271-0.498,0.529-1.005,0.734-1.513c0.397-0.992,0.735-2.094,0.423-2.865c-0.151-0.368-0.503-0.6-0.933-0.689
			c-0.479-0.111-0.941-0.219-1.385-0.322c-0.441-0.107-0.866-0.212-1.247-0.263c-0.401-0.042-0.659-0.018-0.706,0.308
			c-0.065,0.313-0.024,0.651,0.022,0.968c0.054,0.296,0.142,0.572,0.247,0.807c0.219,0.467,0.495,0.785,0.711,0.965
			c0.215,0.184,0.356,0.248,0.356,0.248s-0.148-0.045-0.389-0.204c-0.237-0.158-0.577-0.44-0.851-0.919
			c-0.26-0.491-0.51-1.109-0.462-1.935c0.017-0.201,0.14-0.496,0.405-0.609c0.243-0.11,0.48-0.112,0.704-0.109
			c0.447,0.021,0.876,0.115,1.327,0.193c0.449,0.078,0.917,0.159,1.401,0.243c0.527,0.068,1.171,0.399,1.458,1.001
			c0.287,0.587,0.279,1.221,0.206,1.803c-0.081,0.587-0.264,1.148-0.467,1.702c-0.206,0.556-0.459,1.091-0.732,1.63
			c-0.139,0.274-0.282,0.533-0.425,0.79c-0.193,0.287-0.391,0.595-0.711,0.819c-0.622,0.486-1.484,0.511-2.132,0.321
			c-0.666-0.186-1.258-0.497-1.779-0.869c-1.058-0.736-1.923-1.651-2.708-2.593c-0.387-0.463-0.77-0.982-1.082-1.463
			c-0.156-0.222-0.346-0.517-0.482-0.84c-0.12-0.326-0.193-0.67-0.185-1.006c0.046-1.37,0.819-2.357,1.505-3.161
			c0.713-0.812,1.482-1.461,2.202-2.037c1.452-1.14,2.785-1.895,3.705-2.432C-2.848,66.732-2.294,66.479-2.294,66.479z"/>
	</g>
	<g>
		<path fill="#502711" d="M-20.167,113.01c-0.833,0-9.847-1.854-8.34-4.594c1.507-2.74,6.007-4.805,6.007-4.805l1.5,4.152"/>
		<path fill="#26160D" d="M-20.167,113.01c-0.771,0.021-1.53-0.115-2.289-0.227c-0.76-0.118-1.509-0.298-2.255-0.501
			c-0.741-0.218-1.481-0.465-2.198-0.806c-0.357-0.176-0.71-0.367-1.052-0.604c-0.336-0.243-0.677-0.522-0.931-0.94
			c-0.271-0.398-0.361-1.034-0.151-1.513l0.076-0.175l0.02-0.043l0.033-0.06l0.037-0.061l0.149-0.243
			c0.089-0.159,0.22-0.331,0.349-0.5c0.262-0.343,0.53-0.621,0.819-0.901c0.284-0.281,0.587-0.535,0.891-0.784
			c1.243-0.971,2.593-1.73,4.028-2.346l0.356-0.153l0.101,0.345c0.208,0.707,0.429,1.41,0.617,2.124
			c0.193,0.713,0.398,1.421,0.566,2.142c-0.332-0.662-0.626-1.338-0.934-2.01c-0.312-0.67-0.591-1.351-0.883-2.028l0.457,0.192
			c-1.301,0.712-2.577,1.536-3.703,2.48c-0.28,0.237-0.557,0.478-0.811,0.737c-0.253,0.251-0.509,0.531-0.703,0.797
			c-0.103,0.132-0.211,0.257-0.311,0.429l-0.153,0.241l-0.038,0.06l-0.01,0.015c0.025-0.042,0.004-0.005,0.009-0.012l-0.009,0.022
			l-0.039,0.086c-0.095,0.227-0.079,0.427,0.064,0.67c0.288,0.488,0.919,0.923,1.547,1.266c0.642,0.346,1.323,0.657,2.024,0.922
			c0.696,0.284,1.414,0.516,2.131,0.763c0.36,0.118,0.723,0.231,1.088,0.335C-20.906,112.824-20.543,112.946-20.167,113.01z"/>
	</g>
	<g>
		<path fill="#502711" d="M-13.5,137.058c0,0,0.219,6.004,1.776,7.004s3.558-0.484,3.974-1.242c0.06-0.108,0.102-0.259,0.131-0.438
			c0.272-1.668-1.111-3.154-2.801-3.154h-0.113"/>
		<path fill="#26160D" d="M-13.5,137.058c0,0,0.051,0.267,0.14,0.735c0.077,0.467,0.223,1.13,0.386,1.917
			c0.174,0.783,0.38,1.7,0.706,2.608c0.166,0.44,0.382,0.902,0.644,1.192c0.066,0.043,0.137,0.126,0.183,0.151
			c0.113,0.056,0.256,0.144,0.324,0.149c0.146,0.063,0.391,0.084,0.592,0.086c0.43-0.012,0.889-0.153,1.3-0.383
			c0.402-0.229,0.814-0.527,1.044-0.837c0.02,0.025,0.197-0.5,0.17-0.507c0.041-0.248,0.031-0.382,0.016-0.602
			c-0.048-0.395-0.199-0.762-0.398-1.066c-0.408-0.613-0.988-0.965-1.422-1.107c-0.437-0.147-0.717-0.165-0.717-0.165
			s0.067-0.014,0.195-0.023c0.128-0.014,0.32-0.031,0.565-0.003c0.474,0.065,1.222,0.265,1.83,0.941
			c0.3,0.329,0.567,0.766,0.682,1.288c0.055,0.238,0.088,0.584,0.069,0.821l-0.004,0.092l-0.002,0.046l-0.001,0.023l0,0.006
			c-0.009,0.044,0.021-0.09-0.021,0.1l-0.003,0.011l-0.048,0.18l-0.048,0.182l-0.012,0.046l-0.006,0.023l-0.034,0.074l-0.004,0.007
			l-0.008,0.013l-0.064,0.106c-0.354,0.522-0.787,0.886-1.301,1.19c-0.51,0.297-1.104,0.515-1.757,0.543
			c-0.335-0.013-0.641-0.032-0.995-0.18c-0.194-0.066-0.276-0.131-0.402-0.196c-0.186-0.107-0.293-0.233-0.434-0.356
			c-0.444-0.516-0.598-1.062-0.769-1.57c-0.288-1.026-0.387-1.985-0.438-2.806C-13.625,138.145-13.5,137.058-13.5,137.058z"/>
	</g>
	<g>
		<path fill="#502711" d="M-8.183,127.026c0,0-1.699,2.94,0,4.053s2.033,3.822,4.033,2.634s3.263-3.053,2.382-3.87
			c-0.882-0.817-3.29,0-3.29,0"/>
		<path fill="#26160D" d="M-8.183,127.026c0,0-0.107,0.269-0.249,0.744c-0.137,0.466-0.313,1.186-0.208,1.95
			c0.059,0.377,0.233,0.725,0.54,0.946c0.34,0.22,0.888,0.624,1.223,1.06c0.365,0.428,0.69,0.899,1.017,1.28
			c0.163,0.197,0.337,0.34,0.497,0.429c0.158,0.09,0.305,0.079,0.491,0.045c0.358-0.082,0.88-0.435,1.282-0.734
			c0.416-0.323,0.812-0.663,1.123-1.04c0.311-0.371,0.553-0.783,0.606-1.134c0.029-0.178-0.013-0.307-0.092-0.428l-0.03-0.046
			l-0.007-0.012c0.052,0.041,0.005,0.003,0.012,0.009l-0.032-0.028l-0.128-0.109c-0.068-0.026-0.106-0.073-0.202-0.101
			c-0.337-0.129-0.722-0.164-1.056-0.171c-0.338-0.005-0.638,0.021-0.884,0.049c-0.494,0.056-0.779,0.109-0.779,0.109
			s0.255-0.137,0.737-0.299c0.242-0.077,0.539-0.164,0.894-0.23c0.355-0.062,0.772-0.121,1.259-0.006
			c0.115,0.016,0.265,0.089,0.401,0.15l0.144,0.091l0.036,0.023c0.018,0.015-0.015-0.016,0.046,0.036l0.021,0.021l0.082,0.085
			c0.22,0.226,0.343,0.585,0.325,0.898c-0.029,0.633-0.312,1.168-0.655,1.633c-0.348,0.466-0.756,0.897-1.227,1.264
			c-0.225,0.182-0.501,0.376-0.73,0.52c-0.247,0.159-0.56,0.34-0.924,0.427c-0.364,0.08-0.825,0.055-1.166-0.149
			c-0.335-0.189-0.585-0.437-0.777-0.674c-0.398-0.478-0.655-0.954-0.967-1.355c-0.314-0.424-0.576-0.673-1.019-1.042
			c-0.461-0.405-0.631-0.999-0.629-1.467c0.006-0.96,0.384-1.618,0.599-2.071C-8.367,127.251-8.183,127.026-8.183,127.026z"/>
	</g>
	<g>
		<path fill="#502711" d="M-1.438,140.89c0.339,0.214,4.044,1.568,3.108,3.342c-0.937,1.774-3.234,6.035-4.762,4.087
			s-2.792-5.269-1.367-5.178c1.425,0.092,4.206,1.215,4.206,1.215"/>
		<path fill="#26160D" d="M-1.438,140.89c0,0,0.084,0.031,0.241,0.089c0.156,0.056,0.394,0.126,0.683,0.247
			c0.291,0.117,0.643,0.268,1.034,0.481c0.387,0.216,0.834,0.475,1.216,0.942c0.199,0.222,0.351,0.537,0.413,0.903
			c0.041,0.356-0.115,0.797-0.248,1.039c-0.266,0.553-0.555,1.141-0.9,1.726c-0.347,0.585-0.716,1.192-1.203,1.757
			c-0.249,0.28-0.505,0.562-0.85,0.803c-0.316,0.239-0.775,0.48-1.326,0.417c-0.282-0.01-0.506-0.164-0.727-0.294
			c-0.156-0.156-0.362-0.338-0.457-0.489c-0.204-0.272-0.43-0.604-0.612-0.912c-0.381-0.62-0.679-1.271-0.923-1.924
			c-0.232-0.659-0.438-1.309-0.334-2.086c0.025-0.102,0.066-0.211,0.104-0.31c0.058-0.103,0.146-0.212,0.233-0.296
			c0.234-0.164,0.452-0.187,0.675-0.173c0.272,0.038,0.593,0.107,0.848,0.179c1.057,0.294,1.862,0.685,2.437,0.931
			c0.568,0.262,0.881,0.437,0.881,0.437s-0.344-0.092-0.947-0.254c-0.597-0.164-1.467-0.382-2.491-0.553
			c-0.265-0.041-0.493-0.065-0.794-0.075c-0.174,0.036-0.166,0.018-0.21,0.237c-0.028,0.449,0.176,1.068,0.418,1.642
			c0.245,0.586,0.573,1.167,0.924,1.738c0.18,0.29,0.355,0.54,0.579,0.831c0.1,0.147,0.185,0.18,0.268,0.286
			c0.091,0.03,0.164,0.107,0.249,0.092c0.332,0.083,0.921-0.397,1.328-0.863c0.43-0.491,0.828-1.034,1.181-1.581
			c0.352-0.55,0.685-1.09,0.992-1.615c0.178-0.284,0.211-0.422,0.241-0.643c-0.018-0.201-0.071-0.421-0.211-0.614
			c-0.256-0.392-0.624-0.709-0.955-0.967c-0.336-0.258-0.653-0.46-0.919-0.618C-1.132,141.081-1.438,140.89-1.438,140.89z"/>
	</g>
	<g>
		<path fill="#502711" d="M-23.139,92.941c0,0-1.699,2.94,0,4.053c1.699,1.114,2.033,3.822,4.033,2.634s3.263-3.053,2.382-3.87
			c-0.882-0.817-3.29,0-3.29,0"/>
		<path fill="#26160D" d="M-23.139,92.941c0,0-0.107,0.269-0.249,0.744c-0.137,0.466-0.313,1.186-0.208,1.95
			c0.059,0.377,0.233,0.725,0.54,0.946c0.34,0.22,0.888,0.624,1.223,1.06c0.365,0.428,0.69,0.899,1.017,1.28
			c0.163,0.197,0.337,0.34,0.497,0.429c0.158,0.09,0.305,0.079,0.491,0.045c0.358-0.082,0.88-0.435,1.282-0.734
			c0.416-0.323,0.812-0.663,1.123-1.04c0.311-0.371,0.553-0.783,0.606-1.134c0.029-0.178-0.013-0.307-0.092-0.428l-0.03-0.046
			L-16.945,96c0.052,0.041,0.005,0.003,0.012,0.009l-0.032-0.028l-0.128-0.109c-0.068-0.026-0.106-0.073-0.202-0.101
			c-0.337-0.129-0.722-0.164-1.056-0.171c-0.338-0.004-0.638,0.021-0.884,0.049c-0.494,0.056-0.779,0.109-0.779,0.109
			s0.255-0.137,0.737-0.299c0.242-0.077,0.539-0.164,0.894-0.23c0.355-0.062,0.772-0.121,1.259-0.006
			c0.115,0.016,0.265,0.089,0.401,0.15l0.144,0.091l0.036,0.023c0.018,0.015-0.015-0.016,0.046,0.036l0.021,0.021l0.082,0.085
			c0.22,0.226,0.343,0.585,0.325,0.898c-0.029,0.633-0.312,1.168-0.655,1.633c-0.348,0.466-0.756,0.897-1.227,1.264
			c-0.225,0.182-0.501,0.376-0.73,0.52c-0.247,0.159-0.56,0.34-0.924,0.427c-0.364,0.08-0.825,0.055-1.166-0.149
			c-0.335-0.189-0.585-0.437-0.777-0.674c-0.398-0.478-0.655-0.954-0.967-1.355c-0.314-0.424-0.576-0.673-1.019-1.042
			c-0.461-0.405-0.631-0.999-0.629-1.467c0.006-0.96,0.384-1.618,0.599-2.071C-23.322,93.166-23.139,92.941-23.139,92.941z"/>
	</g>
	<g>
		<path fill="#502711" d="M-16.288,78.948c0,0-1.699,2.94,0,4.053c1.699,1.114,2.033,3.822,4.033,2.634s3.263-3.053,2.382-3.87
			c-0.882-0.817-3.29,0-3.29,0"/>
		<path fill="#26160D" d="M-16.288,78.948c0,0-0.107,0.269-0.249,0.744c-0.137,0.466-0.313,1.186-0.208,1.95
			c0.059,0.377,0.233,0.725,0.54,0.946c0.34,0.22,0.888,0.624,1.223,1.06c0.365,0.428,0.69,0.899,1.017,1.28
			c0.163,0.197,0.337,0.34,0.497,0.429c0.158,0.09,0.305,0.079,0.491,0.045c0.358-0.082,0.88-0.435,1.282-0.734
			c0.416-0.323,0.812-0.663,1.123-1.04c0.311-0.371,0.553-0.783,0.606-1.134c0.029-0.178-0.013-0.307-0.092-0.428l-0.03-0.046
			l-0.007-0.012c0.052,0.041,0.005,0.003,0.012,0.009l-0.032-0.028l-0.128-0.109c-0.068-0.026-0.106-0.073-0.202-0.101
			c-0.337-0.129-0.722-0.164-1.056-0.171c-0.338-0.004-0.638,0.021-0.884,0.049c-0.494,0.056-0.779,0.109-0.779,0.109
			s0.255-0.137,0.737-0.299c0.242-0.077,0.539-0.164,0.894-0.23c0.355-0.062,0.772-0.121,1.259-0.006
			c0.115,0.016,0.265,0.089,0.401,0.15l0.144,0.091l0.036,0.023c0.018,0.015-0.015-0.016,0.046,0.036l0.021,0.021l0.082,0.085
			c0.22,0.226,0.343,0.585,0.325,0.898c-0.029,0.633-0.312,1.168-0.655,1.633c-0.348,0.466-0.756,0.897-1.227,1.264
			c-0.225,0.182-0.501,0.376-0.73,0.52c-0.247,0.159-0.56,0.34-0.924,0.427c-0.364,0.08-0.825,0.055-1.166-0.149
			c-0.335-0.189-0.585-0.437-0.777-0.674c-0.398-0.478-0.655-0.954-0.967-1.355c-0.314-0.424-0.576-0.673-1.019-1.042
			c-0.461-0.405-0.631-0.999-0.629-1.467c0.006-0.96,0.384-1.618,0.599-2.071C-16.472,79.172-16.288,78.948-16.288,78.948z"/>
	</g>
	<path opacity="0.55" fill="#191009" d="M16.871,78.441c0-9.65-7.823-17.472-17.472-17.472s-17.472,7.823-17.472,17.472
		c0,4.419,1.654,8.443,4.359,11.52c-2.796,2.173-4.874,5.211-5.84,8.719c-4.338,0.39-7.738,4.03-7.738,8.469
		c0,4.699,3.809,8.508,8.508,8.508c0.297,0,0.591-0.016,0.88-0.046c-1.281,1.988-2.034,4.35-2.034,6.892
		c0,6.831,5.377,12.391,12.127,12.719c-1.24,1.365-2.002,3.172-2.002,5.162c0,4.246,3.442,7.688,7.688,7.688
		s7.688-3.442,7.688-7.688c0-3.496-2.336-6.442-5.531-7.375c3.339-2.299,5.531-6.144,5.531-10.505c0-1.723-0.346-3.364-0.966-4.864
		c5.092-2.848,8.538-8.286,8.538-14.535c0-3.939-1.375-7.552-3.661-10.403C13.944,89.536,16.871,84.335,16.871,78.441z"/>
	<path fill="#333333" stroke="#000000" stroke-miterlimit="10" d="M85.652-35.536c0,0,9.992,99.545,9.622,109.545
		c-0.443,11.994-31.268,9.76-33.774,8.193c-5.375-3.36-21.479-44.889-15.145-84.875"/>
	<path opacity="0.41" fill="#010202" d="M82.888,82.71c0,0,4.041-0.2,5.764-6.95c1.723-6.75-0.259-32.258-0.259-32.258
		l-32.976,7.175l4.708,30.145l1.708,1.382l2.125,0.507l3.115,0.504h3.26h4.792L82.888,82.71z"/>
	<path fill="#333333" stroke="#000000" stroke-miterlimit="10" d="M54.75,164.826L54.75,164.826c0,0,3.257,31.364,1.93,53.298
		l-20.717,2.655c-3.283-10.298-5.49-23.801-6.078-37.371c-0.018,0-0.035,0.001-0.052,0.001c-0.464,0-0.917-0.006-1.366-0.013
		l0.015,0.013c0,0-0.101,20.051-2.959,37.372l-23.504,0c-3.701-24.675-3.271-58.922-3.269-58.956"/>
	<path fill="#222223" stroke="#000000" stroke-miterlimit="10" d="M35.963,220.78c3.467,10.877,8.135,18.178,13.364,18.205
		c4.595,0.024,6.638-9.051,7.353-20.86c-7.403-5.551-20.716,2.657-20.716,2.657"/>
	<path fill="#222223" stroke="#000000" stroke-miterlimit="10" d="M25.523,220.782c-6.894-5.978-23.504,0-23.504,0
		c2.073,13.825,5.444,24.646,10.914,24.761C19.536,245.681,23.337,234.03,25.523,220.782z"/>
	<g>
		<path fill="#FFFFFF" d="M20,232.843c0,0,0.029,0.676-0.101,1.661c-0.059,0.494-0.16,1.065-0.301,1.669
			c-0.134,0.606-0.331,1.24-0.539,1.871c-0.237,0.622-0.483,1.243-0.783,1.798c-0.294,0.557-0.612,1.061-0.949,1.45
			c-0.164,0.198-0.315,0.374-0.484,0.507c-0.164,0.135-0.285,0.264-0.428,0.331c-0.268,0.147-0.414,0.213-0.414,0.213
			s0.102-0.131,0.279-0.359c0.096-0.097,0.161-0.271,0.267-0.428c0.106-0.158,0.191-0.365,0.298-0.576
			c0.207-0.426,0.412-0.945,0.629-1.502c0.21-0.56,0.434-1.16,0.643-1.768c0.432-1.211,0.863-2.435,1.228-3.348
			C19.702,233.448,20,232.843,20,232.843z"/>
	</g>
	<g>
		<path fill="#FFFFFF" d="M55.105,219.843c0,0,0.016,0.281,0.013,0.771c-0.013,0.489-0.008,1.191-0.066,2.028
			c-0.101,1.675-0.364,3.899-0.831,6.094c-0.473,2.19-1.153,4.36-1.985,5.864c-0.405,0.755-0.874,1.318-1.242,1.657
			c-0.386,0.332-0.671,0.406-0.66,0.419c0,0,0.052-0.047,0.149-0.136c0.104-0.077,0.214-0.237,0.368-0.414
			c0.136-0.197,0.29-0.44,0.434-0.738c0.143-0.299,0.281-0.647,0.43-1.027c0.566-1.534,1.071-3.678,1.53-5.834
			c0.452-2.168,0.903-4.336,1.242-5.962c0.182-0.816,0.334-1.496,0.44-1.973C55.04,220.115,55.105,219.843,55.105,219.843z"/>
	</g>
	<path opacity="0.41" fill="#010202" d="M-1.013,181.762l8.18,0.58c0,0-5.068,38.183,0.383,36.883
		c-1.966,2.117,0.559,22.197,3.422,25.782c-2.506-2.377-4.928-7.111-4.928-7.111l-2.397-8.235l-1.096-5.578l-1.494-10.699
		l-0.993-10.643l-0.77-12.814l-0.206-5.076"/>
	<path opacity="0.41" fill="#010202" d="M35.167,182.343c0,0,0.454,36.814,6.268,35.782c-3.102,4.385,4.886,20.032,4.886,20.032
		l-3.711-3.364l-2.808-4.478l-2.387-5.376l-2.428-7.427l-2.063-8.639l-2.25-14.839l-0.217-6.424v-6.435"/>
	<path fill="#0E0E0E" stroke="#000000" stroke-miterlimit="10" d="M-39.495,136.197c0,0,5.245,14.438,21.933,10.5
		C-16.5,134.76-34.803,130.197-39.495,136.197z"/>
	<path fill="#332111" stroke="#000000" stroke-miterlimit="10" d="M-18.849,145.421c-4.099-12.505-18.255-10.054-18.255-10.054
		c-2.406,7.618-3.282,14.414-1.284,18.906C-35.416,160.956-27.497,155.148-18.849,145.421z"/>
	<path fill="#332111" stroke="#000000" stroke-miterlimit="10" d="M79.385,132.437c-1.115,8.428-13.447,11.377-13.447,11.377
		l0.001,0.002c4.174,3.87,8.303,6.468,11.998,6.709c5.98,0.39,5.031-7.706,1.45-18.086"/>
	<path fill="#64615D" stroke="#000000" stroke-miterlimit="10" d="M64.522,144.317c0,0,15.431,1.859,16.121-12.391l-5.288-11.67
		c-0.062,15.164-20.249,12.972-20.249,12.972L64.522,144.317z"/>
	<line fill="#E20714" stroke="#000000" stroke-miterlimit="10" x1="78.51" y1="138.974" x2="70.562" y2="126.822"/>
	<path fill="#E20714" stroke="#000000" stroke-miterlimit="10" d="M76.292,130.26c0,0-1.917,3.542-4.708,4.667
		c1.5,1.75,2.5,2.417,2.5,2.417s4.083-3.228,3.833-4.906C76.5,130.593,76.292,130.26,76.292,130.26z"/>
	<path opacity="0.41" fill="#010202" d="M62.167,131.635l9.138,12.133c0,0,2.944,6.399,6.632,6.758
		c-3.487-0.847-8.662-3.895-8.662-3.895l-2.703-2.237l-2.05-0.077l-10.813-12.974"/>
	<path fill="#333333" stroke="#000000" stroke-miterlimit="10" d="M75.493,120.736c0.429-0.992,0.418-2.123-0.045-3.099
		c-6.854-14.437-16.051-27.441-16.051-27.441s-3.487-8.353-29.829-8.678l9.354,20.492c0,0,4.563,16.468,14.057,29.913
		c0.582,0.825,1.538,1.307,2.547,1.307l7.141,0.779c3.486,0,10.701-4.716,12.083-7.916L75.493,120.736z"/>
	<path opacity="0.41" fill="#010202" d="M50.083,103.343c0,0,5.442,29.887,17.403,29.094c-2.626,1.147-2.626,1.147-2.626,1.147
		l-4.098,0.217l-5.236-0.571l-2.547-1.307l-5.895-9.08"/>
	<g>
		<path fill="#333333" stroke="#000000" stroke-miterlimit="10" d="M-17.563,146.697c5.25-7.25,9.843-15.008,14.8-22.073
			c0.58,3.876-0.404,8.002-0.404,11.718c0,8.513-0.651,19.086-0.5,26c-0.001,0.016-1.354,12.125-4.021,22.792
			c0,0,19.909,1.748,22.938,2.375c3.625,0.75,17.357-2.875,18.366-3.375c0.634,1.5,0.634,1.5,0.634,1.5s23.375-1.5,27.187-3.5
			c-1.958-4.542-5.584-17.792-5.584-17.792c-0.965-9.145-4.267-20.402-4.695-31.667C49.491,88.843,62,87.465,23.787,80.407
			c-3.853,0-7.221,0.237-10.176,0.677l0.014-0.124c-15.9-1.751-24.031,3.462-24.031,3.462s-22.133,29.744-29.089,51.775
			C-39.495,136.197-25.5,133.197-17.563,146.697z"/>
	</g>
	<path fill="#333333" stroke="#000000" stroke-miterlimit="10" d="M33.616,184.135c0,0-1.033-18.042-0.616-24.458
		c0.417-6.417-1.509-25.042-1.409-30.292c0.099-5.25,0.076-19.875,0.576-23.792c0.5-3.917-1.709-12.652-1.709-12.652"/>
	<g>
		<path d="M-7.75,86.463c0,0,0.142,0.002,0.414,0.049c0.132,0.037,0.294,0.083,0.485,0.137c0.185,0.071,0.389,0.174,0.623,0.284
			c0.221,0.128,0.451,0.297,0.711,0.469c0.249,0.185,0.481,0.428,0.751,0.668c0.486,0.52,1.033,1.141,1.447,1.919
			c0.495,0.741,0.821,1.636,1.245,2.555c0.158,0.477,0.319,0.967,0.485,1.469c0.176,0.5,0.325,1.019,0.426,1.556
			c0.226,1.069,0.512,2.169,0.62,3.31c0.148,1.136,0.318,2.289,0.362,3.449c0.044,1.159,0.172,2.318,0.142,3.458
			c-0.011,1.14-0.021,2.262-0.031,3.348c-0.02,1.085-0.131,2.129-0.196,3.12c-0.079,0.99-0.134,1.928-0.219,2.789
			c-0.195,1.722-0.419,3.15-0.546,4.15c-0.149,0.998-0.234,1.569-0.234,1.569s0.015-0.577,0.041-1.587
			c0.047-1.008,0.073-2.449,0.179-4.17c0.034-0.862,0.033-1.797,0.052-2.784c0.014-0.986,0.029-2.026,0.044-3.102
			c-0.018-1.074-0.036-2.184-0.054-3.312c0.019-1.13-0.122-2.266-0.174-3.408c-0.031-1.146-0.187-2.275-0.321-3.389
			c-0.101-1.122-0.326-2.198-0.521-3.247c-0.079-0.53-0.22-1.032-0.355-1.525c-0.131-0.495-0.26-0.979-0.384-1.451
			c-0.355-0.9-0.619-1.794-1.049-2.522c-0.192-0.377-0.37-0.744-0.601-1.051c-0.223-0.31-0.393-0.647-0.631-0.892
			c-0.233-0.249-0.433-0.507-0.653-0.706c-0.231-0.185-0.436-0.37-0.637-0.514c-0.213-0.127-0.403-0.241-0.569-0.339
			c-0.178-0.076-0.33-0.141-0.453-0.194C-7.605,86.484-7.75,86.463-7.75,86.463z"/>
	</g>
	<g>
		<path fill="#FFFFFF" d="M80,140.47c0,0,0.422,0.373,0.813,1.101c0.205,0.359,0.39,0.806,0.538,1.304
			c0.144,0.5,0.234,1.054,0.251,1.615c0.009,0.56-0.044,1.127-0.19,1.635c-0.048,0.259-0.152,0.495-0.244,0.717
			c-0.08,0.226-0.187,0.427-0.303,0.602c-0.413,0.727-0.888,1.053-0.864,1.065c0,0,0.03-0.139,0.092-0.365
			c0.069-0.224,0.161-0.538,0.24-0.915c0.097-0.369,0.162-0.808,0.214-1.267c0.049-0.461,0.084-0.953,0.056-1.446
			c0.005-0.494-0.061-0.988-0.111-1.457c-0.068-0.467-0.139-0.908-0.215-1.29C80.127,141.006,80,140.47,80,140.47z"/>
	</g>
	<g>
		<path fill="#FFFFFF" d="M-34.75,156.26c0,0,0.612-0.578,1.577-1.358c0.961-0.786,2.272-1.78,3.585-2.758
			c0.658-0.485,1.316-0.971,1.932-1.426c0.61-0.461,1.174-0.894,1.651-1.275c0.231-0.198,0.443-0.379,0.631-0.54
			c0.178-0.173,0.333-0.324,0.461-0.448c0.223-0.284,0.35-0.446,0.35-0.446s-0.055,0.194-0.185,0.556
			c-0.169,0.329-0.444,0.794-0.851,1.283c-0.802,0.99-2.059,2.107-3.395,3.099c-1.34,0.988-2.76,1.853-3.866,2.432
			C-33.96,155.965-34.75,156.26-34.75,156.26z"/>
	</g>
	<path opacity="0.41" fill="#010202" d="M-2.762,124.624c0,0,2.075-1.74,2.575-4.74c1.125,5.625,1.375,11.731,0.813,13.678
		c-0.563,1.947-0.421,18.322,0.29,19.322s1.859,31.033,0.441,33.079c-9.043-0.829-9.043-0.829-9.043-0.829l2.949-14.998l1.071-7.794
		l0.175-11.804l0.319-12.717l0.589-10.124L-2.762,124.624z"/>
	<path opacity="0.41" fill="#010202" d="M-32.526,136.197c0,0-8.46,11.521-4.467,20.062c-1.842-3.179-2.503-6.083-2.503-6.083
		l0.224-5.409l1.658-7.725l0.53-1.87L-32.526,136.197z"/>
	<path fill="#E00914" stroke="#5C120F" stroke-miterlimit="10" d="M42.959,110.26h-3.097c-1.014,0-1.844-0.83-1.844-1.844l0,0
		c0-1.014,0.83-1.844,1.844-1.844h3.097c1.014,0,1.844,0.83,1.844,1.844l0,0C44.803,109.43,43.973,110.26,42.959,110.26z"/>
	<path fill="#E00914" stroke="#5C120F" stroke-miterlimit="10" d="M41.854,107.655c0,0,0.8,1.688-0.444,1.354
		c-0.265,0.479-0.265,0.479-0.265,0.479L41,108.01l1.792,1.104"/>
	<path fill="#F7EDE1" stroke="#CB860D" stroke-miterlimit="10" d="M9.833,75.797c0,0-5.131,11.667,6,15.667
		c6.313,2.269,19,2,21.333-1.333c2.333-3.333,1.667-18.667,1.667-18.667L9.833,75.797z"/>
	<path opacity="0.29" fill="#CB860D" d="M8.652,78.948l4.098-6.696l8.917,3.953c0,0-3.833,7.918-1,14.445
		C15,89.343,8.652,78.948,8.652,78.948z"/>
	<path fill="#333333" stroke="#000000" stroke-miterlimit="10" d="M9.833,75.797l-6.438,4.946c0,0,9.021,14.287,20.104,14.953
		c0.75-7.131,0.75-7.131,0.75-7.131S9.999,85.669,9.833,75.797"/>
	<path fill="#333333" stroke="#000000" stroke-miterlimit="10" d="M44.212,74.678l7.018,3.718c0,0-7.506,14.796-18.397,16.947
		c-1.243-6.784-1.243-6.784-1.243-6.784S45.329,83.894,44.212,74.678"/>
	<g>
		<path fill="#F7EDE1" stroke="#CB860D" stroke-miterlimit="10" d="M26.479-65.355C-7.272-64.892-34.622-38.089-34.622-5.221
			c0,0.208-0.002-0.208,0,0c-3.251,19.984,4.442,51.537,9.83,66.268c5.059,13.831,67.236,27.469,99.5,13.5
			c23-9.958,25.042-27.25,23.754-33.11c-1.208-5.5-6.379-7.64-6.296-23.64c0.051-9.771-2.905-23.658-5.502-33.942
			c-0.591-3.295-1.453-6.497-2.576-9.581l0,0C84.088-25.726,76.124-66.037,26.479-65.355z"/>
		
			<ellipse transform="matrix(0.9985 0.055 -0.055 0.9985 2.4841 -0.1905)" opacity="0.58" fill="#E6007E" cx="4.702" cy="45.012" rx="12.126" ry="4.462"/>
		
			<ellipse transform="matrix(0.9949 -0.1011 0.1011 0.9949 -3.5626 8.9453)" opacity="0.58" fill="#E6007E" cx="86.495" cy="39.629" rx="10.191" ry="3.75"/>
		<g>
			<path fill="#CB860D" d="M36.458,62.797c0,0,0.511,0.162,1.415,0.398c0.9,0.246,2.204,0.53,3.773,0.768
				c1.563,0.229,3.431,0.372,5.332,0.051c0.95-0.15,1.889-0.471,2.721-0.969c0.196-0.14,0.409-0.262,0.587-0.426l0.313-0.257
				c0.106-0.082,0.196-0.163,0.35-0.251c0.555-0.341,1.066-0.518,1.614-0.685c1.082-0.306,2.182-0.45,3.283-0.453
				c0.552,0.002,1.102,0.032,1.668,0.165c0.552,0.152,1.003,0.309,1.464,0.42c1.866,0.468,3.711,0.41,5.197-0.028
				c1.483-0.454,2.62-1.161,3.338-1.74c0.722-0.581,1.072-0.993,1.072-0.993s-0.259,0.479-0.923,1.158
				c-0.33,0.34-0.761,0.728-1.303,1.117c-0.537,0.398-1.214,0.748-1.986,1.049c-0.777,0.285-1.662,0.512-2.618,0.58
				c-0.956,0.068-1.971-0.005-2.991-0.224c-0.52-0.101-1.032-0.281-1.476-0.395c-0.439-0.101-0.939-0.129-1.437-0.126
				c-1.002,0.009-2.038,0.161-3.015,0.422c-0.476,0.133-0.978,0.326-1.333,0.539c-0.083,0.037-0.195,0.131-0.299,0.21l-0.304,0.245
				c-0.217,0.191-0.465,0.334-0.699,0.495c-0.983,0.573-2.058,0.875-3.089,1.01c-2.076,0.27-3.981-0.049-5.563-0.368
				c-1.587-0.338-2.853-0.808-3.732-1.132C36.937,63.039,36.458,62.797,36.458,62.797z"/>
		</g>
		<path fill="#FFFFFF" d="M30.083,6.547c0,0-24.25-8.25-43.583,5.583c2.75,11,7.583,27.167,7.583,27.167s31.5-0.75,34.5-3.25
			S30.083,6.547,30.083,6.547z"/>
		<path fill="#FFFFFF" d="M56.5,5.631c0,0,16.333-8.5,31.333-0.167c-0.167,11.833,1.333,24.667,1.333,24.667
			S63.5,34.964,60.5,32.464S56.5,5.631,56.5,5.631z"/>
		<g>
			<defs>
				<path id="SVGID_1_" d="M30.083,6.547c0,0-24.25-8.25-43.583,5.583c2.75,11,7.583,27.167,7.583,27.167s31.5-0.75,34.5-3.25
					S30.083,6.547,30.083,6.547z"/>
			</defs>
			<clipPath id="SVGID_2_">
				<use xlink:href="#SVGID_1_"  overflow="visible"/>
			</clipPath>
			<g clip-path="url(#SVGID_2_)">
				<linearGradient id="SVGID_3_" gradientUnits="userSpaceOnUse" x1="8.2913" y1="41.6247" x2="8.2913" y2="2.0586">
					<stop  offset="0" style="stop-color:#69B42E"/>
					<stop  offset="1" style="stop-color:#1E1E1C"/>
				</linearGradient>
				<ellipse fill="url(#SVGID_3_)" stroke="#010202" stroke-miterlimit="10" cx="8.291" cy="21.842" rx="14.375" ry="19.783"/>
				<ellipse opacity="0.46" fill="#010202" cx="8.291" cy="21.842" rx="5.75" ry="7.913"/>
				<circle fill="#FFFFFF" cx="15.958" cy="15.024" r="6.678"/>
				<circle opacity="0.69" fill="#FFFFFF" cx="0.28" cy="34.338" r="4.959"/>
				<circle opacity="0.21" fill="#FFFFFF" cx="16.642" cy="33.304" r="3.925"/>
			</g>
		</g>
		<g>
			<defs>
				<path id="SVGID_4_" d="M56.5,5.631c0,0,16.333-8.5,31.333-0.167c-0.167,11.833,1.333,24.667,1.333,24.667
					S63.5,34.964,60.5,32.464S56.5,5.631,56.5,5.631z"/>
			</defs>
			<clipPath id="SVGID_5_">
				<use xlink:href="#SVGID_4_"  overflow="visible"/>
			</clipPath>
			<g clip-path="url(#SVGID_5_)">
				<linearGradient id="SVGID_6_" gradientUnits="userSpaceOnUse" x1="70.86" y1="37.2756" x2="70.86" y2="-2.2905">
					<stop  offset="0" style="stop-color:#69B42E"/>
					<stop  offset="1" style="stop-color:#1E1E1C"/>
				</linearGradient>
				<ellipse fill="url(#SVGID_6_)" stroke="#010202" stroke-miterlimit="10" cx="70.86" cy="17.493" rx="14.375" ry="19.783"/>
				<ellipse opacity="0.46" fill="#010202" cx="70.86" cy="17.493" rx="5.75" ry="7.913"/>
				<circle fill="#FFFFFF" cx="78.527" cy="10.675" r="6.678"/>
				<circle opacity="0.69" fill="#FFFFFF" cx="62.849" cy="29.989" r="4.959"/>
				<circle opacity="0.21" fill="#FFFFFF" cx="79.211" cy="28.955" r="3.925"/>
			</g>
		</g>
		<g>
			<path fill="#010202" d="M56.5,5.631c1.139-0.756,2.352-1.413,3.604-1.981c0.621-0.301,1.268-0.531,1.905-0.8
				c0.641-0.255,1.297-0.473,1.954-0.692c0.659-0.211,1.33-0.38,1.998-0.573c0.668-0.195,1.353-0.315,2.035-0.457
				c0.681-0.155,1.374-0.232,2.067-0.328c0.692-0.1,1.387-0.193,2.09-0.22c0.701-0.025,1.403-0.089,2.107-0.073l2.116,0.069
				c0.706,0.022,1.407,0.144,2.111,0.224l1.053,0.148c0.349,0.061,0.693,0.157,1.039,0.234l2.075,0.499l2.019,0.701
				c0.336,0.118,0.673,0.236,1,0.376l0.958,0.475l1.912,0.953l0.764,0.381l-0.012,0.918l-0.08,6.122l0.003,6.148l0.007,6.172
				c0,2.062-0.012,4.127-0.059,6.204c-0.505-2.017-0.899-4.053-1.241-6.097c-0.18-1.021-0.324-2.046-0.466-3.073
				c-0.139-1.026-0.289-2.053-0.388-3.084l-0.307-3.094c-0.103-1.033-0.152-2.068-0.215-3.104c-0.057-1.036-0.11-2.074-0.146-3.113
				c-0.042-1.038-0.022-2.081-0.033-3.122l0.752,1.299L85.379,5.92L84.51,5.507c-0.295-0.124-0.607-0.209-0.905-0.327l-1.806-0.67
				L79.93,4.024c-0.313-0.076-0.621-0.172-0.937-0.233L78.037,3.64c-0.639-0.091-1.268-0.258-1.915-0.311l-1.941-0.179
				c-0.648-0.055-1.302-0.027-1.955-0.05c-0.654-0.04-1.309-0.016-1.965,0.014c-0.656,0.027-1.316,0.033-1.971,0.118
				c-0.654,0.082-1.319,0.099-1.975,0.198c-0.655,0.097-1.318,0.169-1.973,0.286l-1.97,0.364c-0.651,0.15-1.315,0.268-1.962,0.447
				C59.096,4.831,57.796,5.202,56.5,5.631z"/>
		</g>
		<g>
			<path fill="#010202" d="M30.083,6.547c-0.931-0.203-1.867-0.349-2.801-0.494c-0.933-0.152-1.87-0.266-2.806-0.372
				c-0.93-0.137-1.874-0.181-2.805-0.276l-2.805-0.17c-0.934-0.044-1.87-0.03-2.801-0.049c-0.931-0.021-1.862,0.039-2.791,0.054
				c-0.93,0.001-1.853,0.105-2.776,0.184C9.575,5.504,8.653,5.568,7.741,5.72C6.829,5.861,5.909,5.947,5.007,6.132L2.312,6.719
				C1.409,6.89,0.544,7.207-0.341,7.442l-1.32,0.38c-0.437,0.134-0.855,0.325-1.283,0.484l-2.553,0.998l-2.459,1.204
				c-0.408,0.204-0.826,0.391-1.227,0.609l-1.159,0.728l-2.324,1.452l0.557-1.514l3.232,13.697c0.513,2.295,1.058,4.582,1.544,6.887
				c0.256,1.149,0.499,2.301,0.733,3.457c0.247,1.152,0.457,2.315,0.684,3.474c-0.899-2.185-1.757-4.384-2.553-6.602
				c-0.821-2.211-1.569-4.444-2.331-6.674c-0.735-2.238-1.446-4.484-2.144-6.736c-0.665-2.261-1.319-4.527-1.947-6.806l-0.27-0.978
				l0.826-0.536l2.467-1.602l1.236-0.799c0.427-0.241,0.871-0.45,1.305-0.677L-6.7,6.556l2.753-1.031
				c0.461-0.163,0.913-0.358,1.382-0.495l1.415-0.387c0.947-0.237,1.877-0.558,2.838-0.724l2.883-0.49
				c0.961-0.151,1.935-0.2,2.9-0.303c0.965-0.117,1.935-0.143,2.904-0.142c0.969-0.009,1.936-0.042,2.901,0.028
				c0.964,0.063,1.93,0.055,2.888,0.179c0.957,0.119,1.915,0.207,2.866,0.353c0.948,0.166,1.899,0.293,2.836,0.502
				c0.935,0.223,1.875,0.396,2.797,0.661c0.926,0.241,1.841,0.521,2.748,0.821C28.316,5.826,29.209,6.175,30.083,6.547z"/>
		</g>
		<g>
			<path fill="none" d="M106.957,83.784"/>
		</g>
		<path fill="#76144D" d="M41.957-35.536"/>
		<path fill="#76144D" d="M38.442-36.473"/>
		<g opacity="0.44">
			<path fill="#A81916" d="M-3.792,42.422c0,0,0.377,0.357,0.873,0.952c0.494,0.595,1.113,1.424,1.637,2.316
				c0.531,0.887,0.96,1.84,1.19,2.587c0.234,0.748,0.266,1.27,0.266,1.27s-0.051-0.119-0.141-0.326
				c-0.071-0.211-0.232-0.493-0.386-0.839c-0.334-0.685-0.842-1.562-1.359-2.437c-0.522-0.876-1.044-1.752-1.436-2.409
				C-3.541,42.876-3.792,42.422-3.792,42.422z"/>
		</g>
		<g opacity="0.44">
			<path fill="#A81916" d="M1.583,41.297c0,0,0.417,0.307,0.941,0.876c0.256,0.288,0.558,0.625,0.84,1.018
				c0.288,0.389,0.56,0.829,0.809,1.283c0.237,0.46,0.46,0.93,0.613,1.393c0.083,0.229,0.153,0.453,0.199,0.672
				c0.049,0.218,0.109,0.419,0.133,0.613c0.073,0.382,0.085,0.706,0.088,0.932c0.001,0.225,0.001,0.353,0.001,0.353
				s-0.036-0.123-0.098-0.339c-0.043-0.218-0.151-0.518-0.264-0.877c-0.115-0.359-0.28-0.765-0.47-1.193
				c-0.185-0.429-0.405-0.878-0.643-1.317c-0.468-0.882-1.008-1.732-1.429-2.363C1.871,41.717,1.583,41.297,1.583,41.297z"/>
		</g>
		<g opacity="0.44">
			<path fill="#A81916" d="M9.94,41.297c0,0,0.235,0.592,0.47,1.513c0.234,0.921,0.487,2.168,0.592,3.434
				c0.118,1.265,0.087,2.543-0.018,3.49c-0.046,0.475-0.125,0.865-0.181,1.137c-0.06,0.271-0.095,0.425-0.095,0.425
				s-0.001-0.159-0.002-0.436c0.016-0.275-0.004-0.67-0.003-1.139c-0.015-0.941-0.089-2.188-0.198-3.433
				c-0.109-1.245-0.253-2.49-0.369-3.426C10.018,41.924,9.94,41.297,9.94,41.297z"/>
		</g>
		<g opacity="0.44">
			<path fill="#A81916" d="M14.047,42.616c0,0,0.289,0.277,0.639,0.76c0.349,0.481,0.763,1.166,1.05,1.915
				c0.143,0.374,0.258,0.76,0.332,1.131c0.075,0.372,0.085,0.73,0.086,1.032c-0.015,0.305-0.059,0.554-0.113,0.723
				c-0.049,0.169-0.084,0.261-0.084,0.261s-0.005-0.099-0.013-0.273c0.014-0.169-0.043-0.411-0.071-0.692
				c-0.044-0.283-0.135-0.604-0.233-0.946c-0.11-0.339-0.224-0.702-0.371-1.056c-0.279-0.711-0.585-1.422-0.827-1.955
				C14.204,42.983,14.047,42.616,14.047,42.616z"/>
		</g>
		<g opacity="0.44">
			<path fill="#A81916" d="M76.083,39.297c0,0,0.35,0.174,0.806,0.535c0.453,0.361,1.019,0.902,1.466,1.546
				c0.216,0.326,0.421,0.66,0.569,0.999c0.157,0.333,0.246,0.669,0.32,0.952c0.068,0.287,0.084,0.532,0.088,0.702
				c0.006,0.17,0.002,0.266,0.002,0.266s-0.035-0.09-0.097-0.248c-0.043-0.161-0.154-0.374-0.259-0.631
				c-0.232-0.51-0.609-1.146-1.032-1.754c-0.427-0.605-0.89-1.194-1.252-1.632C76.327,39.592,76.083,39.297,76.083,39.297z"/>
		</g>
		<g opacity="0.44">
			<path fill="#A81916" d="M79.333,35.297c0,0,0.679,0.294,1.637,0.847c0.476,0.282,1.031,0.613,1.602,1.004
				c0.571,0.392,1.161,0.839,1.73,1.314c0.56,0.486,1.111,0.986,1.568,1.517c0.241,0.252,0.448,0.521,0.632,0.786
				c0.198,0.252,0.354,0.515,0.494,0.759c0.156,0.233,0.252,0.475,0.33,0.69c0.087,0.211,0.158,0.394,0.179,0.56
				c0.057,0.319,0.09,0.501,0.09,0.501s-0.066-0.171-0.183-0.471c-0.042-0.153-0.14-0.321-0.254-0.51
				c-0.108-0.192-0.232-0.404-0.399-0.619c-0.304-0.446-0.73-0.917-1.21-1.394c-0.472-0.485-1.015-0.968-1.569-1.436
				c-0.551-0.474-1.127-0.92-1.666-1.341c-0.546-0.411-1.049-0.809-1.497-1.125C79.927,35.73,79.333,35.297,79.333,35.297z"/>
		</g>
		<g opacity="0.44">
			<path fill="#A81916" d="M87.596,36.797c0,0,0.325,0.102,0.719,0.419c0.189,0.163,0.415,0.359,0.604,0.613
				c0.202,0.246,0.363,0.545,0.512,0.849c0.133,0.312,0.234,0.634,0.296,0.943c0.054,0.311,0.07,0.604,0.07,0.853
				c0.016,0.248-0.038,0.456-0.049,0.599c-0.021,0.143-0.04,0.224-0.04,0.224s-0.025-0.081-0.058-0.22
				c-0.029-0.14-0.074-0.337-0.133-0.569c-0.042-0.235-0.14-0.496-0.217-0.777c-0.098-0.276-0.196-0.568-0.326-0.848
				c-0.254-0.56-0.569-1.096-0.86-1.47C87.83,37.034,87.596,36.797,87.596,36.797z"/>
		</g>
		<g opacity="0.44">
			<path fill="#A81916" d="M93.709,42.616c0,0-0.08-0.389-0.137-0.972c-0.058-0.583-0.099-1.361-0.133-2.123
				c-0.045-0.758-0.117-1.5-0.4-1.976c-0.134-0.238-0.277-0.431-0.395-0.552c-0.118-0.125-0.186-0.196-0.186-0.196
				s0.09,0.038,0.246,0.119c0.145,0.092,0.372,0.224,0.566,0.469c0.198,0.238,0.387,0.567,0.485,0.94
				c0.108,0.371,0.153,0.772,0.182,1.168c0.041,0.792-0.026,1.569-0.085,2.152C93.788,42.227,93.709,42.616,93.709,42.616z"/>
		</g>
		<radialGradient id="SVGID_7_" cx="92.4644" cy="37.7475" r="4.8686" gradientUnits="userSpaceOnUse">
			<stop  offset="0" style="stop-color:#FFFFFF;stop-opacity:0.95"/>
			<stop  offset="1" style="stop-color:#FFFFFF;stop-opacity:0"/>
		</radialGradient>
		<circle opacity="0.51" fill="url(#SVGID_7_)" cx="92.464" cy="37.748" r="4.869"/>
		<radialGradient id="SVGID_8_" cx="12.4644" cy="44.2975" r="4.8686" gradientUnits="userSpaceOnUse">
			<stop  offset="0" style="stop-color:#FFFFFF;stop-opacity:0.95"/>
			<stop  offset="1" style="stop-color:#FFFFFF;stop-opacity:0"/>
		</radialGradient>
		<circle opacity="0.51" fill="url(#SVGID_8_)" cx="12.464" cy="44.297" r="4.869"/>
		<g>
			<path fill="#255626" d="M19.202-14.171c0,0-0.704,0.092-1.936,0.253c-0.614,0.083-1.36,0.184-2.215,0.299
				c-0.427,0.063-0.881,0.13-1.359,0.201c-0.478,0.073-0.987,0.055-1.513,0.111c-4.215,0.323-9.834,0.921-15.356,2.026
				c-2.76,0.549-5.493,1.22-7.999,2.015c-1.252,0.399-2.445,0.833-3.558,1.282c-1.108,0.462-2.135,0.939-3.056,1.428
				c-0.898,0.529-1.74,0.965-2.491,1.37c-0.714,0.451-1.348,0.847-1.816,1.241c-0.5,0.362-0.84,0.704-1.087,0.927
				c-0.245,0.226-0.376,0.347-0.376,0.347s0.104-0.144,0.299-0.413c0.201-0.265,0.464-0.691,0.909-1.134
				c0.41-0.482,0.979-0.99,1.638-1.581c0.348-0.271,0.719-0.559,1.109-0.862c0.396-0.3,0.881-0.495,1.343-0.777
				c0.954-0.506,2.012-0.998,3.148-1.471c1.141-0.46,2.359-0.902,3.634-1.309c2.55-0.809,5.319-1.488,8.107-2.043
				c5.579-1.116,11.232-1.717,15.475-2.042c0.531-0.029,1.037-0.11,1.523-0.107c0.486,0.011,0.948,0.022,1.381,0.032
				c0.866,0.031,1.621,0.058,2.243,0.08C18.493-14.242,19.202-14.171,19.202-14.171z"/>
		</g>
		<g>
			<path fill="#255626" d="M55.073-13.838c0,0,0.46-0.203,1.285-0.501c0.415-0.144,0.918-0.318,1.496-0.518
				c0.291-0.096,0.6-0.198,0.926-0.306c0.328-0.101,0.689-0.123,1.054-0.203c2.941-0.541,6.896-1.135,10.898-1.309
				c1.999-0.089,4.009-0.075,5.89,0.084c0.941,0.084,1.848,0.202,2.705,0.356c0.856,0.161,1.66,0.353,2.392,0.579
				c0.357,0.141,0.73,0.188,1.038,0.368c0.309,0.175,0.603,0.331,0.87,0.495c0.527,0.346,0.97,0.656,1.303,0.958
				c0.354,0.267,0.569,0.555,0.733,0.722c0.158,0.173,0.243,0.265,0.243,0.265s-0.107-0.065-0.308-0.188
				c-0.203-0.118-0.481-0.311-0.875-0.489c-0.376-0.205-0.862-0.392-1.416-0.59c-0.572-0.165-1.206-0.333-1.883-0.586
				c-0.69-0.213-1.456-0.396-2.276-0.55c-0.822-0.148-1.699-0.262-2.612-0.344c-1.827-0.155-3.795-0.169-5.76-0.082
				c-3.934,0.17-7.85,0.757-10.761,1.293c-0.367,0.053-0.705,0.171-1.044,0.196c-0.339,0.026-0.661,0.052-0.963,0.075
				c-0.605,0.056-1.132,0.105-1.566,0.145C55.572-13.885,55.073-13.838,55.073-13.838z"/>
		</g>
	</g>
	<circle fill="#454444" stroke="#010202" stroke-miterlimit="10" cx="27.52" cy="97.234" r="2.938"/>
	<path fill="#191009" d="M22.5,91.593"/>
	<path opacity="0.41" fill="#010202" d="M-30.833,136.197c0,0,19.129-48.736,26.941-46.677c0.875-2.754,7.546-8.121,8.767-6.635
		c0.346-1.764,6.031-2.818,6.031-2.818l-1.234-3.862l-6.466,4.554l-4.992,0.68l-4.067,1.037l-4.554,1.947l-2.812,3.914l-3.178,4.605
		l-4.348,6.591l-4.018,6.436l-5.492,9.531l-4.913,9.736l-3.091,7.378l-1.236,3.584H-30.833z"/>
	<g>
		<path fill="#FFFFFF" d="M27.125,95.697c0,0,0.226-0.209,0.663-0.23c0.216-0.017,0.486,0.024,0.745,0.166
			c0.271,0.128,0.495,0.381,0.649,0.65c0.287,0.566,0.229,1.155,0.093,1.528c-0.06,0.192-0.16,0.337-0.223,0.438
			c-0.068,0.1-0.115,0.153-0.115,0.153s-0.135-0.267-0.236-0.607c-0.033-0.084-0.066-0.173-0.088-0.265
			c-0.019-0.095-0.075-0.179-0.096-0.273c-0.019-0.097-0.075-0.177-0.102-0.264c-0.024-0.092-0.074-0.163-0.114-0.239
			c-0.144-0.297-0.365-0.538-0.646-0.732C27.387,95.833,27.125,95.697,27.125,95.697z"/>
	</g>
	<path fill="#E4EAE9" stroke="#5F5F5E" stroke-miterlimit="10" d="M26.479-65.355C-7.272-64.892-34.622-38.089-34.622-5.221
		c0,0.208-0.002-0.208,0,0c-3.251,19.984,4.442,51.537,9.83,66.268c5.059,13.831,67.236,27.469,99.5,13.5
		c23-9.958,25.042-27.25,23.754-33.11c-1.208-5.5-6.379-7.64-6.296-23.64c0.051-9.771-2.905-23.658-5.502-33.942
		c-0.591-3.295-1.453-6.497-2.576-9.581l0,0C84.088-25.726,76.124-66.037,26.479-65.355z"/>
	<path opacity="0.2" fill="#5F5F5E" d="M30.458,80.066c0,0-0.173-2.401-0.457-5.388c-0.338-3.558-5.671-4.188-6.214-6.335
		c-1-3.95-2.008-11.365-4.585-16.849c-3.327-5.359-4.165-5.967-4.165-5.967L4.702,52.085l-1.306-1.139l-4.528-4.649l-4.111-7.25
		l-0.534-2.25L-4.5,34.01l1.25-0.625l-1.125-12.5l-20.625-8l-5,26.163l9.945,27.51l10.305,4.906l8.04,2.863l10.001,2.668
		l11.552,1.997l6.281,0.518L30.458,80.066z"/>
	<polygon opacity="0.2" fill="#5F5F5E" points="-19.682,-6.828 4.702,-22.49 -14.125,-30.115 -24.5,-18.472 	"/>
	<path opacity="0.2" fill="#5F5F5E" d="M42.089,32.66l-5.498,0.539c0,0-7.341,3.637-9.091,8.599s-2.75,14.462-1.25,17.837
		s5.375,9,9.25,10.625s14.25,0,14.25,0L42.089,32.66z"/>
	<path fill="#333333" stroke="#000000" stroke-miterlimit="10" d="M78.443-62.271c0,0-2.19-24.756-19.786-26.461
		c-17.595-1.706-95.393-2.191-105.838,10.295S-63.673-1.003-63.274,11.98c2.158,70.129,3.237,84.844,21.564,85.655
		c41.951,1.858,19.574-8.534,18.574-61.422c-0.351-18.559,5.892-61.451,5.892-61.451"/>
	<path fill="#333333" stroke="#000000" stroke-miterlimit="10" d="M-22.609-26.115c0,0-11.353-48.311,3.267-51.539
		c14.62-3.228,93.393-10.125,101.173,1.452s11.738,46.93,4.262,48.527C78.616-26.077-19.336-13.555-22.609-26.115z"/>
	<g>
		<path d="M-29.45-72.4c0,0-0.243-0.089-0.668-0.246c-0.417-0.169-1.032-0.366-1.752-0.626c-1.449-0.501-3.376-1.144-5.335-1.629
			c-0.491-0.109-0.979-0.245-1.466-0.334c-0.489-0.072-0.962-0.215-1.431-0.262c-0.467-0.052-0.917-0.161-1.349-0.184
			c-0.431-0.028-0.84-0.1-1.218-0.109c-0.378-0.007-0.728-0.029-1.04-0.049c-0.311-0.013-0.58,0.014-0.805,0.016
			c-0.449,0.012-0.713,0.006-0.713,0.006s0.245-0.081,0.685-0.199c0.439-0.129,1.077-0.265,1.862-0.349
			c0.391-0.055,0.816-0.048,1.268-0.063c0.453-0.026,0.925,0.024,1.417,0.055c0.493,0.025,0.993,0.111,1.503,0.188
			c0.509,0.082,1.017,0.208,1.53,0.313c1.009,0.274,2.009,0.577,2.911,0.951c0.91,0.353,1.727,0.758,2.414,1.125
			c0.687,0.368,1.229,0.73,1.609,0.976C-29.651-72.567-29.45-72.4-29.45-72.4z"/>
	</g>
	<g>
		<path d="M-56.689-19.447c0,0,0.455,0.091,1.251,0.25c0.794,0.164,1.928,0.398,3.288,0.679c1.358,0.28,2.943,0.606,4.641,0.956
			c1.699,0.336,3.505,0.719,5.32,1.046c1.81,0.354,3.627,0.667,5.333,0.931c1.706,0.264,3.301,0.502,4.677,0.612
			c0.688,0.076,1.318,0.106,1.879,0.143c0.561,0.041,1.052,0.069,1.454,0.048c0.812-0.001,1.275-0.002,1.275-0.002
			s-0.459,0.071-1.263,0.196c-0.404,0.071-0.897,0.102-1.465,0.13c-0.567,0.035-1.211,0.084-1.909,0.047
			c-1.398-0.024-3.032-0.094-4.765-0.302c-1.737-0.182-3.574-0.485-5.402-0.821c-0.914-0.169-1.821-0.371-2.716-0.558
			c-0.896-0.183-1.765-0.416-2.613-0.613c-1.69-0.419-3.248-0.882-4.584-1.269c-1.337-0.387-2.431-0.781-3.201-1.035
			C-56.256-19.276-56.689-19.447-56.689-19.447z"/>
	</g>
	<polygon fill="#E00914" stroke="#5C120F" stroke-miterlimit="10" points="55.332,-58.129 46.613,-47.876 50.117,-34.881 
		37.671,-40.004 26.395,-32.656 27.422,-46.076 16.949,-54.529 30.029,-57.7 34.833,-70.273 41.89,-58.813 	"/>
	<polyline fill="#5C120F" points="34.833,-70.273 36.14,-51.464 30.029,-57.7 	"/>
	<polyline fill="#5C120F" points="16.949,-54.529 36.14,-51.464 27.422,-46.076 36.14,-51.464 26.395,-32.656 27.437,-45.975 	"/>
	<polyline fill="#5C120F" points="37.671,-40.004 36.14,-51.464 50.117,-34.881 	"/>
	<polyline fill="#5C120F" points="36.14,-51.464 55.332,-58.129 46.613,-47.876 	"/>
	<path opacity="0.41" fill="#010202" d="M-29.287,97.725c0,0-8.937-0.141-13.713-4.784c-9.229-8.97-2.595-30.735-3.262-41.644
		s-7.905-51.121-7.905-56.121s6.989-12.214,6.989-12.214S-52.167-18.24-51-24.74s4.178-43.342,6.5-45.532
		c2.833-2.673,9.103-4.634,9.103-4.634s-4.103,0.083-4.936-3.083c-0.833-3.167,0.315-4.668,0.315-4.668l-3.622,1.57l-3.141,2.217
		l-2.325,3.403l-1.839,4.121l-1.757,5.188l-1.824,6.79l-2.161,10.964l-2.158,11.934l-1.597,11.732l-1.185,10.569l-1.02,11.499
		l-0.587,10.26v9.76l0.615,14.571l0.439,11.087l0.537,10.59l0.98,12.961l0.984,8.12l1.488,7.634l1.993,5.951l3.044,4.842
		l3.271,2.579l4.468,2.15l3.083-0.159L-29.287,97.725z"/>
	<path opacity="0.41" fill="#010202" d="M-18.991-77.73c-1.125-0.121-7.228,5.207-8.853,9.489S-28.75-47.73-28.75-43.173
		s1.278,15.682,2.702,17.807s3.981,2.492,8.152,4.785c0.546-3.983,0.28-2.024,0.28-2.024l6.623,1.276c0,0-6.634-6.356-7.631-8.787
		c-1.042-2.541-2.167-8.113-2.208-10.625c-0.044-2.674-1.46-18.326-1.433-20.128c0.031-2.094,0.298-7.528,0.892-10.622
		C-21.022-73.332-18.991-77.73-18.991-77.73z"/>
	<path fill="none" stroke="#000000" stroke-miterlimit="10" d="M-35.818,97.455c-0.035,0.889-0.129,1.586-0.316,1.865
		c-0.75,1.118-0.833,5.855,0,7.237c0.833,1.382,1.833,11.053,1.167,11.513"/>
	<path fill="none" stroke="#000000" stroke-miterlimit="10" d="M74.565,83.125c0,0,0.216,4.833-0.606,5.431
		c-0.821,0.598-1.226,3.474-0.491,4.407c0.734,0.934,1.072,6.934,0.378,7.141"/>
	<circle fill="#333333" stroke="#000000" stroke-miterlimit="10" cx="-34.75" cy="119.476" r="2.089"/>
	<circle fill="#333333" stroke="#000000" stroke-miterlimit="10" cx="74.093" cy="99.847" r="1.443"/>
	<g>
		<path fill="#E4EAE9" d="M88.393,17.493l8.94,2.767c0,0,2.667,19.546,3.167,29.288c-10,5.742-8.036,7.462-8.036,7.462"/>
		<path fill="#5F5F5E" d="M88.393,17.493c1.514,0.382,3.018,0.799,4.525,1.206c1.509,0.4,3.007,0.833,4.507,1.263l0.186,0.053
			l0.032,0.203c0.377,2.429,0.765,4.855,1.071,7.293l0.926,7.313c0.158,1.219,0.267,2.443,0.394,3.666l0.343,3.672l0.3,3.678
			c0.1,1.226,0.135,2.459,0.184,3.69l0.009,0.223l-0.19,0.109c-0.828,0.474-1.674,0.923-2.482,1.429
			c-0.408,0.247-0.82,0.49-1.214,0.757c-0.396,0.264-0.803,0.515-1.189,0.793c-0.394,0.269-0.782,0.545-1.151,0.844
			c-0.189,0.145-0.378,0.29-0.551,0.451c-0.174,0.16-0.364,0.308-0.527,0.478c-0.333,0.335-0.662,0.683-0.906,1.084
			c-0.131,0.195-0.238,0.41-0.289,0.638c-0.056,0.222-0.059,0.483,0.094,0.675c-0.172-0.176-0.199-0.45-0.163-0.687
			c0.031-0.244,0.121-0.479,0.236-0.693c0.217-0.442,0.534-0.817,0.849-1.187c0.156-0.187,0.336-0.35,0.503-0.526
			c0.167-0.178,0.347-0.339,0.528-0.5c0.355-0.331,0.728-0.639,1.107-0.94c0.37-0.314,0.767-0.589,1.159-0.872
			c0.389-0.289,0.792-0.552,1.194-0.82c0.797-0.547,1.626-1.037,2.443-1.552l-0.181,0.332l-0.317-3.659l-0.352-3.659l-0.808-7.313
			l-1.639-14.633l0.217,0.256c-1.48-0.493-2.962-0.982-4.433-1.504C91.335,18.539,89.858,18.033,88.393,17.493z"/>
	</g>
	<g>
		<path fill="#E4EAE9" d="M72.025,24.576c12.653,0.548,23.374-9.718,23.946-22.93S86.75-22.72,74.097-23.268
			c-0.692-0.03-1.376-0.022-2.055,0.012c-6.962,0.026-29.277-0.008-30.085-1.484c-5.957,1.5-40.69,3.814-40.69,3.814
			C-13.152-21.551-25.369-9.852-26.021,5.204s10.509,27.767,24.928,28.392"/>
		<path fill="#5F5F5E" d="M72.025,24.576c2.209-0.007,4.413-0.218,6.528-0.826c2.095-0.639,4.139-1.481,5.965-2.69
			c1.809-1.214,3.529-2.587,4.927-4.262c1.399-1.657,2.664-3.447,3.547-5.429l0.355-0.729l0.287-0.759
			c0.183-0.508,0.412-1,0.575-1.515c0.286-1.042,0.646-2.064,0.809-3.136c0.457-2.124,0.519-4.281,0.396-6.473
			c-0.135-2.13-0.636-4.265-1.304-6.314c-0.77-2.018-1.728-3.97-2.978-5.737c-1.28-1.735-2.723-3.367-4.427-4.699
			c-1.71-1.306-3.548-2.481-5.571-3.244c-2.011-0.755-4.115-1.345-6.274-1.456l-0.783-0.075l-0.827,0.005l-1.655,0.008l-3.312,0.002
			c-4.416-0.01-8.833-0.051-13.251-0.173c-2.209-0.063-4.419-0.143-6.631-0.279c-1.106-0.069-2.212-0.149-3.322-0.27
			c-0.556-0.065-1.11-0.13-1.673-0.233c-0.28-0.046-0.565-0.112-0.855-0.186c-0.154-0.054-0.289-0.081-0.458-0.159l-0.253-0.127
			c-0.105-0.069-0.234-0.204-0.32-0.322l0.561,0.245c-0.858,0.18-1.715,0.35-2.561,0.462c-0.85,0.137-1.698,0.237-2.546,0.343
			c-1.697,0.209-3.393,0.394-5.091,0.562c-3.394,0.345-6.791,0.642-10.188,0.927c-6.795,0.566-13.591,1.07-20.393,1.534l-0.002,0
			l-0.053,0l-2.57,0.024l-2.553,0.289l-2.509,0.552l-2.438,0.812l-2.34,1.062c-0.739,0.434-1.494,0.843-2.221,1.295
			c-0.692,0.506-1.409,0.979-2.081,1.511c-0.638,0.572-1.313,1.106-1.922,1.708c-0.579,0.632-1.205,1.223-1.748,1.887
			c-0.516,0.685-1.087,1.33-1.559,2.046c-0.448,0.731-0.959,1.426-1.358,2.185c-0.377,0.77-0.819,1.51-1.145,2.304
			c-0.304,0.802-0.669,1.583-0.924,2.402c-0.229,0.827-0.509,1.641-0.697,2.478c-0.153,0.845-0.338,1.684-0.466,2.532l-0.235,2.541
			l0.013,2.622c0.056,0.857,0.167,1.695,0.246,2.544c0.115,0.845,0.324,1.684,0.48,2.526c0.181,0.839,0.486,1.646,0.721,2.47
			c0.258,0.818,0.627,1.596,0.934,2.397c0.318,0.797,0.753,1.541,1.124,2.317c0.396,0.763,0.898,1.465,1.341,2.203
			c0.472,0.719,1.035,1.375,1.549,2.068c0.547,0.666,1.165,1.27,1.745,1.911c0.617,0.602,1.286,1.152,1.928,1.732
			c0.682,0.53,1.397,1.02,2.095,1.534l2.244,1.315l2.373,1.075l2.477,0.823l2.554,0.562l2.603,0.296l-2.616-0.206l-2.586-0.476
			l-2.527-0.743l-2.44-1.005l-2.325-1.256c-0.727-0.496-1.474-0.971-2.189-1.488c-0.675-0.568-1.379-1.107-2.032-1.702
			c-0.616-0.633-1.272-1.233-1.857-1.896c-0.552-0.691-1.155-1.348-1.667-2.071c-0.484-0.742-1.026-1.451-1.463-2.224
			c-0.411-0.786-0.888-1.543-1.246-2.357c-0.324-0.827-0.721-1.63-0.985-2.48c-0.241-0.856-0.539-1.698-0.731-2.566
			c-0.164-0.875-0.378-1.738-0.498-2.623c-0.085-0.891-0.199-1.789-0.255-2.674l-0.013-2.622l0.244-2.68
			c0.133-0.878,0.323-1.749,0.483-2.623c0.195-0.867,0.484-1.711,0.722-2.568c0.265-0.849,0.642-1.659,0.958-2.489
			c0.338-0.822,0.795-1.591,1.187-2.389c0.414-0.787,0.942-1.509,1.408-2.266c0.49-0.742,1.081-1.413,1.617-2.122
			c0.563-0.688,1.211-1.303,1.814-1.958c0.633-0.625,1.332-1.18,1.996-1.773c0.697-0.552,1.442-1.045,2.161-1.569
			c0.755-0.47,1.539-0.896,2.308-1.345l2.434-1.104l2.537-0.844l2.611-0.575l2.657-0.3l2.673-0.025l-0.055,0.001
			c6.795-0.463,13.589-0.967,20.376-1.533c3.393-0.285,6.785-0.581,10.17-0.926c1.693-0.167,3.384-0.352,5.068-0.559
			c0.842-0.106,1.686-0.205,2.518-0.339c0.844-0.111,1.657-0.275,2.467-0.443l0.561,0.245c0.016-0.025-0.023-0.052-0.018-0.04
			l0.119,0.055c0.08,0.041,0.218,0.072,0.323,0.11c0.245,0.062,0.497,0.122,0.762,0.165c0.523,0.096,1.065,0.16,1.604,0.223
			c1.084,0.118,2.179,0.197,3.275,0.266c2.193,0.135,4.395,0.215,6.597,0.277c4.405,0.121,8.815,0.163,13.225,0.173l3.307-0.002
			l1.655-0.008l0.827-0.005l0.865,0.079c2.258,0.119,4.462,0.732,6.566,1.524c2.116,0.8,4.04,2.025,5.825,3.391
			c1.779,1.393,3.286,3.093,4.62,4.904c1.303,1.842,2.303,3.875,3.104,5.979c0.698,2.144,1.217,4.332,1.361,6.615
			c0.128,2.204,0.056,4.499-0.408,6.697c-0.161,1.117-0.52,2.189-0.837,3.268c-0.177,0.534-0.409,1.049-0.619,1.57l-0.327,0.778
			l-0.395,0.746c-0.99,2.023-2.363,3.831-3.863,5.484c-1.498,1.67-3.313,3.019-5.2,4.189c-1.905,1.167-4.013,1.949-6.15,2.519
			C76.454,24.514,74.225,24.647,72.025,24.576z"/>
	</g>
	
		<ellipse transform="matrix(0.9991 0.0433 -0.0433 0.9991 0.2741 0.0022)" fill="#E4EAE9" stroke="#5F5F5E" stroke-miterlimit="10" cx="0.087" cy="6.334" rx="17.471" ry="18.242"/>
	
		<ellipse transform="matrix(0.9991 0.0433 -0.0433 0.9991 0.2691 0.0798)" fill="#1C1C1A" stroke="#5F5F5E" stroke-miterlimit="10" cx="-1.71" cy="6.257" rx="15.672" ry="18.242"/>
	
		<ellipse transform="matrix(0.9991 0.0433 -0.0433 0.9991 0.0967 -3.16)" fill="#E4EAE9" stroke="#5F5F5E" stroke-miterlimit="10" cx="73.061" cy="0.654" rx="15.331" ry="16.007"/>
	
		<ellipse transform="matrix(0.9991 0.0433 -0.0433 0.9991 0.0923 -3.0918)" fill="#1C1C1A" stroke="#5F5F5E" stroke-miterlimit="10" cx="71.484" cy="0.586" rx="13.752" ry="16.007"/>
	<g>
		<path fill="#E4EAE9" d="M81,24.394c0,0-10.25-1.147-15.25-2.007S48.25,16.367,38,17.514c-9.13,1.021-20.157,5.3-24.625,7.167
			C8.907,26.549-7.686,32.725-5.477,38.473S2.875,52.91,5.833,51.297s17.498-12.784,20.711-14.5
			c3.213-1.716,15.58-7.959,34.705-1.792c9.581,3.09,22.983,6.104,23.991,5.774"/>
		<path fill="#5F5F5E" d="M81,24.394c0,0-3.083-0.271-8.47-0.852c-1.346-0.158-2.836-0.332-4.459-0.523
			c-0.814-0.106-1.648-0.212-2.537-0.356c-0.859-0.146-1.782-0.356-2.695-0.589c-1.825-0.478-3.767-0.988-5.814-1.524
			c-2.041-0.532-4.177-1.116-6.435-1.581c-4.506-0.919-9.503-1.604-14.705-0.656c-5.189,0.848-10.582,2.433-16.015,4.385
			c-2.73,0.968-5.431,2.082-8.204,3.223c-2.759,1.124-5.527,2.309-8.215,3.691c-1.342,0.693-2.666,1.431-3.927,2.259
			c-1.255,0.828-2.473,1.743-3.443,2.841c-0.965,1.083-1.622,2.459-1.041,3.712c0.554,1.408,1.242,2.777,1.996,4.104
			c1.529,2.627,3.287,5.213,5.514,7.188c0.559,0.475,1.164,0.907,1.788,1.138c0.31,0.115,0.619,0.166,0.887,0.126
			c0.129-0.016,0.269-0.067,0.362-0.117l0.494-0.295c1.26-0.789,2.511-1.69,3.749-2.563c4.957-3.532,9.73-7.151,14.547-10.437
			c0.609-0.405,1.218-0.805,1.875-1.176c0.638-0.347,1.292-0.673,1.946-0.977c1.312-0.607,2.647-1.129,3.992-1.566
			c2.691-0.878,5.414-1.433,8.087-1.735c5.356-0.595,10.482-0.142,15.061,0.814c2.289,0.481,4.469,1.059,6.475,1.752
			c1.995,0.68,3.907,1.28,5.709,1.823c3.606,1.084,6.779,1.942,9.401,2.608c2.623,0.665,4.697,1.136,6.12,1.409
			c1.421,0.287,2.202,0.312,2.198,0.262c0.006,0.05-0.779,0.056-2.213-0.175c-1.436-0.216-3.531-0.605-6.182-1.166
			c-2.651-0.563-5.861-1.295-9.52-2.238c-1.829-0.473-3.771-0.998-5.807-1.602c-2.023-0.596-4.127-1.236-6.385-1.693
			c-4.496-0.938-9.516-1.38-14.747-0.799c-2.61,0.295-5.267,0.837-7.887,1.692c-1.31,0.426-2.608,0.933-3.882,1.523
			c-0.638,0.296-1.266,0.609-1.891,0.949c-0.595,0.337-1.196,0.729-1.794,1.127c-4.771,3.254-9.557,6.882-14.522,10.42
			c-1.251,0.881-2.481,1.773-3.822,2.611l-0.494,0.295c-0.243,0.135-0.473,0.207-0.724,0.245c-0.496,0.071-0.966-0.026-1.374-0.175
			c-0.822-0.309-1.482-0.801-2.096-1.317c-2.395-2.131-4.155-4.753-5.733-7.453c-0.774-1.362-1.48-2.765-2.059-4.234
			c-0.348-0.784-0.376-1.793-0.079-2.604c0.282-0.827,0.77-1.517,1.298-2.13c1.077-1.216,2.349-2.16,3.647-3.019
			c1.303-0.856,2.654-1.609,4.018-2.313c2.731-1.404,5.526-2.599,8.295-3.728c2.749-1.131,5.503-2.267,8.243-3.237
			c5.481-1.966,10.896-3.564,16.211-4.433c0.667-0.121,1.316-0.183,1.968-0.276c0.674-0.077,1.329-0.106,1.987-0.16
			c1.313-0.049,2.605-0.031,3.869,0.057c2.528,0.177,4.94,0.573,7.228,1.046c4.593,0.896,8.64,2.301,12.238,3.372
			c0.905,0.27,1.754,0.5,2.625,0.686c0.844,0.171,1.691,0.316,2.49,0.452c1.611,0.255,3.09,0.489,4.426,0.701
			C77.93,23.999,81,24.394,81,24.394z"/>
	</g>
	<g>
		<path fill="#E4EAE9" d="M64.708,53.89c0,11.536-7.187,20.437-23.698,20.437"/>
		<path fill="#5F5F5E" d="M64.708,53.89c0,0,0.013,0.555,0.036,1.528c0.025,0.486-0.025,1.075-0.078,1.757
			c-0.031,0.34-0.04,0.708-0.094,1.087c-0.069,0.377-0.141,0.774-0.217,1.188c-0.115,0.839-0.443,1.7-0.693,2.638
			c-0.374,0.895-0.703,1.877-1.272,2.784c-0.252,0.47-0.52,0.942-0.859,1.376c-0.333,0.435-0.613,0.926-1.011,1.323
			c-0.383,0.41-0.769,0.824-1.156,1.24l-1.298,1.11c-0.43,0.376-0.937,0.645-1.401,0.971c-0.238,0.153-0.469,0.318-0.712,0.46
			l-0.748,0.384c-0.974,0.556-2.013,0.917-3.005,1.287c-0.998,0.35-2.002,0.563-2.938,0.79c-0.955,0.145-1.85,0.317-2.683,0.412
			c-0.836,0.071-1.604,0.115-2.282,0.153c-0.678,0.032-1.272-0.009-1.759-0.007c-0.972-0.029-1.527-0.045-1.527-0.045
			s0.553-0.054,1.52-0.15c0.482-0.051,1.07-0.07,1.736-0.17c0.666-0.109,1.414-0.23,2.231-0.339
			c0.812-0.144,1.678-0.367,2.597-0.565c0.898-0.278,1.852-0.552,2.807-0.908c0.471-0.195,0.95-0.392,1.435-0.593
			c0.488-0.191,0.934-0.484,1.413-0.717l0.71-0.373c0.229-0.138,0.446-0.297,0.671-0.445c0.436-0.314,0.916-0.574,1.319-0.933
			l1.239-1.035c0.37-0.389,0.738-0.776,1.104-1.16c0.379-0.373,0.652-0.83,0.984-1.23c0.336-0.4,0.603-0.84,0.856-1.279
			c0.559-0.85,0.937-1.759,1.351-2.598c0.293-0.886,0.667-1.701,0.826-2.508c0.206-0.796,0.396-1.526,0.489-2.189
			c0.119-0.658,0.228-1.237,0.252-1.724C64.651,54.443,64.708,53.89,64.708,53.89z"/>
	</g>
	
		<ellipse transform="matrix(0.9996 -0.0288 0.0288 0.9996 -1.4818 1.3855)" fill="#F8F7F7" stroke="#282828" stroke-miterlimit="10" cx="47.312" cy="52.085" rx="19.229" ry="20.167"/>
	
		<ellipse transform="matrix(0.9996 -0.0288 0.0288 0.9996 -1.4818 1.3855)" fill="#E0E0E0" cx="47.312" cy="52.085" rx="13.8" ry="14.473"/>
	<g>
		<path fill="#E4EAE9" d="M30.159,74.663c0,0,0.719,11.761,3.498,16.006l25.933-4.81c0,0,0.596-9.978-2.154-12.587"/>
		<path fill="#5F5F5E" d="M30.159,74.663c0.215,1.363,0.448,2.72,0.702,4.069c0.13,0.674,0.267,1.346,0.415,2.015l0.219,1.002
			l0.161,1.01c0.237,1.343,0.534,2.672,0.907,3.97c0.101,0.321,0.178,0.654,0.298,0.965l0.34,0.945l0.399,0.909l0.476,0.846
			l-0.509-0.218l25.932-4.81l-0.408,0.462c0.053-1.06,0.064-2.144,0.043-3.215c-0.016-0.536-0.03-1.073-0.065-1.608l-0.067-0.8
			l-0.028-0.803c-0.024-0.534-0.049-1.07-0.107-1.601c-0.02-0.268-0.052-0.533-0.096-0.796c-0.045-0.262-0.065-0.534-0.131-0.791
			l-0.176-0.782l-0.244-0.762c-0.097-0.247-0.218-0.484-0.328-0.732c-0.132-0.231-0.302-0.441-0.457-0.668
			c0.184,0.195,0.393,0.381,0.566,0.596c0.15,0.228,0.315,0.454,0.457,0.693l0.363,0.748l0.291,0.778
			c0.105,0.259,0.162,0.528,0.246,0.793c0.082,0.265,0.153,0.533,0.211,0.802c0.135,0.537,0.235,1.08,0.335,1.624
			c0.103,0.543,0.152,1.093,0.163,1.642c0.036,0.549,0.05,1.097,0.066,1.645c0.021,1.099,0.011,2.187-0.045,3.295l-0.02,0.39
			l-0.389,0.072l-25.932,4.81l-0.35,0.065l-0.159-0.283l-0.536-0.952l-0.431-0.98l-0.359-0.996c-0.127-0.331-0.206-0.67-0.31-1.005
			c-0.386-1.345-0.689-2.705-0.93-4.07c-0.315-1.355-0.33-2.755-0.426-4.132C30.173,77.425,30.13,76.044,30.159,74.663z"/>
	</g>
	
		<ellipse transform="matrix(0.9832 -0.1824 0.1824 0.9832 -15.3151 9.9832)" fill="#E4EAE9" stroke="#5F5F5E" stroke-miterlimit="10" cx="46.624" cy="88.264" rx="13.188" ry="5.625"/>
	
		<ellipse transform="matrix(0.9832 -0.1824 0.1824 0.9832 -15.3151 9.9832)" opacity="0.2" fill="#5F5F5E" cx="46.624" cy="88.264" rx="13.188" ry="5.625"/>
	
		<ellipse transform="matrix(0.9832 -0.1824 0.1824 0.9832 -15.3151 9.9832)" fill="#F2E1C2" stroke="#5F5F5E" stroke-miterlimit="10" cx="46.624" cy="88.264" rx="10.172" ry="4.339"/>
	
		<ellipse transform="matrix(0.9832 -0.1824 0.1824 0.9832 -15.3702 9.9883)" fill="#F2E1C2" stroke="#5F5F5E" stroke-miterlimit="10" cx="46.624" cy="88.566" rx="4.597" ry="1.961"/>
	<g>
		<defs>
			
				<ellipse id="SVGID_9_" transform="matrix(0.9991 0.0433 -0.0433 0.9991 0.2691 0.0798)" cx="-1.71" cy="6.257" rx="15.672" ry="18.242"/>
		</defs>
		<clipPath id="SVGID_10_">
			<use xlink:href="#SVGID_9_"  overflow="visible"/>
		</clipPath>
		<circle opacity="0.4" clip-path="url(#SVGID_10_)" fill="#FFFFFF" cx="-10.876" cy="20.327" r="8.584"/>
		<circle opacity="0.4" clip-path="url(#SVGID_10_)" fill="#FFFFFF" cx="4" cy="-2.672" r="5.125"/>
	</g>
	<g>
		<defs>
			
				<ellipse id="SVGID_11_" transform="matrix(0.9991 0.0433 -0.0433 0.9991 0.1029 -3.0848)" cx="71.328" cy="0.836" rx="13.417" ry="15.617"/>
		</defs>
		<clipPath id="SVGID_12_">
			<use xlink:href="#SVGID_11_"  overflow="visible"/>
		</clipPath>
		<circle opacity="0.4" clip-path="url(#SVGID_12_)" fill="#FFFFFF" cx="63.48" cy="12.882" r="7.349"/>
		<circle opacity="0.4" clip-path="url(#SVGID_12_)" fill="#FFFFFF" cx="76.216" cy="-6.808" r="4.388"/>
	</g>
	<g>
		<path fill="#E4EAE9" d="M41.957-19.99c0,0-2.936,20.65-0.947,26.325"/>
		<path fill="#5F5F5E" d="M41.957-19.99c0,0-0.02,0.414-0.056,1.14c-0.053,0.723-0.088,1.759-0.185,2.995
			c-0.175,2.47-0.407,5.764-0.64,9.057c-0.12,1.644-0.211,3.288-0.291,4.829c-0.014,0.77-0.082,1.516-0.092,2.221
			c-0.005,0.705-0.051,1.377-0.021,1.989c0.034,0.612-0.005,1.185,0.045,1.68c0.041,0.496,0.051,0.939,0.106,1.292
			c0.12,0.713,0.189,1.121,0.189,1.121s-0.145-0.384-0.379-1.082c-0.105-0.351-0.174-0.788-0.285-1.287
			c-0.123-0.5-0.163-1.07-0.237-1.693c-0.083-0.624-0.092-1.298-0.146-2.014c-0.049-0.716-0.053-1.469-0.059-2.249
			c-0.005-1.56,0.075-3.22,0.175-4.877c0.13-1.655,0.275-3.307,0.47-4.85c0.183-1.544,0.421-2.976,0.611-4.204
			c0.187-1.229,0.417-2.243,0.55-2.955C41.856-19.587,41.957-19.99,41.957-19.99z"/>
	</g>
	<path opacity="0.2" fill="#5F5F5E" d="M1.252,30.232c0,0,2.539,6.774,3.956,9.819c1.417,3.045,6.828,7.076,6.828,7.076
		l-2.734,2.039l-3.041,1.882l-2.462,0.25l-3.229-2.86l-3.731-5.163l-2.254-5.182l0.433-2.795l2.804-2.637L1.252,30.232z"/>
	<path opacity="0.2" fill="#5F5F5E" d="M30.001,74.678c0,0,4.045,11.205,8.303,10.456c-1.838,1.104-4.688,3.432-4.688,3.432
		l-0.104,1.381l-2.147-6.036L30.001,74.678z"/>
</g>
</svg>
