<?xml version="1.0" encoding="utf-8"?>
<!-- Generator: Adobe Illustrator 18.1.1, SVG Export Plug-In . SVG Version: 6.00 Build 0)  -->
<svg version="1.1" id="Capa_1" xmlns="http://www.w3.org/2000/svg" xmlns:xlink="http://www.w3.org/1999/xlink" x="0px" y="0px"
	 viewBox="0 0 85.04 85.04" enable-background="new 0 0 85.04 85.04" xml:space="preserve">
<g>
	<g>
		<path fill="#502711" d="M39.678,55.9c0.008-0.076,0.012-0.153,0.012-0.231c0-0.585-0.221-1.117-0.583-1.522
			c0.554-0.162,0.958-0.672,0.958-1.278c0-0.736-0.597-1.333-1.333-1.333c-0.475,0-0.891,0.249-1.127,0.623
			c0.017-0.109,0.029-0.22,0.029-0.334c0-1.188-0.963-2.151-2.151-2.151c-0.023,0-0.046,0.003-0.069,0.004
			c0.063-0.17,0.099-0.353,0.099-0.545c0-0.114-0.013-0.224-0.035-0.331c1.204-0.079,2.157-1.078,2.157-2.302
			c0-0.203-0.029-0.399-0.078-0.587c0.026,0.001,0.052,0.004,0.078,0.004c1.951,0,3.532-1.581,3.532-3.532s-1.581-3.532-3.532-3.532
			s-3.532,1.581-3.532,3.532c0,0.701,0.207,1.353,0.559,1.902c-0.952,0.285-1.647,1.167-1.647,2.212c0,0.428,0.118,0.827,0.321,1.17
			c-0.577,0.236-0.983,0.801-0.983,1.463c0,0.78,0.565,1.426,1.308,1.555c-0.206,0.33-0.328,0.719-0.328,1.137
			c0,1.188,0.963,2.151,2.151,2.151c0.146,0,0.288-0.015,0.426-0.043c-0.489,0.42-0.799,1.041-0.799,1.736
			c0,1.214,0.946,2.205,2.141,2.282c0.265,0.553,0.828,0.935,1.481,0.935c0.908,0,1.643-0.736,1.643-1.643
			C40.376,56.687,40.1,56.197,39.678,55.9z M37.404,52.79c-0.002,0.026-0.004,0.052-0.004,0.079c0,0.183,0.037,0.357,0.104,0.516
			c-0.035-0.002-0.069-0.005-0.104-0.005c-0.169,0-0.334,0.02-0.493,0.055C37.111,53.254,37.28,53.035,37.404,52.79z"/>
		<path fill="#26160D" d="M38.732,58.996c-0.648,0-1.25-0.367-1.552-0.94C35.953,57.945,35,56.908,35,55.669
			c0-0.588,0.216-1.15,0.601-1.586c-0.039,0.002-0.079,0.003-0.118,0.003c-1.247,0-2.261-1.014-2.261-2.261
			c0-0.371,0.092-0.735,0.267-1.062c-0.732-0.197-1.248-0.859-1.248-1.63c0-0.648,0.365-1.23,0.939-1.514
			c-0.181-0.346-0.277-0.73-0.277-1.119c0-1.013,0.647-1.928,1.591-2.273c-0.329-0.56-0.503-1.193-0.503-1.842
			c0-2.008,1.634-3.642,3.642-3.642s3.642,1.634,3.642,3.642c0,1.988-1.601,3.609-3.581,3.642c0.032,0.159,0.049,0.318,0.049,0.473
			c0,1.228-0.929,2.26-2.138,2.401c0.011,0.077,0.016,0.155,0.016,0.232c0,0.146-0.019,0.291-0.058,0.433
			c1.207,0.043,2.176,1.036,2.179,2.253c0.264-0.25,0.615-0.392,0.988-0.392c0.796,0,1.443,0.647,1.443,1.443
			c0,0.581-0.356,1.106-0.883,1.329c0.328,0.421,0.507,0.938,0.507,1.471c0,0.06-0.002,0.119-0.007,0.178
			c0.435,0.331,0.693,0.848,0.693,1.396C40.486,58.21,39.699,58.996,38.732,58.996z M36.301,53.742l-0.32,0.274
			c-0.484,0.416-0.761,1.018-0.761,1.652c0,1.144,0.895,2.099,2.038,2.172l0.064,0.004l0.028,0.058
			c0.254,0.53,0.797,0.873,1.382,0.873c0.846,0,1.533-0.688,1.533-1.533c0-0.497-0.244-0.965-0.652-1.253l-0.052-0.037l0.006-0.064
			c0.007-0.072,0.011-0.145,0.011-0.22c0-0.533-0.197-1.048-0.555-1.449l-0.116-0.13l0.167-0.049
			c0.518-0.152,0.879-0.634,0.879-1.173c0-0.674-0.548-1.222-1.223-1.222c-0.421,0-0.808,0.214-1.034,0.572l-0.167,0.265
			l-0.019,0.337c-0.001,0.016-0.002,0.033-0.002,0.049c0,0.164,0.032,0.323,0.095,0.473l0.067,0.16l-0.215-0.01
			c-0.171-0.011-0.35,0.011-0.527,0.049l-0.414,0.091l0.318-0.281c0.196-0.173,0.354-0.379,0.471-0.611l0.142-0.283l0.049-0.315
			c0.019-0.119,0.027-0.22,0.027-0.317c0-1.125-0.915-2.041-2.041-2.041c-0.011,0-0.022,0.001-0.033,0.002l-0.196,0.008l0.057-0.154
			c0.061-0.165,0.092-0.336,0.092-0.507c0-0.102-0.011-0.206-0.033-0.308L35.343,48.7l0.127-0.008
			c1.152-0.076,2.054-1.039,2.054-2.192c0-0.183-0.025-0.37-0.074-0.559l-0.037-0.14l0.145,0.002c0.014,0,0.028,0.001,0.042,0.002
			c0.011,0.001,0.022,0.002,0.034,0.002c1.887,0,3.422-1.535,3.422-3.422c0-1.887-1.535-3.422-3.422-3.422s-3.422,1.535-3.422,3.422
			c0,0.653,0.187,1.29,0.542,1.843l0.079,0.123l-0.14,0.042c-0.924,0.277-1.569,1.143-1.569,2.107c0,0.39,0.106,0.775,0.306,1.114
			l0.065,0.11l-0.118,0.048c-0.556,0.227-0.915,0.761-0.915,1.361c0,0.716,0.512,1.324,1.217,1.447l0.161,0.028l-0.087,0.139
			c-0.203,0.326-0.311,0.699-0.311,1.079c0,1.125,0.915,2.041,2.041,2.041c0.135,0,0.271-0.014,0.404-0.04L36.301,53.742z
			 M37.316,53.146c-0.032,0.045-0.067,0.089-0.102,0.132c0.044-0.004,0.089-0.006,0.133-0.007
			C37.334,53.229,37.324,53.188,37.316,53.146z"/>
	</g>
	<g>
		<path fill="#502711" d="M38.836,40.066c0,0-2.33,1.286-1.78,2.124c0.551,0.838,1.39,1.49,1.722,0.925s0.626-1.319,0.058-1.419
			c-0.569-0.1-0.827-0.246-0.771,0.157c0.056,0.403,0.333,0.513,0.333,0.513"/>
		<path fill="#26160D" d="M38.836,40.066c0,0-0.113,0.073-0.304,0.207c-0.192,0.133-0.46,0.334-0.76,0.594
			c-0.148,0.132-0.304,0.281-0.441,0.456c-0.135,0.172-0.262,0.383-0.261,0.592c0,0.052,0.013,0.101,0.031,0.148
			c0.021,0.045,0.049,0.089,0.091,0.145c0.075,0.108,0.15,0.202,0.233,0.302c0.165,0.195,0.349,0.384,0.558,0.526
			c0.199,0.143,0.459,0.249,0.61,0.131c0.04-0.026,0.068-0.07,0.1-0.114c0.034-0.056,0.067-0.112,0.096-0.166
			c0.06-0.11,0.117-0.221,0.162-0.333c0.087-0.218,0.162-0.461,0.093-0.631c-0.033-0.081-0.111-0.132-0.205-0.152
			c-0.105-0.025-0.207-0.048-0.305-0.071c-0.097-0.023-0.191-0.047-0.275-0.058c-0.088-0.009-0.145-0.004-0.155,0.068
			c-0.014,0.069-0.005,0.143,0.005,0.213c0.012,0.065,0.031,0.126,0.054,0.178c0.048,0.103,0.109,0.173,0.157,0.213
			c0.047,0.041,0.078,0.055,0.078,0.055s-0.033-0.01-0.086-0.045c-0.052-0.035-0.127-0.097-0.187-0.202
			c-0.057-0.108-0.112-0.244-0.102-0.426c0.004-0.044,0.031-0.109,0.089-0.134c0.054-0.024,0.106-0.025,0.155-0.024
			c0.098,0.005,0.193,0.025,0.292,0.042c0.099,0.017,0.202,0.035,0.308,0.054c0.116,0.015,0.258,0.088,0.321,0.22
			c0.063,0.129,0.061,0.269,0.045,0.397c-0.018,0.129-0.058,0.253-0.103,0.375c-0.045,0.122-0.101,0.24-0.161,0.359
			c-0.031,0.06-0.062,0.117-0.094,0.174c-0.042,0.063-0.086,0.131-0.157,0.18c-0.137,0.107-0.327,0.113-0.469,0.071
			c-0.147-0.041-0.277-0.11-0.392-0.191c-0.233-0.162-0.423-0.363-0.596-0.571c-0.085-0.102-0.169-0.216-0.238-0.322
			c-0.034-0.049-0.076-0.114-0.106-0.185c-0.026-0.072-0.042-0.148-0.041-0.222c0.01-0.302,0.18-0.519,0.331-0.696
			c0.157-0.179,0.326-0.322,0.485-0.448c0.32-0.251,0.613-0.417,0.816-0.535C38.714,40.122,38.836,40.066,38.836,40.066z"/>
	</g>
	<g>
		<path fill="#502711" d="M34.9,50.311c-0.183,0-2.168-0.408-1.836-1.011c0.332-0.603,1.323-1.058,1.323-1.058l0.33,0.914"/>
		<path fill="#26160D" d="M34.9,50.311c-0.17,0.005-0.337-0.025-0.504-0.05c-0.167-0.026-0.332-0.066-0.497-0.11
			c-0.163-0.048-0.326-0.102-0.484-0.177c-0.079-0.039-0.156-0.081-0.232-0.133c-0.074-0.054-0.149-0.115-0.205-0.207
			c-0.06-0.088-0.079-0.228-0.033-0.333l0.017-0.039l0.004-0.01l0.007-0.013l0.008-0.013l0.033-0.054
			c0.02-0.035,0.048-0.073,0.077-0.11c0.058-0.076,0.117-0.137,0.18-0.198c0.063-0.062,0.129-0.118,0.196-0.173
			c0.274-0.214,0.571-0.381,0.887-0.517l0.078-0.034l0.022,0.076c0.046,0.156,0.094,0.31,0.136,0.468
			c0.042,0.157,0.088,0.313,0.125,0.472c-0.073-0.146-0.138-0.295-0.206-0.442c-0.069-0.147-0.13-0.297-0.194-0.446l0.101,0.042
			c-0.286,0.157-0.567,0.338-0.815,0.546c-0.062,0.052-0.123,0.105-0.178,0.162c-0.056,0.055-0.112,0.117-0.155,0.175
			c-0.023,0.029-0.046,0.057-0.069,0.095l-0.034,0.053l-0.008,0.013l-0.002,0.003c0.006-0.009,0.001-0.001,0.002-0.003l-0.002,0.005
			l-0.009,0.019c-0.021,0.05-0.017,0.094,0.014,0.148c0.063,0.108,0.202,0.203,0.341,0.279c0.141,0.076,0.291,0.145,0.446,0.203
			c0.153,0.063,0.311,0.114,0.469,0.168c0.079,0.026,0.159,0.051,0.24,0.074C34.738,50.27,34.817,50.297,34.9,50.311z"/>
	</g>
	<g>
		<path fill="#502711" d="M36.368,55.606c0,0,0.048,1.322,0.391,1.542s0.783-0.107,0.875-0.273c0.013-0.024,0.022-0.057,0.029-0.096
			c0.06-0.367-0.245-0.694-0.617-0.694h-0.025"/>
		<path fill="#26160D" d="M36.368,55.606c0,0,0.011,0.059,0.031,0.162c0.017,0.103,0.049,0.249,0.085,0.422
			c0.038,0.172,0.084,0.374,0.155,0.574c0.037,0.097,0.084,0.199,0.142,0.262c0.014,0.009,0.03,0.028,0.04,0.033
			c0.025,0.012,0.056,0.032,0.071,0.033c0.032,0.014,0.086,0.018,0.13,0.019c0.095-0.003,0.196-0.034,0.286-0.084
			c0.089-0.05,0.179-0.116,0.23-0.184c0.004,0.006,0.043-0.11,0.037-0.112c0.009-0.055,0.007-0.084,0.004-0.133
			c-0.011-0.087-0.044-0.168-0.088-0.235c-0.09-0.135-0.218-0.212-0.313-0.244c-0.096-0.032-0.158-0.036-0.158-0.036
			s0.015-0.003,0.043-0.005c0.028-0.003,0.07-0.007,0.124-0.001c0.104,0.014,0.269,0.058,0.403,0.207
			c0.066,0.072,0.125,0.169,0.15,0.284c0.012,0.052,0.019,0.129,0.015,0.181l-0.001,0.02l0,0.01l0,0.005l0,0.001
			c-0.002,0.01,0.005-0.02-0.005,0.022l-0.001,0.002l-0.01,0.04l-0.011,0.04l-0.003,0.01l-0.001,0.005l-0.007,0.016l-0.001,0.001
			l-0.002,0.003l-0.014,0.023c-0.078,0.115-0.173,0.195-0.286,0.262c-0.112,0.065-0.243,0.113-0.387,0.12
			c-0.074-0.003-0.141-0.007-0.219-0.04c-0.043-0.015-0.061-0.029-0.089-0.043c-0.041-0.024-0.064-0.051-0.096-0.078
			c-0.098-0.114-0.132-0.234-0.169-0.346c-0.063-0.226-0.085-0.437-0.096-0.618C36.341,55.846,36.368,55.606,36.368,55.606z"/>
	</g>
	<g>
		<path fill="#502711" d="M37.539,53.398c0,0-0.374,0.647,0,0.892c0.374,0.245,0.448,0.842,0.888,0.58s0.719-0.672,0.524-0.852
			c-0.194-0.18-0.724,0-0.724,0"/>
		<path fill="#26160D" d="M37.539,53.398c0,0-0.024,0.059-0.055,0.164c-0.03,0.103-0.069,0.261-0.046,0.429
			c0.013,0.083,0.051,0.16,0.119,0.208c0.075,0.048,0.196,0.137,0.269,0.233c0.08,0.094,0.152,0.198,0.224,0.282
			c0.036,0.043,0.074,0.075,0.109,0.094c0.035,0.02,0.067,0.017,0.108,0.01c0.079-0.018,0.194-0.096,0.282-0.162
			c0.092-0.071,0.179-0.146,0.247-0.229c0.068-0.082,0.122-0.172,0.133-0.25c0.006-0.039-0.003-0.068-0.02-0.094l-0.007-0.01
			l-0.002-0.003c0.011,0.009,0.001,0.001,0.003,0.002l-0.007-0.006l-0.028-0.024c-0.015-0.006-0.023-0.016-0.045-0.022
			c-0.074-0.028-0.159-0.036-0.233-0.038c-0.074-0.001-0.14,0.005-0.195,0.011c-0.109,0.012-0.171,0.024-0.171,0.024
			s0.056-0.03,0.162-0.066c0.053-0.017,0.119-0.036,0.197-0.051c0.078-0.014,0.17-0.027,0.277-0.001
			c0.025,0.004,0.058,0.02,0.088,0.033l0.032,0.02l0.008,0.005c0.004,0.003-0.003-0.004,0.01,0.008l0.005,0.005l0.018,0.019
			c0.048,0.05,0.075,0.129,0.072,0.198c-0.006,0.139-0.069,0.257-0.144,0.36c-0.077,0.103-0.167,0.198-0.27,0.278
			c-0.05,0.04-0.11,0.083-0.161,0.114c-0.054,0.035-0.123,0.075-0.203,0.094c-0.08,0.018-0.182,0.012-0.257-0.033
			c-0.074-0.042-0.129-0.096-0.171-0.148c-0.088-0.105-0.144-0.21-0.213-0.298c-0.069-0.093-0.127-0.148-0.224-0.229
			c-0.102-0.089-0.139-0.22-0.139-0.323c0.001-0.211,0.085-0.356,0.132-0.456C37.498,53.447,37.539,53.398,37.539,53.398z"/>
	</g>
	<g>
		<path fill="#502711" d="M39.024,56.45c0.075,0.047,0.891,0.345,0.684,0.736c-0.206,0.391-0.712,1.329-1.049,0.9
			c-0.337-0.429-0.615-1.16-0.301-1.14c0.314,0.02,0.926,0.268,0.926,0.268"/>
		<path fill="#26160D" d="M39.024,56.45c0,0,0.018,0.007,0.053,0.02c0.034,0.012,0.087,0.028,0.15,0.054
			c0.064,0.026,0.142,0.059,0.228,0.106c0.085,0.048,0.184,0.105,0.268,0.207c0.044,0.049,0.077,0.118,0.091,0.199
			c0.009,0.078-0.025,0.176-0.055,0.229c-0.059,0.122-0.122,0.251-0.198,0.38c-0.076,0.129-0.158,0.262-0.265,0.387
			c-0.055,0.062-0.111,0.124-0.187,0.177c-0.07,0.053-0.171,0.106-0.292,0.092c-0.062-0.002-0.111-0.036-0.16-0.065
			c-0.034-0.034-0.08-0.074-0.101-0.108c-0.045-0.06-0.095-0.133-0.135-0.201c-0.084-0.137-0.149-0.28-0.203-0.424
			c-0.051-0.145-0.096-0.288-0.074-0.459c0.005-0.023,0.014-0.046,0.023-0.068c0.013-0.023,0.032-0.047,0.051-0.065
			c0.051-0.036,0.1-0.041,0.149-0.038c0.06,0.008,0.13,0.023,0.187,0.039c0.233,0.065,0.41,0.151,0.537,0.205
			c0.125,0.058,0.194,0.096,0.194,0.096s-0.076-0.02-0.208-0.056c-0.131-0.036-0.323-0.084-0.549-0.122
			c-0.058-0.009-0.108-0.014-0.175-0.016c-0.038,0.008-0.036,0.004-0.046,0.052c-0.006,0.099,0.039,0.235,0.092,0.362
			c0.054,0.129,0.126,0.257,0.204,0.383c0.04,0.064,0.078,0.119,0.127,0.183c0.022,0.032,0.041,0.04,0.059,0.063
			c0.02,0.007,0.036,0.024,0.055,0.02c0.073,0.018,0.203-0.087,0.293-0.19c0.095-0.108,0.182-0.228,0.26-0.348
			c0.077-0.121,0.151-0.24,0.218-0.356c0.039-0.063,0.046-0.093,0.053-0.142c-0.004-0.044-0.016-0.093-0.047-0.135
			c-0.056-0.086-0.137-0.156-0.21-0.213c-0.074-0.057-0.144-0.101-0.202-0.136C39.091,56.492,39.024,56.45,39.024,56.45z"/>
	</g>
	<g>
		<path fill="#502711" d="M34.246,45.892c0,0-0.374,0.647,0,0.892c0.374,0.245,0.448,0.842,0.888,0.58
			c0.44-0.261,0.719-0.672,0.524-0.852c-0.194-0.18-0.724,0-0.724,0"/>
		<path fill="#26160D" d="M34.246,45.892c0,0-0.024,0.059-0.055,0.164c-0.03,0.103-0.069,0.261-0.046,0.429
			c0.013,0.083,0.051,0.16,0.119,0.208c0.075,0.048,0.196,0.137,0.269,0.233c0.08,0.094,0.152,0.198,0.224,0.282
			c0.036,0.043,0.074,0.075,0.109,0.094c0.035,0.02,0.067,0.017,0.108,0.01c0.079-0.018,0.194-0.096,0.282-0.162
			c0.092-0.071,0.179-0.146,0.247-0.229c0.068-0.082,0.122-0.172,0.133-0.25c0.006-0.039-0.003-0.068-0.02-0.094l-0.007-0.01
			l-0.002-0.003c0.011,0.009,0.001,0.001,0.003,0.002l-0.007-0.006l-0.028-0.024c-0.015-0.006-0.023-0.016-0.045-0.022
			c-0.074-0.028-0.159-0.036-0.233-0.038c-0.074-0.001-0.14,0.005-0.195,0.011c-0.109,0.012-0.171,0.024-0.171,0.024
			s0.056-0.03,0.162-0.066c0.053-0.017,0.119-0.036,0.197-0.051c0.078-0.014,0.17-0.027,0.277-0.001
			c0.025,0.004,0.058,0.02,0.088,0.033l0.032,0.02l0.008,0.005c0.004,0.003-0.003-0.004,0.01,0.008l0.005,0.005l0.018,0.019
			c0.048,0.05,0.075,0.129,0.072,0.198c-0.006,0.139-0.069,0.257-0.144,0.36c-0.077,0.103-0.167,0.198-0.27,0.278
			c-0.05,0.04-0.11,0.083-0.161,0.114c-0.054,0.035-0.123,0.075-0.203,0.094c-0.08,0.018-0.182,0.012-0.257-0.033
			c-0.074-0.042-0.129-0.096-0.171-0.148c-0.088-0.105-0.144-0.21-0.213-0.298c-0.069-0.093-0.127-0.148-0.224-0.229
			c-0.102-0.089-0.139-0.22-0.139-0.323c0.001-0.211,0.085-0.356,0.132-0.456C34.205,45.942,34.246,45.892,34.246,45.892z"/>
	</g>
	<g>
		<path fill="#502711" d="M35.754,42.811c0,0-0.374,0.647,0,0.892c0.374,0.245,0.448,0.842,0.888,0.58
			c0.44-0.261,0.719-0.672,0.524-0.852s-0.724,0-0.724,0"/>
		<path fill="#26160D" d="M35.754,42.811c0,0-0.024,0.059-0.055,0.164c-0.03,0.103-0.069,0.261-0.046,0.429
			c0.013,0.083,0.051,0.16,0.119,0.208c0.075,0.048,0.196,0.137,0.269,0.233c0.08,0.094,0.152,0.198,0.224,0.282
			c0.036,0.043,0.074,0.075,0.109,0.094c0.035,0.02,0.067,0.017,0.108,0.01c0.079-0.018,0.194-0.096,0.282-0.162
			c0.092-0.071,0.179-0.146,0.247-0.229c0.068-0.082,0.122-0.172,0.133-0.25c0.006-0.039-0.003-0.068-0.02-0.094l-0.007-0.01
			l-0.002-0.003c0.011,0.009,0.001,0.001,0.003,0.002l-0.007-0.006l-0.028-0.024c-0.015-0.006-0.023-0.016-0.045-0.022
			c-0.074-0.028-0.159-0.036-0.233-0.038c-0.074-0.001-0.14,0.005-0.195,0.011c-0.109,0.012-0.171,0.024-0.171,0.024
			s0.056-0.03,0.162-0.066c0.053-0.017,0.119-0.036,0.197-0.051c0.078-0.014,0.17-0.027,0.277-0.001
			c0.025,0.004,0.058,0.02,0.088,0.033l0.032,0.02l0.008,0.005c0.004,0.003-0.003-0.004,0.01,0.008l0.005,0.005l0.018,0.019
			c0.048,0.05,0.075,0.129,0.072,0.198c-0.006,0.139-0.069,0.257-0.144,0.36c-0.077,0.103-0.167,0.198-0.27,0.278
			c-0.05,0.04-0.11,0.083-0.161,0.114c-0.054,0.035-0.123,0.075-0.203,0.094c-0.08,0.018-0.182,0.012-0.257-0.033
			c-0.074-0.042-0.129-0.096-0.171-0.148c-0.088-0.105-0.144-0.21-0.213-0.298c-0.069-0.093-0.127-0.148-0.224-0.229
			c-0.102-0.089-0.139-0.22-0.139-0.323c0.001-0.211,0.085-0.356,0.132-0.456C35.714,42.861,35.754,42.811,35.754,42.811z"/>
	</g>
	<path opacity="0.55" fill="#191009" d="M43.055,42.7c0-2.125-1.722-3.847-3.847-3.847c-2.125,0-3.847,1.722-3.847,3.847
		c0,0.973,0.364,1.859,0.96,2.537c-0.616,0.478-1.073,1.147-1.286,1.92c-0.955,0.086-1.704,0.887-1.704,1.865
		c0,1.035,0.839,1.873,1.873,1.873c0.065,0,0.13-0.003,0.194-0.01c-0.282,0.438-0.448,0.958-0.448,1.517
		c0,1.504,1.184,2.728,2.67,2.8c-0.273,0.301-0.441,0.698-0.441,1.137c0,0.935,0.758,1.693,1.693,1.693s1.693-0.758,1.693-1.693
		c0-0.77-0.514-1.419-1.218-1.624c0.735-0.506,1.218-1.353,1.218-2.313c0-0.379-0.076-0.741-0.213-1.071
		c1.121-0.627,1.88-1.824,1.88-3.2c0-0.867-0.303-1.663-0.806-2.291C42.411,45.143,43.055,43.997,43.055,42.7z"/>
	<g>
		<path fill="#333333" d="M58.2,17.603c0,0,2.2,21.919,2.119,24.121c-0.098,2.641-6.885,2.149-7.437,1.804
			c-1.184-0.74-4.729-9.884-3.335-18.688"/>
		<path d="M55.414,43.911c-1.282,0-2.368-0.151-2.59-0.29c-0.642-0.401-1.821-2.9-2.683-6.387
			c-0.607-2.457-1.506-7.337-0.703-12.412l0.218,0.034c-1.368,8.639,2.1,17.838,3.284,18.578c0.349,0.218,4.394,0.598,6.31-0.419
			c0.616-0.327,0.939-0.763,0.959-1.296c0.08-2.169-2.096-23.886-2.118-24.106l0.219-0.022c0.09,0.895,2.2,21.951,2.119,24.136
			c-0.023,0.617-0.385,1.116-1.076,1.483C58.352,43.742,56.773,43.911,55.414,43.911z"/>
	</g>
	<path opacity="0.41" fill="#010202" d="M57.592,43.64c0,0,0.89-0.044,1.269-1.53c0.379-1.486-0.057-7.103-0.057-7.103l-7.261,1.58
		l1.037,6.637l0.376,0.304l0.468,0.112l0.686,0.111h0.718h1.055L57.592,43.64z"/>
	<g>
		<path fill="#333333" d="M51.396,61.721L51.396,61.721c0,0,0.717,6.906,0.425,11.736l-4.562,0.585
			c-0.723-2.267-1.209-5.241-1.338-8.229c-0.004,0-0.008,0-0.012,0c-0.102,0-0.202-0.001-0.301-0.003l0.003,0.003
			c0,0-0.022,4.415-0.652,8.229l-5.175,0c-0.815-5.433-0.72-12.974-0.72-12.981"/>
		<path d="M47.182,74.162l-0.028-0.087c-0.716-2.247-1.203-5.212-1.339-8.152c-0.032,0-0.064,0-0.095-0.001
			c-0.009,0.703-0.083,4.689-0.652,8.138l-0.015,0.092l-5.364,0l-0.014-0.094c-0.814-5.426-0.724-12.945-0.721-13.004l0.22,0.009
			c-0.001,0.072-0.095,7.447,0.705,12.869l4.987,0c0.571-3.523,0.63-7.574,0.635-8.069l-0.188-0.165l0.297,0.002
			c0.098,0.002,0.197,0.003,0.299,0.003h0.105l0.016,0.105c0.127,2.917,0.602,5.867,1.306,8.113l4.38-0.561
			c0.274-4.761-0.423-11.558-0.43-11.627l0.219-0.023c0.007,0.069,0.715,6.97,0.425,11.754l-0.006,0.091L47.182,74.162z"/>
	</g>
	<g>
		<path fill="#222223" d="M47.259,74.041c0.764,2.395,1.791,4.002,2.943,4.009c1.012,0.005,1.462-1.993,1.619-4.593
			C50.191,72.234,47.26,74.041,47.259,74.041"/>
		<path d="M50.206,78.16c-0.002,0-0.003,0-0.005,0c-1.127-0.006-2.209-1.457-3.047-4.085l0.105-0.034l-0.058-0.094
			c0.122-0.075,3.015-1.832,4.685-0.579l0.048,0.036l-0.004,0.059C51.74,76.623,51.176,78.16,50.206,78.16z M47.391,74.092
			c0.802,2.477,1.799,3.843,2.811,3.848c0.001,0,0.002,0,0.003,0c0.802,0,1.32-1.531,1.502-4.43
			C50.289,72.517,47.846,73.831,47.391,74.092z"/>
	</g>
	<g>
		<path fill="#222223" d="M44.961,74.041c-1.518-1.316-5.175,0-5.175,0c0.457,3.044,1.199,5.427,2.403,5.452
			C43.642,79.524,44.479,76.958,44.961,74.041z"/>
		<path d="M42.214,79.604C42.214,79.604,42.214,79.604,42.214,79.604l-0.028,0c-1.133-0.024-1.954-1.838-2.51-5.546l-0.013-0.089
			l0.085-0.031c0.067-0.024,1.661-0.591,3.196-0.591c0.918,0,1.62,0.206,2.088,0.612l0.047,0.04l-0.01,0.061
			C44.462,77.738,43.501,79.604,42.214,79.604z M39.908,74.116c0.523,3.426,1.312,5.247,2.283,5.268l0.023,0
			c1.14,0,2.048-1.832,2.628-5.298c-0.427-0.344-1.065-0.519-1.897-0.519C41.644,73.567,40.26,73.998,39.908,74.116z"/>
	</g>
	<path fill="#FFFFFF" d="M43.744,76.697c0,0,0.006,0.149-0.022,0.366c-0.013,0.109-0.035,0.234-0.066,0.367
		c-0.029,0.134-0.073,0.273-0.119,0.412c-0.052,0.137-0.106,0.274-0.173,0.396c-0.065,0.123-0.135,0.234-0.209,0.319
		c-0.036,0.043-0.069,0.082-0.107,0.112c-0.036,0.03-0.063,0.058-0.094,0.073c-0.059,0.032-0.091,0.047-0.091,0.047
		s0.022-0.029,0.062-0.079c0.021-0.021,0.035-0.06,0.059-0.094c0.023-0.035,0.042-0.08,0.066-0.127
		c0.046-0.094,0.091-0.208,0.139-0.331c0.046-0.123,0.095-0.255,0.142-0.389c0.095-0.267,0.19-0.536,0.27-0.737
		C43.679,76.83,43.744,76.697,43.744,76.697z"/>
	<path fill="#FFFFFF" d="M51.474,73.835c0,0,0.004,0.062,0.003,0.17c-0.003,0.108-0.002,0.262-0.015,0.447
		c-0.022,0.369-0.08,0.859-0.183,1.342c-0.104,0.482-0.254,0.96-0.437,1.291c-0.089,0.166-0.192,0.29-0.273,0.365
		c-0.085,0.073-0.148,0.089-0.145,0.092c0,0,0.011-0.01,0.033-0.03c0.023-0.017,0.047-0.052,0.081-0.091
		c0.03-0.043,0.064-0.097,0.096-0.163c0.031-0.066,0.062-0.142,0.095-0.226c0.125-0.338,0.236-0.81,0.337-1.285
		c0.099-0.477,0.199-0.955,0.273-1.313c0.04-0.18,0.074-0.329,0.097-0.434C51.46,73.895,51.474,73.835,51.474,73.835z"/>
	<path opacity="0.41" fill="#010202" d="M39.118,65.45l1.801,0.128c0,0-1.116,8.407,0.084,8.121
		c-0.433,0.466,0.123,4.887,0.753,5.677c-0.552-0.523-1.085-1.566-1.085-1.566l-0.528-1.813l-0.241-1.228l-0.329-2.356l-0.219-2.343
		l-0.169-2.821L39.14,66.13"/>
	<path opacity="0.41" fill="#010202" d="M47.084,65.578c0,0,0.1,8.106,1.38,7.879c-0.683,0.965,1.076,4.411,1.076,4.411
		l-0.817-0.741l-0.618-0.986l-0.526-1.184l-0.535-1.635l-0.454-1.902l-0.496-3.267l-0.048-1.414v-1.417"/>
	<g>
		<path fill="#0E0E0E" d="M30.644,55.417c0,0,1.155,3.179,4.829,2.312C35.708,55.1,31.677,54.096,30.644,55.417z"/>
		<path d="M34.258,57.989C34.258,57.989,34.258,57.989,34.258,57.989c-2.764,0-3.708-2.509-3.717-2.534l-0.021-0.057l0.038-0.048
			c0.314-0.401,0.887-0.623,1.612-0.623c1.043,0,2.132,0.454,2.775,1.157c0.479,0.523,0.7,1.165,0.638,1.855l-0.007,0.079
			l-0.077,0.018C35.069,57.937,34.652,57.989,34.258,57.989z M30.771,55.437c0.156,0.364,1.109,2.332,3.486,2.332c0,0,0,0,0.001,0
			c0.353,0,0.727-0.043,1.112-0.129c0.033-0.596-0.169-1.151-0.587-1.607c-0.603-0.659-1.629-1.086-2.613-1.086
			C31.554,54.947,31.049,55.125,30.771,55.437z"/>
	</g>
	<g>
		<path fill="#332111" d="M35.19,57.448c-0.903-2.753-4.02-2.214-4.02-2.214c-0.53,1.677-0.723,3.174-0.283,4.163
			C31.543,60.868,33.286,59.59,35.19,57.448z"/>
		<path d="M31.739,60.14C31.739,60.14,31.739,60.14,31.739,60.14c-0.425,0-0.745-0.235-0.951-0.698
			c-0.412-0.925-0.318-2.352,0.278-4.241l0.02-0.064l0.066-0.011c0.011-0.002,0.261-0.045,0.641-0.045
			c1.022,0,2.836,0.303,3.502,2.332l0.02,0.06l-0.042,0.047C33.706,59.283,32.55,60.14,31.739,60.14z M31.255,55.333
			c-0.561,1.803-0.651,3.155-0.266,4.019c0.17,0.382,0.415,0.567,0.75,0.567h0c0.727,0,1.846-0.84,3.327-2.497
			c-0.638-1.843-2.32-2.121-3.272-2.121C31.543,55.301,31.35,55.321,31.255,55.333z"/>
	</g>
	<g>
		<path fill="#332111" d="M56.82,54.589c-0.246,1.856-2.961,2.505-2.961,2.505l0,0.001c0.919,0.852,1.828,1.424,2.642,1.477
			C57.818,58.658,57.609,56.875,56.82,54.589"/>
		<path d="M56.591,58.685c-0.031,0-0.064-0.001-0.096-0.003c-0.774-0.051-1.686-0.557-2.71-1.506l-0.024-0.031l-0.062-0.124
			l0.135-0.033c0.026-0.006,2.645-0.654,2.877-2.412l0.111,0.015l0.103-0.035c0.691,2.001,0.819,3.246,0.392,3.806
			C57.152,58.576,56.908,58.685,56.591,58.685z M54.081,57.147c0.925,0.828,1.741,1.27,2.427,1.314
			c0.29,0.02,0.497-0.058,0.633-0.236c0.243-0.318,0.377-1.139-0.302-3.232C56.39,56.352,54.671,56.972,54.081,57.147z"/>
	</g>
	<g>
		<path fill="#64615D" d="M53.548,57.205c0,0,3.398,0.409,3.55-2.728l-1.164-2.57c-0.014,3.339-4.459,2.856-4.459,2.856
			L53.548,57.205z"/>
		<path d="M53.925,57.332L53.925,57.332c-0.236,0-0.384-0.017-0.39-0.018l-0.043-0.005l-2.28-2.685l0.274,0.03
			c0.002,0,0.223,0.024,0.559,0.024c1.133,0,3.768-0.27,3.778-2.771l0.002-0.505l1.383,3.053l-0.001,0.027
			C57.083,57.055,54.87,57.332,53.925,57.332z M53.603,57.1c0.058,0.005,0.171,0.012,0.322,0.012c0.879,0,2.931-0.255,3.061-2.615
			l-0.972-2.145c-0.3,2.286-2.84,2.545-3.969,2.545c-0.123,0-0.23-0.003-0.318-0.007L53.603,57.1z"/>
	</g>
	<g>
		<line fill="#E20714" x1="56.628" y1="56.028" x2="54.878" y2="53.353"/>
		<rect x="54.154" y="54.581" transform="matrix(0.5474 0.8369 -0.8369 0.5474 71.0055 -21.9044)" width="3.197" height="0.22"/>
	</g>
	<g>
		<path fill="#E20714" d="M56.139,54.109c0,0-0.422,0.78-1.037,1.028c0.33,0.385,0.55,0.532,0.55,0.532s0.899-0.711,0.844-1.08
			C56.185,54.183,56.139,54.109,56.139,54.109z"/>
		<path d="M55.658,55.805l-0.066-0.044c-0.009-0.006-0.237-0.16-0.573-0.552l-0.1-0.116l0.142-0.057
			c0.57-0.23,0.977-0.97,0.981-0.978l0.09-0.166l0.1,0.16c0.002,0.003,0.054,0.083,0.352,0.471l0.017,0.023l0.004,0.028
			c0.061,0.412-0.726,1.057-0.885,1.183L55.658,55.805z M55.282,55.174c0.167,0.184,0.297,0.297,0.369,0.355
			c0.33-0.273,0.734-0.691,0.739-0.899c-0.114-0.149-0.191-0.251-0.242-0.32C56.003,54.533,55.695,54.951,55.282,55.174z"/>
	</g>
	<path opacity="0.41" fill="#010202" d="M53.029,54.412l2.012,2.672c0,0,0.648,1.409,1.46,1.488
		c-0.768-0.187-1.907-0.858-1.907-0.858l-0.595-0.493l-0.451-0.017l-2.381-2.857"/>
	<g>
		<path fill="#333333" d="M55.963,52.013c0.094-0.218,0.092-0.468-0.01-0.682c-1.509-3.179-3.534-6.042-3.534-6.042
			s-0.768-1.839-6.568-1.911l2.06,4.512c0,0,1.005,3.626,3.095,6.587c0.128,0.182,0.339,0.288,0.561,0.288l1.572,0.171
			c0.768,0,2.356-1.038,2.661-1.743L55.963,52.013z"/>
		<path d="M53.139,55.045l-0.012-0.001l-1.572-0.171c-0.001,0-0.001,0-0.002,0c-0.247,0-0.489-0.125-0.637-0.334
			c-2.078-2.942-3.101-6.584-3.111-6.62l-2.126-4.654l0.174,0.002c5.623,0.069,6.578,1.788,6.663,1.966
			c0.125,0.178,2.083,2.985,3.538,6.05c0.113,0.238,0.119,0.513,0.017,0.759l-0.169,1.194C55.579,53.98,53.953,55.045,53.139,55.045
			z M46.024,43.49l1.987,4.353c0.016,0.052,1.03,3.659,3.085,6.569c0.107,0.151,0.283,0.241,0.471,0.241l1.578,0.171
			c0.718-0.005,2.249-1.007,2.548-1.663l0.169-1.193c0.083-0.191,0.08-0.407-0.008-0.592c-1.488-3.134-3.505-5.998-3.525-6.026
			l-0.012-0.021C52.31,45.314,51.494,43.593,46.024,43.49z"/>
	</g>
	<path opacity="0.41" fill="#010202" d="M50.368,48.183c0,0,1.198,6.581,3.832,6.406c-0.578,0.253-0.578,0.253-0.578,0.253
		l-0.902,0.048l-1.153-0.126l-0.561-0.288l-1.298-1.999"/>
	<g>
		<g>
			<path fill="#333333" d="M35.474,57.729c1.156-1.596,2.167-3.305,3.259-4.86c0.128,0.853-0.089,1.762-0.089,2.58
				c0,1.874-0.143,4.203-0.11,5.725c0,0.003-0.298,2.67-0.885,5.018c0,0,4.384,0.385,5.051,0.523
				c0.798,0.165,3.822-0.633,4.044-0.743c0.14,0.33,0.14,0.33,0.14,0.33s5.147-0.33,5.986-0.771c-0.431-1-1.23-3.918-1.23-3.918
				c-0.213-2.014-0.939-4.492-1.034-6.973c-0.367-9.652,2.387-9.955-6.027-11.509c-0.848,0-1.59,0.052-2.241,0.149l0.003-0.027
				c-3.501-0.386-5.291,0.762-5.291,0.762s-4.874,6.549-6.405,11.4C30.644,55.417,33.726,54.756,35.474,57.729z"/>
			<path d="M42.976,66.848c-0.121,0-0.219-0.008-0.299-0.025c-0.653-0.135-4.994-0.517-5.038-0.521l-0.128-0.011l0.031-0.125
				c0.581-2.326,0.88-4.977,0.883-5.003c-0.019-0.81,0.015-1.855,0.05-2.961c0.029-0.93,0.06-1.891,0.06-2.752
				c0-0.316,0.032-0.651,0.064-0.975c0.042-0.43,0.084-0.872,0.057-1.3c-0.435,0.63-0.864,1.292-1.281,1.934
				c-0.578,0.889-1.175,1.809-1.81,2.685l-0.099,0.136l-0.085-0.145c-1.187-2.019-3.008-2.32-3.988-2.32
				c-0.436,0-0.721,0.06-0.724,0.06l-0.185,0.039l0.057-0.18c1.519-4.813,6.373-11.367,6.422-11.433l0.029-0.027
				c0.055-0.035,1.369-0.859,3.946-0.859c0.459,0,0.935,0.027,1.416,0.08l0.092,0.01c0.639-0.088,1.356-0.133,2.133-0.133
				c6.479,1.195,6.449,1.751,6.218,6.081c-0.076,1.42-0.17,3.187-0.081,5.534c0.056,1.475,0.333,2.927,0.601,4.332
				c0.178,0.935,0.347,1.819,0.433,2.633c0.005,0.012,0.798,2.904,1.221,3.886l0.04,0.094l-0.09,0.047
				c-0.85,0.446-5.819,0.77-6.03,0.783l-0.078,0.005l-0.129-0.305C46.135,66.294,43.943,66.848,42.976,66.848z M37.786,66.094
				c0.741,0.066,4.326,0.387,4.935,0.513c0.065,0.013,0.15,0.02,0.255,0.02c1.047,0,3.551-0.671,3.718-0.754l0.105-0.052
				l0.155,0.366c0.625-0.042,4.804-0.336,5.772-0.712c-0.436-1.072-1.161-3.716-1.193-3.832c-0.088-0.822-0.256-1.702-0.433-2.632
				c-0.269-1.413-0.548-2.874-0.604-4.365c-0.09-2.357,0.005-4.13,0.081-5.554c0.232-4.339,0.251-4.693-6.018-5.851
				c-0.797,0.002-1.545,0.052-2.204,0.15l-0.142,0.021l0.007-0.06c-0.436-0.045-0.867-0.067-1.282-0.067
				c-2.356,0-3.653,0.721-3.811,0.814c-0.274,0.372-4.794,6.541-6.321,11.181c0.134-0.017,0.336-0.036,0.587-0.036
				c1.003,0,2.848,0.301,4.091,2.285c0.596-0.832,1.16-1.7,1.706-2.542c0.472-0.726,0.96-1.478,1.454-2.183L38.8,52.58l0.041,0.272
				c0.081,0.543,0.027,1.102-0.025,1.643c-0.032,0.333-0.063,0.648-0.063,0.954c0,0.865-0.031,1.828-0.06,2.759
				c-0.035,1.103-0.068,2.145-0.05,2.963C38.642,61.2,38.351,63.78,37.786,66.094z"/>
		</g>
	</g>
	<g>
		<path fill="#333333" d="M46.743,65.972c0,0-0.227-3.973-0.136-5.385c0.092-1.413-0.332-5.514-0.31-6.67s0.017-4.376,0.127-5.239
			c0.11-0.862-0.376-2.786-0.376-2.786"/>
		<path d="M46.633,65.978c-0.002-0.04-0.227-3.995-0.136-5.399c0.052-0.807-0.066-2.521-0.171-4.032
			c-0.076-1.1-0.148-2.139-0.139-2.633c0.005-0.289,0.009-0.707,0.014-1.186c0.013-1.44,0.031-3.412,0.114-4.065
			c0.106-0.832-0.369-2.726-0.374-2.745l0.214-0.054c0.02,0.08,0.49,1.954,0.379,2.827c-0.082,0.64-0.099,2.604-0.112,4.039
			c-0.004,0.479-0.008,0.898-0.014,1.188c-0.009,0.484,0.063,1.519,0.139,2.613c0.105,1.518,0.225,3.239,0.171,4.061
			c-0.09,1.39,0.133,5.332,0.136,5.372L46.633,65.978z"/>
	</g>
	<path d="M37.634,44.466c0,0,0.031,0,0.091,0.011c0.029,0.008,0.065,0.018,0.107,0.03c0.041,0.016,0.086,0.038,0.137,0.062
		c0.049,0.028,0.099,0.065,0.157,0.103c0.055,0.041,0.106,0.094,0.165,0.147c0.107,0.115,0.227,0.251,0.319,0.422
		c0.109,0.163,0.181,0.36,0.274,0.563c0.035,0.105,0.07,0.213,0.107,0.323c0.039,0.11,0.072,0.224,0.094,0.343
		c0.05,0.235,0.113,0.478,0.136,0.729c0.033,0.25,0.07,0.504,0.08,0.759c0.01,0.255,0.038,0.51,0.031,0.762
		c-0.002,0.251-0.005,0.498-0.007,0.737c-0.004,0.239-0.029,0.469-0.043,0.687c-0.017,0.218-0.029,0.424-0.048,0.614
		c-0.043,0.379-0.092,0.693-0.12,0.914c-0.033,0.22-0.052,0.345-0.052,0.345s0.003-0.127,0.009-0.349
		c0.01-0.222,0.016-0.539,0.039-0.918c0.007-0.19,0.007-0.396,0.011-0.613c0.003-0.217,0.006-0.446,0.01-0.683
		c-0.004-0.237-0.008-0.481-0.012-0.729c0.004-0.249-0.027-0.499-0.038-0.75c-0.007-0.252-0.041-0.501-0.071-0.746
		c-0.022-0.247-0.072-0.484-0.115-0.715c-0.017-0.117-0.048-0.227-0.078-0.336c-0.029-0.109-0.057-0.216-0.085-0.319
		c-0.078-0.198-0.136-0.395-0.231-0.555c-0.042-0.083-0.082-0.164-0.132-0.231c-0.049-0.068-0.086-0.142-0.139-0.196
		c-0.051-0.055-0.095-0.112-0.144-0.155c-0.051-0.041-0.096-0.081-0.14-0.113c-0.047-0.028-0.089-0.053-0.125-0.075
		c-0.039-0.017-0.073-0.031-0.1-0.043C37.666,44.471,37.634,44.466,37.634,44.466z"/>
	<path fill="#FFFFFF" d="M56.956,56.358c0,0,0.093,0.082,0.179,0.242c0.045,0.079,0.086,0.177,0.118,0.287
		c0.032,0.11,0.051,0.232,0.055,0.356c0.002,0.123-0.01,0.248-0.042,0.36c-0.011,0.057-0.033,0.109-0.054,0.158
		c-0.018,0.05-0.041,0.094-0.067,0.133c-0.091,0.16-0.196,0.232-0.19,0.235c0,0,0.007-0.03,0.02-0.08
		c0.015-0.049,0.036-0.118,0.053-0.202c0.021-0.081,0.036-0.178,0.047-0.279c0.011-0.101,0.018-0.21,0.012-0.318
		c0.001-0.109-0.013-0.218-0.024-0.321c-0.015-0.103-0.031-0.2-0.047-0.284C56.984,56.476,56.956,56.358,56.956,56.358z"/>
	<path fill="#FFFFFF" d="M31.689,59.834c0,0,0.135-0.127,0.347-0.299c0.212-0.173,0.5-0.392,0.789-0.607
		c0.145-0.107,0.29-0.214,0.425-0.314c0.134-0.102,0.259-0.197,0.364-0.281c0.051-0.044,0.098-0.084,0.139-0.119
		c0.039-0.038,0.073-0.071,0.101-0.099c0.049-0.062,0.077-0.098,0.077-0.098s-0.012,0.043-0.041,0.122
		c-0.037,0.072-0.098,0.175-0.187,0.283c-0.177,0.218-0.453,0.464-0.747,0.682c-0.295,0.218-0.608,0.408-0.851,0.535
		C31.863,59.769,31.689,59.834,31.689,59.834z"/>
	<path opacity="0.41" fill="#010202" d="M38.732,52.869c0,0,0.457-0.383,0.567-1.044c0.248,1.239,0.303,2.583,0.179,3.012
		c-0.124,0.429-0.093,4.034,0.064,4.254s0.409,6.833,0.097,7.284c-1.991-0.183-1.991-0.183-1.991-0.183l0.649-3.302l0.236-1.716
		l0.038-2.599l0.07-2.8l0.13-2.229L38.732,52.869z"/>
	<path opacity="0.41" fill="#010202" d="M32.179,55.417c0,0-1.863,2.537-0.984,4.418c-0.406-0.7-0.551-1.339-0.551-1.339
		l0.049-1.191l0.365-1.701l0.117-0.412L32.179,55.417z"/>
	<g>
		<path fill="#E00914" d="M48.8,49.706h-0.682c-0.223,0-0.406-0.183-0.406-0.406v0c0-0.223,0.183-0.406,0.406-0.406H48.8
			c0.223,0,0.406,0.183,0.406,0.406v0C49.206,49.523,49.023,49.706,48.8,49.706z"/>
		<path fill="#5C120F" d="M48.8,49.816h-0.682c-0.285,0-0.516-0.232-0.516-0.516s0.231-0.516,0.516-0.516H48.8
			c0.284,0,0.516,0.232,0.516,0.516S49.084,49.816,48.8,49.816z M48.118,49.004c-0.163,0-0.296,0.133-0.296,0.296
			c0,0.163,0.133,0.296,0.296,0.296H48.8c0.163,0,0.296-0.133,0.296-0.296c0-0.163-0.133-0.296-0.296-0.296H48.118z"/>
	</g>
	<g>
		<path fill="#E00914" d="M48.556,49.132c0,0,0.176,0.372-0.098,0.298c-0.058,0.106-0.058,0.106-0.058,0.106l-0.032-0.326
			l0.395,0.243"/>
		<path fill="#5C120F" d="M48.326,49.899L48.237,49l0.26,0.16l0.159-0.075c0.022,0.045,0.056,0.128,0.065,0.213l0.1,0.062
			l-0.115,0.188l-0.058-0.036c-0.029,0.023-0.065,0.043-0.128,0.039L48.326,49.899z"/>
	</g>
	<g>
		<path fill="#F7EDE1" d="M41.506,42.118c0,0-1.13,2.569,1.321,3.45c1.39,0.5,4.184,0.44,4.697-0.294
			c0.514-0.734,0.367-4.11,0.367-4.11L41.506,42.118z"/>
		<path fill="#CB860D" d="M45.095,46.003C45.095,46.003,45.094,46.003,45.095,46.003c-0.878,0-1.718-0.121-2.305-0.332
			c-0.721-0.259-1.214-0.687-1.465-1.271c-0.46-1.072,0.058-2.276,0.081-2.327l0.024-0.056l0.06-0.009l6.506-0.972l0.005,0.122
			c0.006,0.139,0.142,3.422-0.387,4.178C47.182,45.954,45.577,46.003,45.095,46.003z M41.584,42.217
			c-0.093,0.242-0.428,1.237-0.057,2.097c0.226,0.525,0.676,0.912,1.337,1.149c0.555,0.2,1.389,0.319,2.23,0.319c0,0,0,0,0,0
			c1.178,0,2.096-0.224,2.339-0.572c0.387-0.553,0.388-2.908,0.352-3.92L41.584,42.217z"/>
	</g>
	<path opacity="0.29" fill="#CB860D" d="M41.246,42.811l0.902-1.474l1.963,0.87c0,0-0.844,1.744-0.22,3.181
		C42.644,45.1,41.246,42.811,41.246,42.811z"/>
	<g>
		<path fill="#333333" d="M41.506,42.118l-1.417,1.089c0,0,1.986,3.146,4.427,3.293c0.165-1.57,0.165-1.57,0.165-1.57
			S41.542,44.291,41.506,42.118"/>
		<path d="M44.614,46.615l-0.105-0.006c-2.469-0.149-4.431-3.213-4.513-3.344l-0.054-0.085l1.671-1.284l0.004,0.219
			c0.035,2.061,3.056,2.699,3.086,2.705l0.098,0.02L44.614,46.615z M40.237,43.232c0.33,0.488,2.091,2.947,4.18,3.15l0.144-1.367
			c-0.237-0.057-0.866-0.23-1.507-0.58c-0.987-0.54-1.552-1.264-1.645-2.104L40.237,43.232z"/>
	</g>
	<g>
		<path fill="#333333" d="M49.076,41.871l1.545,0.819c0,0-1.653,3.258-4.051,3.731c-0.274-1.494-0.274-1.494-0.274-1.494
			S49.322,43.9,49.076,41.871"/>
		<path d="M46.482,46.551l-0.311-1.697l0.09-0.031c0.029-0.01,2.937-1.022,2.705-2.939l-0.025-0.209l1.827,0.968l-0.049,0.097
			c-0.069,0.135-1.705,3.311-4.128,3.789L46.482,46.551z M46.422,45l0.236,1.29c2.033-0.48,3.524-3.027,3.814-3.554L49.2,42.061
			C49.241,43.848,46.921,44.813,46.422,45z"/>
	</g>
	<g>
		<g>
			<path fill="#F7EDE1" d="M45.171,11.037c-7.432,0.102-13.454,6.004-13.454,13.241c0,0.046,0-0.046,0,0
				c-0.716,4.4,0.978,11.348,2.165,14.591c1.114,3.045,14.805,6.048,21.909,2.973c5.064-2.193,5.514-6,5.23-7.29
				c-0.266-1.211-1.405-1.682-1.386-5.205c0.011-2.151-0.64-5.209-1.212-7.474c-0.13-0.725-0.32-1.431-0.567-2.11l0,0
				C57.856,19.763,56.102,10.887,45.171,11.037z"/>
			<path fill="#CB860D" d="M48.23,43.242c-0.001,0-0.001,0-0.002,0c-6.612,0-13.635-2.107-14.45-4.335
				c-1.217-3.328-2.882-10.242-2.171-14.637l0-0.037l0.001-0.001c0.031-7.245,6.103-13.204,13.562-13.306
				c5.738-0.083,8.92,2.36,10.574,4.403c1.764,2.178,2.217,4.39,2.221,4.412c0.245,0.668,0.437,1.384,0.568,2.112
				c0.559,2.211,1.225,5.314,1.213,7.493c-0.012,2.398,0.511,3.354,0.932,4.122c0.196,0.358,0.365,0.667,0.452,1.059
				c0.286,1.301-0.108,5.169-5.294,7.415C53.871,42.793,51.242,43.242,48.23,43.242z M31.811,24.388
				c-0.671,4.357,0.971,11.158,2.174,14.444c0.773,2.114,7.829,4.19,14.243,4.19c0,0,0.001,0,0.002,0
				c2.982,0,5.581-0.443,7.517-1.281c5.05-2.187,5.441-5.914,5.166-7.166c-0.079-0.361-0.242-0.658-0.43-1
				c-0.433-0.79-0.972-1.774-0.959-4.229c0.011-2.157-0.651-5.24-1.208-7.446c-0.13-0.723-0.319-1.426-0.564-2.099
				c-0.022-0.104-1.869-8.803-12.58-8.654c-7.358,0.101-13.345,5.992-13.345,13.131v0.107L31.811,24.388z"/>
		</g>
		
			<ellipse transform="matrix(0.9985 0.055 -0.055 0.9985 2.0059 -2.1683)" opacity="0.58" fill="#E6007E" cx="40.376" cy="35.339" rx="2.67" ry="0.983"/>
		
			<ellipse transform="matrix(0.9949 -0.1011 0.1011 0.9949 -3.1531 6.0762)" opacity="0.58" fill="#E6007E" cx="58.386" cy="34.154" rx="2.244" ry="0.826"/>
		<path fill="#CB860D" d="M47.368,39.255c0,0,0.113,0.036,0.311,0.088c0.198,0.054,0.485,0.117,0.831,0.169
			c0.344,0.05,0.755,0.082,1.174,0.011c0.209-0.033,0.416-0.104,0.599-0.213c0.043-0.031,0.09-0.058,0.129-0.094l0.069-0.057
			c0.023-0.018,0.043-0.036,0.077-0.055c0.122-0.075,0.235-0.114,0.355-0.151c0.238-0.067,0.48-0.099,0.723-0.1
			c0.122,0.001,0.243,0.007,0.367,0.036c0.121,0.033,0.221,0.068,0.322,0.092c0.411,0.103,0.817,0.09,1.144-0.006
			c0.327-0.1,0.577-0.256,0.735-0.383c0.159-0.128,0.236-0.219,0.236-0.219s-0.057,0.105-0.203,0.255
			c-0.073,0.075-0.167,0.16-0.287,0.246c-0.118,0.088-0.267,0.165-0.437,0.231c-0.171,0.063-0.366,0.113-0.576,0.128
			c-0.21,0.015-0.434-0.001-0.659-0.049c-0.114-0.022-0.227-0.062-0.325-0.087c-0.097-0.022-0.207-0.028-0.316-0.028
			c-0.221,0.002-0.449,0.035-0.664,0.093c-0.105,0.029-0.215,0.072-0.294,0.119c-0.018,0.008-0.043,0.029-0.066,0.046l-0.067,0.054
			c-0.048,0.042-0.102,0.074-0.154,0.109c-0.216,0.126-0.453,0.193-0.68,0.222c-0.457,0.059-0.877-0.011-1.225-0.081
			c-0.349-0.074-0.628-0.178-0.822-0.249C47.474,39.308,47.368,39.255,47.368,39.255z"/>
		<path fill="#FFFFFF" d="M45.965,26.87c0,0-5.34-1.817-9.597,1.229c0.606,2.422,1.67,5.982,1.67,5.982s6.936-0.165,7.596-0.716
			C46.295,32.815,45.965,26.87,45.965,26.87z"/>
		<path fill="#FFFFFF" d="M51.781,26.668c0,0,3.596-1.872,6.899-0.037c-0.037,2.606,0.294,5.431,0.294,5.431
			s-5.651,1.064-6.312,0.514C52.001,32.026,51.781,26.668,51.781,26.668z"/>
		<g>
			<defs>
				<path id="SVGID_1_" d="M45.965,26.87c0,0-5.34-1.817-9.597,1.229c0.606,2.422,1.67,5.982,1.67,5.982s6.936-0.165,7.596-0.716
					C46.295,32.815,45.965,26.87,45.965,26.87z"/>
			</defs>
			<clipPath id="SVGID_2_">
				<use xlink:href="#SVGID_1_"  overflow="visible"/>
			</clipPath>
			<g clip-path="url(#SVGID_2_)">
				<g>
					<linearGradient id="SVGID_3_" gradientUnits="userSpaceOnUse" x1="41.1663" y1="34.5931" x2="41.1663" y2="25.8812">
						<stop  offset="0" style="stop-color:#69B42E"/>
						<stop  offset="1" style="stop-color:#1E1E1C"/>
					</linearGradient>
					<ellipse fill="url(#SVGID_3_)" cx="41.166" cy="30.237" rx="3.165" ry="4.356"/>
					<path fill="#010202" d="M41.166,34.703c-1.806,0-3.275-2.003-3.275-4.466s1.469-4.466,3.275-4.466
						c1.806,0,3.275,2.004,3.275,4.466S42.972,34.703,41.166,34.703z M41.166,25.991c-1.685,0-3.055,1.905-3.055,4.246
						c0,2.341,1.37,4.246,3.055,4.246c1.685,0,3.055-1.905,3.055-4.246C44.221,27.896,42.851,25.991,41.166,25.991z"/>
				</g>
				<ellipse opacity="0.46" fill="#010202" cx="41.166" cy="30.237" rx="1.266" ry="1.742"/>
				<circle fill="#FFFFFF" cx="42.854" cy="28.736" r="1.47"/>
				<circle opacity="0.69" fill="#FFFFFF" cx="39.402" cy="32.989" r="1.092"/>
				<circle opacity="0.21" fill="#FFFFFF" cx="43.005" cy="32.761" r="0.864"/>
			</g>
		</g>
		<g>
			<defs>
				<path id="SVGID_4_" d="M51.781,26.668c0,0,3.596-1.872,6.899-0.037c-0.037,2.606,0.294,5.431,0.294,5.431
					s-5.651,1.064-6.312,0.514C52.001,32.026,51.781,26.668,51.781,26.668z"/>
			</defs>
			<clipPath id="SVGID_5_">
				<use xlink:href="#SVGID_4_"  overflow="visible"/>
			</clipPath>
			<g clip-path="url(#SVGID_5_)">
				<g>
					<linearGradient id="SVGID_6_" gradientUnits="userSpaceOnUse" x1="54.9432" y1="33.6355" x2="54.9432" y2="24.9235">
						<stop  offset="0" style="stop-color:#69B42E"/>
						<stop  offset="1" style="stop-color:#1E1E1C"/>
					</linearGradient>
					<ellipse fill="url(#SVGID_6_)" cx="54.943" cy="29.28" rx="3.165" ry="4.356"/>
					<path fill="#010202" d="M54.943,33.746c-1.806,0-3.275-2.003-3.275-4.466s1.469-4.466,3.275-4.466
						c1.806,0,3.275,2.004,3.275,4.466S56.749,33.746,54.943,33.746z M54.943,25.034c-1.685,0-3.055,1.905-3.055,4.246
						c0,2.341,1.371,4.246,3.055,4.246c1.685,0,3.055-1.905,3.055-4.246C57.998,26.938,56.628,25.034,54.943,25.034z"/>
				</g>
				<ellipse opacity="0.46" fill="#010202" cx="54.943" cy="29.28" rx="1.266" ry="1.742"/>
				<circle fill="#FFFFFF" cx="56.631" cy="27.778" r="1.47"/>
				<circle opacity="0.69" fill="#FFFFFF" cx="53.179" cy="32.031" r="1.092"/>
				<circle opacity="0.21" fill="#FFFFFF" cx="56.782" cy="31.803" r="0.864"/>
			</g>
		</g>
		<path fill="#010202" d="M51.781,26.668c0.251-0.166,0.518-0.311,0.793-0.436c0.137-0.066,0.279-0.117,0.419-0.176
			c0.141-0.056,0.286-0.104,0.43-0.152c0.145-0.047,0.293-0.084,0.44-0.126c0.147-0.043,0.298-0.069,0.448-0.101
			c0.15-0.034,0.303-0.051,0.455-0.072c0.152-0.022,0.305-0.042,0.46-0.048c0.154-0.006,0.309-0.019,0.464-0.016l0.466,0.015
			c0.156,0.005,0.31,0.032,0.465,0.049l0.232,0.033c0.077,0.013,0.152,0.035,0.229,0.052l0.457,0.11l0.445,0.154
			c0.074,0.026,0.148,0.052,0.22,0.083l0.211,0.104l0.421,0.21l0.168,0.084l-0.003,0.202l-0.018,1.348l0.001,1.354l0.001,1.359
			c0,0.454-0.003,0.909-0.013,1.366c-0.111-0.444-0.198-0.893-0.273-1.342c-0.04-0.225-0.071-0.451-0.103-0.677
			c-0.031-0.226-0.064-0.452-0.085-0.679l-0.068-0.681c-0.023-0.227-0.033-0.455-0.047-0.684c-0.013-0.228-0.024-0.457-0.032-0.686
			c-0.009-0.229-0.005-0.458-0.007-0.687l0.166,0.286l-0.384-0.181l-0.191-0.091c-0.065-0.027-0.134-0.046-0.199-0.072l-0.398-0.148
			l-0.411-0.107c-0.069-0.017-0.137-0.038-0.206-0.051l-0.211-0.033c-0.141-0.02-0.279-0.057-0.422-0.068l-0.427-0.039
			c-0.143-0.012-0.287-0.006-0.431-0.011c-0.144-0.009-0.288-0.004-0.433,0.003c-0.145,0.006-0.29,0.007-0.434,0.026
			c-0.144,0.018-0.291,0.022-0.435,0.043c-0.144,0.021-0.29,0.037-0.434,0.063l-0.434,0.08c-0.143,0.033-0.29,0.059-0.432,0.098
			C52.353,26.492,52.067,26.573,51.781,26.668z"/>
		<path fill="#010202" d="M45.965,26.87c-0.205-0.045-0.411-0.077-0.617-0.109c-0.205-0.034-0.412-0.059-0.618-0.082
			c-0.205-0.03-0.413-0.04-0.618-0.061l-0.618-0.037c-0.206-0.01-0.412-0.007-0.617-0.011c-0.205-0.005-0.41,0.009-0.614,0.012
			c-0.205,0-0.408,0.023-0.611,0.04c-0.203,0.017-0.406,0.032-0.607,0.065c-0.201,0.031-0.404,0.05-0.602,0.091l-0.593,0.129
			c-0.199,0.038-0.389,0.107-0.584,0.159l-0.291,0.084c-0.096,0.03-0.188,0.072-0.283,0.107l-0.562,0.22l-0.541,0.265
			c-0.09,0.045-0.182,0.086-0.27,0.134l-0.255,0.16l-0.512,0.32l0.123-0.333l0.712,3.016c0.113,0.505,0.233,1.009,0.34,1.516
			c0.056,0.253,0.11,0.507,0.161,0.761c0.054,0.254,0.101,0.51,0.151,0.765c-0.198-0.481-0.387-0.965-0.562-1.454
			c-0.181-0.487-0.346-0.978-0.513-1.47c-0.162-0.493-0.318-0.987-0.472-1.483c-0.146-0.498-0.29-0.997-0.429-1.499l-0.059-0.215
			l0.182-0.118l0.543-0.353L37,27.314c0.094-0.053,0.192-0.099,0.287-0.149l0.578-0.293l0.606-0.227
			c0.102-0.036,0.201-0.079,0.304-0.109l0.312-0.085c0.209-0.052,0.413-0.123,0.625-0.159l0.635-0.108
			c0.212-0.033,0.426-0.044,0.638-0.067c0.212-0.026,0.426-0.031,0.639-0.031c0.213-0.002,0.426-0.009,0.639,0.006
			c0.212,0.014,0.425,0.012,0.636,0.039c0.211,0.026,0.422,0.046,0.631,0.078c0.209,0.037,0.418,0.064,0.624,0.111
			c0.206,0.049,0.413,0.087,0.616,0.145c0.204,0.053,0.405,0.115,0.605,0.181C45.576,26.711,45.772,26.788,45.965,26.87z"/>
		<g>
			<path fill="none" d="M62.891,43.876"/>
		</g>
		<path fill="#76144D" d="M48.579,17.603"/>
		<path fill="#76144D" d="M47.805,17.397"/>
		<path opacity="0.44" fill="#A81916" d="M38.506,34.769c0,0,0.083,0.079,0.192,0.21c0.109,0.131,0.245,0.314,0.361,0.51
			c0.117,0.195,0.211,0.405,0.262,0.57c0.051,0.165,0.058,0.28,0.058,0.28s-0.011-0.026-0.031-0.072
			c-0.016-0.047-0.051-0.109-0.085-0.185c-0.074-0.151-0.185-0.344-0.299-0.537c-0.115-0.193-0.23-0.386-0.316-0.53
			C38.561,34.869,38.506,34.769,38.506,34.769z"/>
		<path opacity="0.44" fill="#A81916" d="M39.689,34.521c0,0,0.092,0.068,0.207,0.193c0.056,0.063,0.123,0.138,0.185,0.224
			c0.063,0.086,0.123,0.183,0.178,0.283c0.052,0.101,0.101,0.205,0.135,0.307c0.018,0.05,0.034,0.1,0.044,0.148
			c0.011,0.048,0.024,0.092,0.029,0.135c0.016,0.084,0.019,0.156,0.019,0.205c0,0.049,0,0.078,0,0.078s-0.008-0.027-0.022-0.075
			c-0.009-0.048-0.033-0.114-0.058-0.193c-0.025-0.079-0.062-0.169-0.103-0.263c-0.041-0.095-0.089-0.193-0.142-0.29
			c-0.103-0.194-0.222-0.381-0.315-0.52C39.753,34.614,39.689,34.521,39.689,34.521z"/>
		<path opacity="0.44" fill="#A81916" d="M41.529,34.521c0,0,0.052,0.13,0.103,0.333c0.051,0.203,0.107,0.477,0.13,0.756
			c0.026,0.279,0.019,0.56-0.004,0.768c-0.01,0.105-0.028,0.19-0.04,0.25c-0.013,0.06-0.021,0.094-0.021,0.094s0-0.035,0-0.096
			c0.004-0.061-0.001-0.147-0.001-0.251c-0.003-0.207-0.019-0.482-0.044-0.756c-0.024-0.274-0.056-0.548-0.081-0.754
			C41.547,34.659,41.529,34.521,41.529,34.521z"/>
		<path opacity="0.44" fill="#A81916" d="M42.434,34.811c0,0,0.064,0.061,0.141,0.167c0.077,0.106,0.168,0.257,0.231,0.422
			c0.031,0.082,0.057,0.167,0.073,0.249c0.017,0.082,0.019,0.161,0.019,0.227c-0.003,0.067-0.013,0.122-0.025,0.159
			c-0.011,0.037-0.019,0.057-0.019,0.057s-0.001-0.022-0.003-0.06c0.003-0.037-0.009-0.091-0.016-0.152
			c-0.01-0.062-0.03-0.133-0.051-0.208c-0.024-0.075-0.049-0.155-0.082-0.233c-0.061-0.157-0.129-0.313-0.182-0.43
			C42.468,34.892,42.434,34.811,42.434,34.811z"/>
		<path opacity="0.44" fill="#A81916" d="M56.093,34.081c0,0,0.077,0.038,0.177,0.118c0.1,0.08,0.224,0.199,0.323,0.34
			c0.047,0.072,0.093,0.145,0.125,0.22c0.035,0.073,0.054,0.147,0.071,0.21c0.015,0.063,0.019,0.117,0.019,0.155
			c0.001,0.037,0,0.059,0,0.059s-0.008-0.02-0.021-0.055c-0.009-0.035-0.034-0.082-0.057-0.139
			c-0.051-0.112-0.134-0.252-0.227-0.386c-0.094-0.133-0.196-0.263-0.276-0.359C56.147,34.146,56.093,34.081,56.093,34.081z"/>
		<path opacity="0.44" fill="#A81916" d="M56.809,33.2c0,0,0.149,0.065,0.36,0.187c0.105,0.062,0.227,0.135,0.353,0.221
			c0.126,0.086,0.256,0.185,0.381,0.289c0.123,0.107,0.245,0.217,0.345,0.334c0.053,0.056,0.099,0.115,0.139,0.173
			c0.044,0.055,0.078,0.113,0.109,0.167c0.034,0.051,0.055,0.105,0.073,0.152c0.019,0.046,0.035,0.087,0.039,0.123
			c0.013,0.07,0.02,0.11,0.02,0.11s-0.015-0.038-0.04-0.104c-0.009-0.034-0.031-0.071-0.056-0.112
			c-0.024-0.042-0.051-0.089-0.088-0.136c-0.067-0.098-0.161-0.202-0.266-0.307c-0.104-0.107-0.223-0.213-0.346-0.316
			c-0.121-0.104-0.248-0.202-0.367-0.295c-0.12-0.091-0.231-0.178-0.33-0.248C56.94,33.295,56.809,33.2,56.809,33.2z"/>
		<path opacity="0.44" fill="#A81916" d="M58.628,33.53c0,0,0.071,0.022,0.158,0.092c0.042,0.036,0.091,0.079,0.133,0.135
			c0.044,0.054,0.08,0.12,0.113,0.187c0.029,0.069,0.052,0.14,0.065,0.208c0.012,0.068,0.015,0.133,0.015,0.188
			c0.004,0.055-0.008,0.1-0.011,0.132c-0.005,0.031-0.009,0.049-0.009,0.049s-0.006-0.018-0.013-0.049
			c-0.006-0.031-0.016-0.074-0.029-0.125c-0.009-0.052-0.031-0.109-0.048-0.171c-0.021-0.061-0.043-0.125-0.072-0.187
			c-0.056-0.123-0.125-0.241-0.189-0.324C58.68,33.582,58.628,33.53,58.628,33.53z"/>
		<path opacity="0.44" fill="#A81916" d="M59.974,34.811c0,0-0.018-0.086-0.03-0.214c-0.013-0.128-0.022-0.3-0.029-0.467
			c-0.01-0.167-0.026-0.33-0.088-0.435c-0.03-0.052-0.061-0.095-0.087-0.122c-0.026-0.027-0.041-0.043-0.041-0.043
			s0.02,0.008,0.054,0.026c0.032,0.02,0.082,0.049,0.125,0.103c0.044,0.052,0.085,0.125,0.107,0.207
			c0.024,0.082,0.034,0.17,0.04,0.257c0.009,0.174-0.006,0.345-0.019,0.474C59.992,34.726,59.974,34.811,59.974,34.811z"/>
		<radialGradient id="SVGID_7_" cx="59.7002" cy="33.7394" r="1.072" gradientUnits="userSpaceOnUse">
			<stop  offset="0" style="stop-color:#FFFFFF;stop-opacity:0.95"/>
			<stop  offset="1" style="stop-color:#FFFFFF;stop-opacity:0"/>
		</radialGradient>
		<circle opacity="0.51" fill="url(#SVGID_7_)" cx="59.7" cy="33.739" r="1.072"/>
		<radialGradient id="SVGID_8_" cx="42.0852" cy="35.1817" r="1.072" gradientUnits="userSpaceOnUse">
			<stop  offset="0" style="stop-color:#FFFFFF;stop-opacity:0.95"/>
			<stop  offset="1" style="stop-color:#FFFFFF;stop-opacity:0"/>
		</radialGradient>
		<circle opacity="0.51" fill="url(#SVGID_8_)" cx="42.085" cy="35.182" r="1.072"/>
		<path fill="#255626" d="M43.569,22.308c0,0-0.155,0.02-0.426,0.056c-0.135,0.018-0.299,0.04-0.488,0.066
			c-0.094,0.014-0.194,0.029-0.299,0.044c-0.105,0.016-0.217,0.012-0.333,0.024c-0.928,0.071-2.165,0.203-3.381,0.446
			c-0.608,0.121-1.21,0.269-1.761,0.444c-0.276,0.088-0.538,0.183-0.784,0.282c-0.244,0.102-0.47,0.207-0.673,0.314
			c-0.198,0.116-0.383,0.213-0.548,0.302c-0.157,0.099-0.297,0.186-0.4,0.273c-0.11,0.08-0.185,0.155-0.239,0.204
			c-0.054,0.05-0.083,0.076-0.083,0.076s0.023-0.032,0.066-0.091c0.044-0.058,0.102-0.152,0.2-0.25
			c0.09-0.106,0.215-0.218,0.361-0.348c0.077-0.06,0.158-0.123,0.244-0.19c0.087-0.066,0.194-0.109,0.296-0.171
			c0.21-0.111,0.443-0.22,0.693-0.324c0.251-0.101,0.519-0.199,0.8-0.288c0.562-0.178,1.171-0.328,1.785-0.45
			c1.228-0.246,2.473-0.378,3.407-0.45c0.117-0.006,0.228-0.024,0.335-0.024c0.107,0.002,0.209,0.005,0.304,0.007
			c0.191,0.007,0.357,0.013,0.494,0.018C43.413,22.292,43.569,22.308,43.569,22.308z"/>
		<path fill="#255626" d="M51.467,22.381c0,0,0.101-0.045,0.283-0.11c0.091-0.032,0.202-0.07,0.329-0.114
			c0.064-0.021,0.132-0.044,0.204-0.067c0.072-0.022,0.152-0.027,0.232-0.045c0.648-0.119,1.518-0.25,2.4-0.288
			c0.44-0.02,0.883-0.017,1.297,0.019c0.207,0.019,0.407,0.044,0.596,0.078c0.188,0.036,0.366,0.078,0.527,0.127
			c0.079,0.031,0.161,0.041,0.229,0.081c0.068,0.039,0.133,0.073,0.192,0.109c0.116,0.076,0.214,0.145,0.287,0.211
			c0.078,0.059,0.125,0.122,0.161,0.159c0.035,0.038,0.053,0.058,0.053,0.058s-0.024-0.014-0.068-0.041
			c-0.045-0.026-0.106-0.069-0.193-0.108c-0.083-0.045-0.19-0.086-0.312-0.13c-0.126-0.036-0.266-0.073-0.415-0.129
			c-0.152-0.047-0.321-0.087-0.501-0.121c-0.181-0.033-0.374-0.058-0.575-0.076c-0.402-0.034-0.836-0.037-1.268-0.018
			c-0.866,0.037-1.728,0.167-2.369,0.285c-0.081,0.012-0.155,0.038-0.23,0.043c-0.075,0.006-0.145,0.011-0.212,0.017
			c-0.133,0.012-0.249,0.023-0.345,0.032C51.577,22.371,51.467,22.381,51.467,22.381z"/>
	</g>
	<g>
		<circle fill="#454444" cx="45.4" cy="46.838" r="0.647"/>
		<path fill="#010202" d="M45.4,47.595c-0.417,0-0.757-0.34-0.757-0.757c0-0.417,0.34-0.757,0.757-0.757
			c0.417,0,0.757,0.34,0.757,0.757C46.157,47.255,45.818,47.595,45.4,47.595z M45.4,46.301c-0.296,0-0.537,0.241-0.537,0.537
			s0.241,0.537,0.537,0.537c0.296,0,0.537-0.241,0.537-0.537S45.696,46.301,45.4,46.301z"/>
	</g>
	<path fill="#191009" d="M44.295,45.596"/>
	<path opacity="0.41" fill="#010202" d="M32.552,55.417c0,0,4.212-10.731,5.932-10.278c0.193-0.606,1.661-1.788,1.93-1.461
		c0.076-0.388,1.328-0.621,1.328-0.621l-0.272-0.85l-1.424,1.003l-1.099,0.15l-0.895,0.228l-1.003,0.429l-0.619,0.862l-0.7,1.014
		l-0.957,1.451l-0.885,1.417l-1.209,2.099l-1.082,2.144l-0.681,1.624l-0.272,0.789H32.552z"/>
	<path fill="#FFFFFF" d="M45.313,46.499c0,0,0.05-0.046,0.146-0.051c0.047-0.004,0.107,0.005,0.164,0.037
		c0.06,0.028,0.109,0.084,0.143,0.143c0.063,0.125,0.05,0.254,0.02,0.336c-0.013,0.042-0.035,0.074-0.049,0.096
		c-0.015,0.022-0.025,0.034-0.025,0.034s-0.03-0.059-0.052-0.134c-0.007-0.019-0.015-0.038-0.019-0.058
		c-0.004-0.021-0.017-0.039-0.021-0.06c-0.004-0.021-0.017-0.039-0.023-0.058c-0.005-0.02-0.016-0.036-0.025-0.053
		c-0.032-0.065-0.08-0.118-0.142-0.161C45.371,46.529,45.313,46.499,45.313,46.499z"/>
	<g>
		<path fill="#E4EAE9" d="M45.171,11.037c-7.432,0.102-13.454,6.004-13.454,13.241c0,0.046,0-0.046,0,0
			c-0.716,4.4,0.978,11.348,2.165,14.591c1.114,3.045,14.805,6.048,21.909,2.973c5.064-2.193,5.514-6,5.23-7.29
			c-0.266-1.211-1.405-1.682-1.386-5.205c0.011-2.151-0.64-5.209-1.212-7.474c-0.13-0.725-0.32-1.431-0.567-2.11l0,0
			C57.856,19.763,56.102,10.887,45.171,11.037z"/>
		<path fill="#5F5F5E" d="M48.23,43.242c-0.001,0-0.001,0-0.002,0c-6.612,0-13.635-2.107-14.45-4.335
			c-1.217-3.328-2.882-10.242-2.171-14.637l0-0.037l0.001-0.001c0.031-7.245,6.103-13.204,13.562-13.306
			c5.738-0.083,8.92,2.36,10.574,4.403c1.764,2.178,2.217,4.39,2.221,4.412c0.245,0.668,0.437,1.384,0.568,2.112
			c0.559,2.211,1.225,5.314,1.213,7.493c-0.012,2.398,0.511,3.354,0.932,4.122c0.196,0.358,0.365,0.667,0.452,1.059
			c0.286,1.301-0.108,5.169-5.294,7.415C53.871,42.793,51.242,43.242,48.23,43.242z M31.811,24.388
			c-0.671,4.357,0.971,11.158,2.174,14.444c0.773,2.114,7.829,4.19,14.243,4.19c0,0,0.001,0,0.002,0
			c2.982,0,5.581-0.443,7.517-1.281c5.05-2.187,5.441-5.914,5.166-7.166c-0.079-0.361-0.242-0.658-0.43-1
			c-0.433-0.79-0.972-1.774-0.959-4.229c0.011-2.157-0.651-5.24-1.208-7.446c-0.13-0.723-0.319-1.426-0.564-2.099
			c-0.022-0.104-1.869-8.803-12.58-8.654c-7.358,0.101-13.345,5.992-13.345,13.131v0.107L31.811,24.388z"/>
	</g>
	<path opacity="0.2" fill="#5F5F5E" d="M46.047,43.057c0,0-0.038-0.529-0.101-1.186c-0.074-0.783-1.249-0.922-1.368-1.395
		c-0.22-0.87-0.442-2.502-1.01-3.71c-0.733-1.18-0.917-1.314-0.917-1.314l-2.276,1.444l-0.288-0.251l-0.997-1.024l-0.905-1.596
		l-0.118-0.495l0.281-0.614l0.275-0.138l-0.248-2.752l-4.541-1.762l-1.101,5.761l2.19,6.057l2.269,1.08l1.77,0.63l2.202,0.587
		l2.544,0.44l1.383,0.114L46.047,43.057z"/>
	<polygon opacity="0.2" fill="#5F5F5E" points="35.007,23.924 40.376,20.476 36.231,18.797 33.946,21.361 	"/>
	<path opacity="0.2" fill="#5F5F5E" d="M48.608,32.619l-1.211,0.119c0,0-1.616,0.801-2.002,1.893
		c-0.385,1.093-0.606,3.184-0.275,3.928c0.33,0.743,1.184,1.982,2.037,2.34c0.853,0.358,3.138,0,3.138,0L48.608,32.619z"/>
	<g>
		<path fill="#333333" d="M56.613,11.717c0,0-0.482-5.451-4.357-5.826S31.252,5.408,28.952,8.157s-3.631,17.05-3.543,19.909
			c0.475,15.442,0.713,18.682,4.748,18.86c9.237,0.409,4.31-1.879,4.09-13.524c-0.077-4.087,1.297-13.531,1.297-13.531"/>
		<path d="M31.891,47.08c-0.511,0-1.088-0.015-1.739-0.044c-4.131-0.183-4.376-3.47-4.853-18.967
			c-0.094-3.068,1.298-17.268,3.569-19.983c2.36-2.821,19.607-2.673,23.399-2.306c3.92,0.38,4.451,5.871,4.456,5.926l-0.219,0.019
			c-0.005-0.054-0.52-5.364-4.258-5.727C48.018,5.59,31.24,5.593,29.036,8.227c-2.241,2.678-3.612,16.784-3.518,19.835
			c0.472,15.329,0.709,18.579,4.643,18.754c3.182,0.141,4.577-0.054,5.143-0.718c0.584-0.685,0.327-1.936-0.098-4.01
			c-0.421-2.051-0.998-4.861-1.07-8.685c-0.076-4.049,1.285-13.454,1.299-13.549l0.218,0.032c-0.014,0.094-1.372,9.482-1.296,13.513
			c0.072,3.804,0.646,6.601,1.066,8.644c0.439,2.139,0.704,3.43,0.05,4.197C34.97,46.83,33.973,47.08,31.891,47.08z"/>
	</g>
	<g>
		<path fill="#333333" d="M34.363,19.678c0,0-2.5-10.637,0.719-11.348s20.564-2.23,22.277,0.32s2.585,10.333,0.938,10.685
			C56.651,19.686,35.083,22.443,34.363,19.678z"/>
		<path d="M40.339,21.006c-3.865,0-5.855-0.426-6.083-1.301c-0.078-0.332-1.88-8.109-0.257-10.69
			c0.271-0.431,0.628-0.698,1.059-0.794c1.989-0.439,8.64-1.103,14.13-1.103c4.828,0,7.607,0.494,8.263,1.469
			c1.448,2.154,2.346,8.142,1.526,10.171c-0.16,0.395-0.38,0.625-0.656,0.684C57.213,19.678,47.022,21.006,40.339,21.006z
			 M49.188,7.339c-5.475,0-12.102,0.661-14.082,1.098c-0.372,0.082-0.681,0.316-0.92,0.696c-1.574,2.503,0.265,10.44,0.284,10.52
			c0.134,0.516,1.262,1.134,5.869,1.134c6.669,0,16.832-1.324,17.936-1.56c0.2-0.043,0.367-0.228,0.497-0.551
			c0.802-1.984-0.083-7.851-1.504-9.965C56.664,7.813,53.871,7.339,49.188,7.339z"/>
	</g>
	<path d="M32.856,9.486c0,0-0.053-0.02-0.147-0.054c-0.092-0.037-0.227-0.081-0.386-0.138c-0.319-0.11-0.743-0.252-1.175-0.359
		c-0.108-0.024-0.216-0.054-0.323-0.074c-0.108-0.016-0.212-0.047-0.315-0.058c-0.103-0.011-0.202-0.035-0.297-0.04
		c-0.095-0.006-0.185-0.022-0.268-0.024c-0.083-0.002-0.16-0.006-0.229-0.011c-0.069-0.003-0.128,0.003-0.177,0.004
		c-0.099,0.003-0.157,0.001-0.157,0.001s0.054-0.018,0.151-0.044c0.097-0.029,0.237-0.058,0.41-0.077
		c0.086-0.012,0.18-0.011,0.279-0.014c0.1-0.006,0.204,0.005,0.312,0.012c0.109,0.005,0.219,0.025,0.331,0.041
		c0.112,0.018,0.224,0.046,0.337,0.069c0.222,0.06,0.442,0.127,0.641,0.209c0.2,0.078,0.38,0.167,0.531,0.248
		c0.151,0.081,0.271,0.161,0.354,0.215C32.812,9.45,32.856,9.486,32.856,9.486z"/>
	<path d="M26.859,21.146c0,0,0.1,0.02,0.276,0.055c0.175,0.036,0.424,0.088,0.724,0.149c0.299,0.062,0.648,0.133,1.022,0.21
		c0.374,0.074,0.772,0.158,1.171,0.23c0.399,0.078,0.799,0.147,1.174,0.205c0.376,0.058,0.727,0.111,1.03,0.135
		c0.151,0.017,0.29,0.023,0.414,0.032c0.124,0.009,0.232,0.015,0.32,0.011c0.179,0,0.281,0,0.281,0s-0.101,0.016-0.278,0.043
		c-0.089,0.016-0.198,0.022-0.323,0.029c-0.125,0.008-0.267,0.018-0.42,0.01c-0.308-0.005-0.668-0.021-1.049-0.066
		c-0.383-0.04-0.787-0.107-1.189-0.181c-0.201-0.037-0.401-0.082-0.598-0.123c-0.197-0.04-0.389-0.092-0.575-0.135
		c-0.372-0.092-0.715-0.194-1.009-0.279c-0.294-0.085-0.535-0.172-0.705-0.228C26.954,21.184,26.859,21.146,26.859,21.146z"/>
	<g>
		<polygon fill="#E00914" points="51.524,12.628 49.604,14.886 50.376,17.748 47.635,16.619 45.153,18.237 45.379,15.283 
			43.073,13.421 45.953,12.723 47.01,9.955 48.564,12.478 		"/>
		<path fill="#5C120F" d="M45.026,18.452l0.239-3.12l-2.435-1.965l3.041-0.737l1.117-2.923l1.641,2.664l3.125,0.159l-2.027,2.383
			l0.815,3.021l-2.893-1.191L45.026,18.452z M43.315,13.476l2.177,1.758l-0.214,2.79l2.345-1.528l2.588,1.065l-0.729-2.702
			l1.813-2.132l-2.795-0.142l-1.467-2.383l-0.999,2.614L43.315,13.476z"/>
	</g>
	<polyline fill="#5C120F" points="47.01,9.955 47.298,14.096 45.953,12.723 	"/>
	<polyline fill="#5C120F" points="43.073,13.421 47.298,14.096 45.379,15.283 47.298,14.096 45.153,18.237 45.382,15.305 	"/>
	<polyline fill="#5C120F" points="47.635,16.619 47.298,14.096 50.376,17.748 	"/>
	<polyline fill="#5C120F" points="47.298,14.096 51.524,12.628 49.604,14.886 	"/>
	<path opacity="0.41" fill="#010202" d="M32.892,46.946c0,0-1.968-0.031-3.019-1.053c-2.032-1.975-0.571-6.768-0.718-9.169
		c-0.147-2.402-1.741-11.256-1.741-12.357s1.539-2.689,1.539-2.689s-1.099-0.265-0.842-1.696s0.92-9.543,1.431-10.026
		c0.624-0.589,2.004-1.02,2.004-1.02s-0.903,0.018-1.087-0.679c-0.183-0.697,0.069-1.028,0.069-1.028l-0.798,0.346L29.04,8.061
		L28.528,8.81l-0.405,0.907l-0.387,1.142l-0.402,1.495l-0.476,2.414l-0.475,2.628l-0.352,2.583l-0.261,2.327l-0.225,2.532
		l-0.129,2.259v2.149l0.135,3.208l0.097,2.441l0.118,2.332l0.216,2.854l0.217,1.788l0.328,1.681l0.439,1.31l0.67,1.066l0.72,0.568
		l0.984,0.473l0.679-0.035L32.892,46.946z"/>
	<path opacity="0.41" fill="#010202" d="M35.159,8.313c-0.248-0.027-1.591,1.146-1.949,2.089c-0.358,0.943-0.2,4.516-0.2,5.52
		s0.281,3.453,0.595,3.921s0.877,0.549,1.795,1.054c0.12-0.877,0.062-0.446,0.062-0.446l1.458,0.281c0,0-1.461-1.399-1.68-1.935
		c-0.229-0.559-0.477-1.786-0.486-2.339c-0.01-0.589-0.322-4.035-0.316-4.432c0.007-0.461,0.066-1.658,0.196-2.339
		C34.712,9.281,35.159,8.313,35.159,8.313z"/>
	<path d="M31.704,51.516l-0.125-0.181c-0.016,0.011-0.022,0.023-0.022,0.023c0.086-0.189-0.094-2.124-0.267-2.411
		c-0.198-0.327-0.196-1.415,0.003-1.712c0.007-0.01,0.04-0.073,0.051-0.354l0.22,0.009c-0.012,0.317-0.054,0.416-0.088,0.468
		c-0.139,0.208-0.164,1.2,0.003,1.476C31.605,49.044,31.97,51.332,31.704,51.516z"/>
	<path d="M55.632,47.575l-0.063-0.211c-0.021,0.006-0.033,0.019-0.035,0.023c0.084-0.137,0.028-1.256-0.103-1.422
		c-0.141-0.18-0.108-0.517-0.094-0.616c0.016-0.116,0.07-0.399,0.224-0.511c0.069-0.069,0.111-0.584,0.088-1.102l0.22-0.01
		c0.019,0.42,0.021,1.145-0.178,1.29c-0.047,0.034-0.109,0.17-0.135,0.363c-0.027,0.194-0.007,0.38,0.049,0.45
		c0.181,0.23,0.238,1.321,0.147,1.607C55.742,47.464,55.714,47.551,55.632,47.575z"/>
	<g>
		<circle fill="#333333" cx="31.689" cy="51.735" r="0.46"/>
		<path d="M31.689,52.305c-0.314,0-0.57-0.256-0.57-0.57s0.256-0.57,0.57-0.57s0.57,0.256,0.57,0.57S32.003,52.305,31.689,52.305z
			 M31.689,51.385c-0.193,0-0.35,0.157-0.35,0.35s0.157,0.35,0.35,0.35c0.193,0,0.35-0.157,0.35-0.35S31.882,51.385,31.689,51.385z"
			/>
	</g>
	<g>
		<circle fill="#333333" cx="55.655" cy="47.413" r="0.318"/>
		<path d="M55.655,47.841c-0.016,0-0.032-0.001-0.048-0.003c-0.235-0.026-0.404-0.238-0.378-0.473
			c0.026-0.232,0.235-0.404,0.472-0.378c0.235,0.026,0.404,0.238,0.378,0.473C56.056,47.677,55.874,47.841,55.655,47.841z
			 M55.655,47.205c-0.106,0-0.194,0.079-0.206,0.184c-0.013,0.114,0.07,0.217,0.183,0.23c0.114,0.012,0.217-0.07,0.229-0.183
			c0.013-0.114-0.069-0.217-0.183-0.23C55.67,47.206,55.663,47.205,55.655,47.205z"/>
	</g>
	<g>
		<path fill="#E4EAE9" d="M58.804,29.28l1.969,0.609c0,0,0.587,4.304,0.697,6.449c-2.202,1.264-1.769,1.643-1.769,1.643"/>
		<path fill="#5F5F5E" d="M58.804,29.28c0.333,0.084,0.665,0.176,0.996,0.265c0.332,0.088,0.662,0.184,0.992,0.278l0.041,0.012
			l0.007,0.045c0.083,0.535,0.168,1.069,0.236,1.606l0.204,1.61c0.035,0.268,0.059,0.538,0.087,0.807l0.076,0.809l0.066,0.81
			c0.022,0.27,0.03,0.541,0.041,0.813l0.002,0.049l-0.042,0.024c-0.182,0.104-0.369,0.203-0.547,0.315
			c-0.09,0.054-0.18,0.108-0.267,0.167c-0.087,0.058-0.177,0.113-0.262,0.175c-0.087,0.059-0.172,0.12-0.254,0.186
			c-0.042,0.032-0.083,0.064-0.121,0.099c-0.038,0.035-0.08,0.068-0.116,0.105c-0.073,0.074-0.146,0.15-0.2,0.239
			c-0.029,0.043-0.052,0.09-0.064,0.14c-0.012,0.049-0.013,0.106,0.021,0.149c-0.038-0.039-0.044-0.099-0.036-0.151
			c0.007-0.054,0.027-0.106,0.052-0.153c0.048-0.097,0.118-0.18,0.187-0.261c0.034-0.041,0.074-0.077,0.111-0.116
			c0.037-0.039,0.076-0.075,0.116-0.11c0.078-0.073,0.16-0.141,0.244-0.207c0.081-0.069,0.169-0.13,0.255-0.192
			c0.086-0.064,0.174-0.122,0.263-0.18c0.175-0.121,0.358-0.228,0.538-0.342l-0.04,0.073l-0.07-0.806l-0.077-0.806l-0.178-1.61
			l-0.361-3.222l0.048,0.056c-0.326-0.109-0.652-0.216-0.976-0.331C59.451,29.51,59.126,29.398,58.804,29.28z"/>
	</g>
	<g>
		<path fill="#E4EAE9" d="M55.2,30.839c2.786,0.121,5.147-2.14,5.273-5.049c0.126-2.909-2.03-5.365-4.817-5.486
			c-0.152-0.007-0.303-0.005-0.452,0.003c-1.533,0.006-6.447-0.002-6.624-0.327c-1.312,0.33-8.959,0.84-8.959,0.84
			c-3.175-0.137-5.865,2.439-6.009,5.754s2.314,6.114,5.489,6.251"/>
		<path fill="#5F5F5E" d="M55.2,30.839c0.486-0.002,0.972-0.048,1.437-0.182c0.461-0.141,0.911-0.326,1.313-0.592
			c0.398-0.267,0.777-0.57,1.085-0.938c0.308-0.365,0.587-0.759,0.781-1.195l0.078-0.161l0.063-0.167
			c0.04-0.112,0.091-0.22,0.127-0.334c0.063-0.229,0.142-0.455,0.178-0.691c0.101-0.468,0.114-0.943,0.087-1.425
			c-0.03-0.469-0.14-0.939-0.287-1.39c-0.17-0.444-0.38-0.874-0.656-1.263c-0.282-0.382-0.6-0.741-0.975-1.035
			c-0.376-0.288-0.781-0.546-1.227-0.714c-0.443-0.166-0.906-0.296-1.382-0.321l-0.172-0.017l-0.182,0.001l-0.364,0.002l-0.729,0
			c-0.972-0.002-1.945-0.011-2.918-0.038c-0.486-0.014-0.973-0.031-1.46-0.061c-0.244-0.015-0.487-0.033-0.732-0.059
			c-0.122-0.014-0.245-0.029-0.368-0.051c-0.062-0.01-0.124-0.025-0.188-0.041c-0.034-0.012-0.064-0.018-0.101-0.035l-0.056-0.028
			c-0.023-0.015-0.052-0.045-0.07-0.071l0.123,0.054c-0.189,0.04-0.378,0.077-0.564,0.102c-0.187,0.03-0.374,0.052-0.561,0.076
			c-0.374,0.046-0.747,0.087-1.121,0.124c-0.747,0.076-1.495,0.141-2.243,0.204c-1.496,0.125-2.993,0.236-4.49,0.338l0,0l-0.012,0
			l-0.566,0.005l-0.562,0.064l-0.552,0.122l-0.537,0.179l-0.515,0.234c-0.163,0.096-0.329,0.186-0.489,0.285
			c-0.152,0.111-0.31,0.216-0.458,0.333c-0.141,0.126-0.289,0.244-0.423,0.376c-0.128,0.139-0.265,0.269-0.385,0.415
			c-0.114,0.151-0.239,0.293-0.343,0.451c-0.099,0.161-0.211,0.314-0.299,0.481c-0.083,0.17-0.18,0.333-0.252,0.507
			c-0.067,0.177-0.147,0.348-0.203,0.529c-0.05,0.182-0.112,0.361-0.153,0.546c-0.034,0.186-0.074,0.371-0.103,0.558l-0.052,0.56
			l0.003,0.577c0.012,0.189,0.037,0.373,0.054,0.56c0.025,0.186,0.071,0.371,0.106,0.556c0.04,0.185,0.107,0.362,0.159,0.544
			c0.057,0.18,0.138,0.351,0.206,0.528c0.07,0.176,0.166,0.339,0.248,0.51c0.087,0.168,0.198,0.323,0.295,0.485
			c0.104,0.158,0.228,0.303,0.341,0.455c0.12,0.147,0.257,0.28,0.384,0.421c0.136,0.133,0.283,0.254,0.425,0.381
			c0.15,0.117,0.308,0.225,0.461,0.338l0.494,0.29l0.523,0.237l0.545,0.181l0.562,0.124l0.573,0.065l-0.576-0.045l-0.569-0.105
			l-0.556-0.164l-0.537-0.221l-0.512-0.277c-0.16-0.109-0.324-0.214-0.482-0.328c-0.149-0.125-0.304-0.244-0.447-0.375
			c-0.136-0.139-0.28-0.271-0.409-0.418c-0.122-0.152-0.254-0.297-0.367-0.456c-0.107-0.163-0.226-0.32-0.322-0.49
			c-0.091-0.173-0.195-0.34-0.274-0.519c-0.071-0.182-0.159-0.359-0.217-0.546c-0.053-0.189-0.119-0.374-0.161-0.565
			c-0.036-0.193-0.083-0.383-0.11-0.578c-0.019-0.196-0.044-0.394-0.056-0.589l-0.003-0.577l0.054-0.59
			c0.029-0.193,0.071-0.385,0.106-0.578c0.043-0.191,0.107-0.377,0.159-0.565c0.058-0.187,0.141-0.365,0.211-0.548
			c0.075-0.181,0.175-0.35,0.261-0.526c0.091-0.173,0.207-0.332,0.31-0.499c0.108-0.163,0.238-0.311,0.356-0.467
			c0.124-0.152,0.267-0.287,0.399-0.431c0.139-0.138,0.293-0.26,0.439-0.39c0.154-0.122,0.317-0.23,0.476-0.345
			c0.166-0.104,0.339-0.197,0.508-0.296l0.536-0.243l0.559-0.186l0.575-0.127l0.585-0.066l0.589-0.006l-0.012,0
			c1.496-0.102,2.992-0.213,4.487-0.337c0.747-0.063,1.494-0.128,2.239-0.204c0.373-0.037,0.745-0.077,1.116-0.123
			c0.185-0.023,0.371-0.045,0.555-0.075c0.186-0.024,0.365-0.06,0.543-0.097l0.123,0.054c0.003-0.006-0.005-0.011-0.004-0.009
			l0.026,0.012c0.018,0.009,0.048,0.016,0.071,0.024c0.054,0.014,0.109,0.027,0.168,0.036c0.115,0.021,0.234,0.035,0.353,0.049
			c0.239,0.026,0.48,0.043,0.721,0.058c0.483,0.03,0.968,0.047,1.452,0.061c0.97,0.027,1.941,0.036,2.912,0.038l0.728,0l0.364-0.002
			l0.182-0.001l0.19,0.017c0.497,0.026,0.983,0.161,1.446,0.336c0.466,0.176,0.89,0.446,1.283,0.747
			c0.392,0.307,0.724,0.681,1.017,1.08c0.287,0.406,0.507,0.853,0.683,1.317c0.154,0.472,0.268,0.954,0.3,1.457
			c0.028,0.485,0.012,0.991-0.09,1.474c-0.035,0.246-0.114,0.482-0.184,0.72c-0.039,0.118-0.09,0.231-0.136,0.346l-0.072,0.171
			L60,28.023c-0.218,0.445-0.52,0.844-0.851,1.207c-0.33,0.368-0.729,0.665-1.145,0.922c-0.419,0.257-0.884,0.429-1.354,0.555
			C56.175,30.826,55.684,30.855,55.2,30.839z"/>
	</g>
	<g>
		
			<ellipse transform="matrix(0.9991 0.0433 -0.0433 0.9991 1.1972 -1.6776)" fill="#E4EAE9" cx="39.36" cy="26.823" rx="3.847" ry="4.017"/>
		<path fill="#5F5F5E" d="M39.348,30.949c-0.056,0-0.111-0.001-0.167-0.004c-2.18-0.094-3.873-2.021-3.775-4.294
			c0.099-2.276,1.93-4.051,4.132-3.952c1.057,0.046,2.032,0.518,2.745,1.33c0.712,0.811,1.078,1.863,1.03,2.964
			C43.217,29.212,41.475,30.949,39.348,30.949z M39.371,22.916c-2.009,0-3.654,1.645-3.745,3.745
			c-0.093,2.152,1.506,3.975,3.564,4.065c2.077,0.089,3.809-1.587,3.902-3.741c0.045-1.043-0.301-2.041-0.976-2.809
			c-0.673-0.767-1.592-1.213-2.589-1.256C39.476,22.918,39.424,22.916,39.371,22.916z"/>
	</g>
	<g>
		
			<ellipse transform="matrix(0.9991 0.0433 -0.0433 0.9991 1.1961 -1.6605)" fill="#1C1C1A" cx="38.964" cy="26.806" rx="3.451" ry="4.017"/>
		<path fill="#5F5F5E" d="M38.921,30.931c-0.045,0-0.09-0.001-0.135-0.003c-1.962-0.085-3.477-2.004-3.379-4.277
			c0.099-2.279,1.761-4.054,3.736-3.969c1.962,0.085,3.477,2.004,3.379,4.277C42.425,29.187,40.844,30.931,38.921,30.931z
			 M39.007,22.9c-1.804,0-3.289,1.652-3.381,3.761c-0.093,2.152,1.328,3.968,3.169,4.047c1.862,0.08,3.413-1.6,3.507-3.758
			c0.093-2.152-1.328-3.968-3.169-4.047C39.091,22.901,39.049,22.9,39.007,22.9z"/>
	</g>
	<g>
		
			<ellipse transform="matrix(0.9991 0.0433 -0.0433 0.9991 1.1581 -2.3738)" fill="#E4EAE9" cx="55.428" cy="25.572" rx="3.376" ry="3.525"/>
		<path fill="#5F5F5E" d="M55.418,29.206c-0.049,0-0.098-0.001-0.147-0.003c-0.931-0.04-1.79-0.457-2.418-1.172
			c-0.627-0.714-0.949-1.641-0.907-2.61c0.087-2.004,1.7-3.565,3.64-3.481c0.931,0.04,1.79,0.457,2.418,1.172
			c0.627,0.714,0.949,1.641,0.907,2.61C58.826,27.676,57.291,29.206,55.418,29.206z M55.438,22.158
			c-1.756,0-3.193,1.438-3.272,3.273c-0.04,0.912,0.263,1.784,0.852,2.455c0.588,0.67,1.392,1.06,2.262,1.097
			c1.807,0.081,3.329-1.387,3.41-3.27c0.04-0.912-0.263-1.784-0.853-2.455c-0.588-0.67-1.392-1.06-2.262-1.097
			C55.529,22.159,55.484,22.158,55.438,22.158z"/>
	</g>
	<g>
		
			<ellipse transform="matrix(0.9991 0.0433 -0.0433 0.9991 1.1571 -2.3588)" fill="#1C1C1A" cx="55.081" cy="25.557" rx="3.028" ry="3.525"/>
		<path fill="#5F5F5E" d="M55.043,29.191c-0.04,0-0.079-0.001-0.119-0.003c-0.841-0.036-1.614-0.45-2.177-1.166
			c-0.559-0.71-0.843-1.634-0.802-2.601c0.087-2.007,1.539-3.571,3.293-3.496c0.841,0.036,1.614,0.45,2.176,1.166
			c0.559,0.711,0.844,1.634,0.802,2.601C58.131,27.654,56.737,29.191,55.043,29.191z M55.119,22.143
			c-1.576,0-2.873,1.444-2.953,3.287c-0.04,0.914,0.228,1.786,0.755,2.456c0.523,0.664,1.237,1.048,2.013,1.082
			c1.621,0.071,2.981-1.399,3.063-3.285c0.04-0.914-0.228-1.786-0.755-2.456c-0.522-0.664-1.237-1.049-2.013-1.082
			C55.192,22.144,55.155,22.143,55.119,22.143z"/>
	</g>
	<g>
		<path fill="#E4EAE9" d="M57.176,30.799c0,0-2.257-0.253-3.358-0.442s-3.853-1.326-6.11-1.073c-2.01,0.225-4.438,1.167-5.422,1.578
			c-0.984,0.411-4.637,1.771-4.151,3.037s1.839,3.179,2.49,2.824c0.651-0.355,3.853-2.815,4.56-3.193
			c0.708-0.378,3.431-1.753,7.642-0.395c2.11,0.68,5.061,1.344,5.283,1.271"/>
		<path fill="#5F5F5E" d="M57.176,30.799c0,0-0.679-0.06-1.865-0.188c-0.296-0.035-0.625-0.073-0.982-0.115
			c-0.179-0.023-0.363-0.047-0.559-0.078c-0.189-0.032-0.392-0.078-0.593-0.13c-0.402-0.105-0.829-0.217-1.28-0.336
			c-0.449-0.117-0.92-0.246-1.417-0.348c-0.992-0.202-2.092-0.353-3.238-0.144c-1.143,0.187-2.33,0.536-3.526,0.965
			c-0.601,0.213-1.196,0.458-1.806,0.71c-0.607,0.248-1.217,0.509-1.809,0.813c-0.295,0.152-0.587,0.315-0.865,0.497
			c-0.276,0.182-0.545,0.384-0.758,0.626c-0.213,0.238-0.357,0.541-0.229,0.817c0.122,0.31,0.273,0.611,0.44,0.904
			c0.337,0.578,0.724,1.148,1.214,1.583c0.123,0.105,0.256,0.2,0.394,0.251c0.068,0.025,0.136,0.036,0.195,0.028
			c0.028-0.004,0.059-0.015,0.08-0.026l0.109-0.065c0.277-0.174,0.553-0.372,0.825-0.564c1.091-0.778,2.142-1.575,3.203-2.298
			c0.134-0.089,0.268-0.177,0.413-0.259c0.14-0.076,0.284-0.148,0.428-0.215c0.289-0.134,0.583-0.249,0.879-0.345
			c0.592-0.193,1.192-0.316,1.781-0.382c1.179-0.131,2.308-0.031,3.316,0.179c0.504,0.106,0.984,0.233,1.426,0.386
			c0.439,0.15,0.86,0.282,1.257,0.401c0.794,0.239,1.493,0.428,2.07,0.574c0.577,0.146,1.034,0.25,1.348,0.31
			c0.313,0.063,0.485,0.069,0.484,0.058c0.001,0.011-0.171,0.012-0.487-0.038c-0.316-0.048-0.777-0.133-1.361-0.257
			c-0.584-0.124-1.291-0.285-2.096-0.493c-0.403-0.104-0.83-0.22-1.279-0.353c-0.445-0.131-0.909-0.272-1.406-0.373
			c-0.99-0.207-2.095-0.304-3.247-0.176c-0.575,0.065-1.16,0.184-1.737,0.372c-0.288,0.094-0.574,0.206-0.855,0.335
			c-0.14,0.065-0.279,0.134-0.416,0.209c-0.131,0.074-0.263,0.161-0.395,0.248c-1.05,0.716-2.104,1.515-3.198,2.294
			c-0.275,0.194-0.546,0.39-0.842,0.575l-0.109,0.065c-0.054,0.03-0.104,0.045-0.159,0.054c-0.109,0.016-0.213-0.006-0.303-0.039
			c-0.181-0.068-0.326-0.176-0.461-0.29c-0.527-0.469-0.915-1.046-1.262-1.641c-0.17-0.3-0.326-0.609-0.453-0.932
			c-0.077-0.173-0.083-0.395-0.017-0.573c0.062-0.182,0.17-0.334,0.286-0.469c0.237-0.268,0.517-0.476,0.803-0.665
			c0.287-0.188,0.584-0.354,0.885-0.509c0.601-0.309,1.217-0.572,1.827-0.821c0.605-0.249,1.212-0.499,1.815-0.713
			c1.207-0.433,2.399-0.785,3.569-0.976c0.147-0.027,0.29-0.04,0.433-0.061c0.148-0.017,0.293-0.023,0.438-0.035
			c0.289-0.011,0.574-0.007,0.852,0.012c0.557,0.039,1.088,0.126,1.591,0.23c1.011,0.197,1.902,0.507,2.695,0.743
			c0.199,0.059,0.386,0.11,0.578,0.151c0.186,0.038,0.372,0.069,0.548,0.1c0.355,0.056,0.68,0.108,0.975,0.154
			C56.5,30.712,57.176,30.799,57.176,30.799z"/>
	</g>
	<g>
		<path fill="#E4EAE9" d="M53.589,37.294c0,2.54-1.582,4.5-5.218,4.5"/>
		<path fill="#5F5F5E" d="M53.589,37.294c0,0,0.003,0.122,0.008,0.336c0.005,0.107-0.006,0.237-0.017,0.387
			c-0.007,0.075-0.009,0.156-0.021,0.239c-0.015,0.083-0.031,0.17-0.048,0.262c-0.025,0.185-0.097,0.374-0.153,0.581
			c-0.082,0.197-0.155,0.413-0.28,0.613c-0.056,0.104-0.115,0.207-0.189,0.303c-0.073,0.096-0.135,0.204-0.223,0.291
			c-0.084,0.09-0.169,0.181-0.255,0.273l-0.286,0.244c-0.095,0.083-0.206,0.142-0.308,0.214c-0.052,0.034-0.103,0.07-0.157,0.101
			l-0.165,0.085c-0.215,0.122-0.443,0.202-0.662,0.283c-0.22,0.077-0.441,0.124-0.647,0.174c-0.21,0.032-0.407,0.07-0.591,0.091
			c-0.184,0.016-0.353,0.025-0.502,0.034c-0.149,0.007-0.28-0.002-0.387-0.002c-0.214-0.006-0.336-0.01-0.336-0.01
			s0.122-0.012,0.335-0.033c0.106-0.011,0.236-0.015,0.382-0.037c0.147-0.024,0.311-0.051,0.491-0.075
			c0.179-0.032,0.369-0.081,0.572-0.125c0.198-0.061,0.408-0.122,0.618-0.2c0.104-0.043,0.209-0.086,0.316-0.131
			c0.108-0.042,0.206-0.107,0.311-0.158l0.156-0.082c0.05-0.03,0.098-0.065,0.148-0.098c0.096-0.069,0.202-0.126,0.29-0.205
			l0.273-0.228c0.081-0.086,0.163-0.171,0.243-0.255c0.083-0.082,0.144-0.183,0.217-0.271c0.074-0.088,0.133-0.185,0.189-0.282
			c0.123-0.187,0.206-0.387,0.297-0.572c0.065-0.195,0.147-0.375,0.182-0.552c0.045-0.175,0.087-0.336,0.108-0.482
			c0.026-0.145,0.05-0.272,0.056-0.38C53.576,37.415,53.589,37.294,53.589,37.294z"/>
	</g>
	<g>
		
			<ellipse transform="matrix(0.9996 -0.0288 0.0288 0.9996 -1.0429 1.4497)" fill="#F8F7F7" cx="49.758" cy="36.896" rx="4.234" ry="4.44"/>
		<path fill="#282828" d="M49.768,41.447c-2.369,0-4.28-1.944-4.352-4.425c-0.072-2.508,1.817-4.605,4.211-4.674
			c0.041-0.001,0.081-0.002,0.122-0.002c2.369,0,4.28,1.944,4.352,4.425c0.035,1.214-0.383,2.369-1.177,3.251
			c-0.796,0.884-1.873,1.389-3.034,1.423C49.849,41.446,49.808,41.447,49.768,41.447z M49.749,32.566
			c-0.038,0-0.077,0.001-0.115,0.002c-2.273,0.065-4.066,2.061-3.997,4.447c0.069,2.402,1.945,4.271,4.247,4.21
			c1.1-0.032,2.122-0.511,2.877-1.35c0.756-0.84,1.154-1.94,1.121-3.097C53.812,34.416,51.998,32.566,49.749,32.566z"/>
	</g>
	
		<ellipse transform="matrix(0.9996 -0.0288 0.0288 0.9996 -1.0429 1.4497)" fill="#E0E0E0" cx="49.758" cy="36.896" rx="3.039" ry="3.187"/>
	<g>
		<path fill="#E4EAE9" d="M45.981,41.868c0,0,0.158,2.59,0.77,3.524l5.71-1.059c0,0,0.131-2.197-0.474-2.771"/>
		<path fill="#5F5F5E" d="M45.981,41.868c0.047,0.3,0.099,0.599,0.155,0.896c0.029,0.149,0.059,0.296,0.091,0.444l0.048,0.221
			l0.035,0.222c0.052,0.296,0.118,0.588,0.2,0.874c0.022,0.071,0.039,0.144,0.066,0.213l0.075,0.208l0.088,0.2l0.105,0.186
			l-0.112-0.048l5.71-1.059l-0.09,0.102c0.012-0.233,0.014-0.472,0.01-0.708c-0.003-0.118-0.007-0.236-0.014-0.354l-0.015-0.176
			l-0.006-0.177c-0.005-0.118-0.011-0.236-0.024-0.353c-0.004-0.059-0.012-0.117-0.021-0.175c-0.01-0.058-0.014-0.118-0.029-0.174
			l-0.039-0.172L52.16,41.87c-0.021-0.054-0.048-0.107-0.072-0.161c-0.029-0.051-0.067-0.097-0.101-0.147
			c0.041,0.043,0.086,0.084,0.125,0.131c0.033,0.05,0.069,0.1,0.101,0.153l0.08,0.165l0.064,0.171
			c0.023,0.057,0.036,0.116,0.054,0.175c0.018,0.058,0.034,0.117,0.046,0.177c0.03,0.118,0.052,0.238,0.074,0.357
			c0.023,0.119,0.034,0.241,0.036,0.362c0.008,0.121,0.011,0.242,0.015,0.362c0.005,0.242,0.002,0.482-0.01,0.726l-0.004,0.086
			l-0.086,0.016l-5.71,1.059l-0.077,0.014l-0.035-0.062l-0.118-0.21l-0.095-0.216l-0.079-0.219
			c-0.028-0.073-0.045-0.148-0.068-0.221c-0.085-0.296-0.152-0.596-0.205-0.896c-0.069-0.298-0.073-0.607-0.094-0.91
			C45.984,42.476,45.975,42.172,45.981,41.868z"/>
	</g>
	<g>
		
			<ellipse transform="matrix(0.9832 -0.1824 0.1824 0.9832 -7.3498 9.7993)" fill="#E4EAE9" cx="49.607" cy="44.862" rx="2.904" ry="1.239"/>
		<path fill="#5F5F5E" d="M48.676,46.301c-1.152,0-1.931-0.341-2.033-0.889c-0.138-0.744,1.056-1.567,2.717-1.875
			c0.402-0.075,0.798-0.112,1.177-0.112c1.152,0,1.931,0.34,2.032,0.889c0.138,0.744-1.056,1.567-2.717,1.875
			C49.451,46.263,49.055,46.301,48.676,46.301z M50.537,43.644c-0.365,0-0.748,0.037-1.137,0.109
			c-1.489,0.276-2.652,1.018-2.541,1.619c0.079,0.424,0.809,0.709,1.816,0.709c0.365,0,0.748-0.037,1.136-0.109
			c1.489-0.276,2.652-1.018,2.541-1.619C52.275,43.929,51.545,43.644,50.537,43.644z"/>
	</g>
	
		<ellipse transform="matrix(0.9832 -0.1824 0.1824 0.9832 -7.3498 9.7993)" opacity="0.2" fill="#5F5F5E" cx="49.607" cy="44.862" rx="2.904" ry="1.239"/>
	<g>
		
			<ellipse transform="matrix(0.9832 -0.1824 0.1824 0.9832 -7.3498 9.7993)" fill="#F2E1C2" cx="49.607" cy="44.862" rx="2.24" ry="0.955"/>
		<path fill="#5F5F5E" d="M48.889,45.997c-0.902,0-1.512-0.271-1.593-0.706c-0.055-0.297,0.147-0.615,0.569-0.895
			c0.395-0.263,0.944-0.469,1.547-0.58c0.311-0.058,0.618-0.087,0.912-0.087c0.902,0,1.512,0.271,1.593,0.706
			c0.109,0.588-0.821,1.236-2.116,1.476C49.49,45.968,49.183,45.997,48.889,45.997z M50.324,43.948c-0.28,0-0.573,0.028-0.872,0.083
			c-0.574,0.106-1.094,0.301-1.465,0.547c-0.339,0.225-0.512,0.47-0.474,0.672c0.058,0.315,0.611,0.526,1.376,0.526
			c0.28,0,0.573-0.028,0.872-0.083c1.252-0.232,2.014-0.818,1.94-1.22C51.642,44.16,51.089,43.948,50.324,43.948z"/>
	</g>
	<g>
		
			<ellipse transform="matrix(0.9832 -0.1824 0.1824 0.9832 -7.3619 9.8005)" fill="#F2E1C2" cx="49.607" cy="44.929" rx="1.012" ry="0.432"/>
		<path fill="#5F5F5E" d="M49.282,45.502c-0.438,0-0.737-0.141-0.779-0.368c-0.056-0.304,0.376-0.621,1.005-0.738
			c0.144-0.027,0.287-0.04,0.423-0.04c0.438,0,0.737,0.141,0.779,0.369c0.056,0.303-0.375,0.621-1.004,0.737
			C49.561,45.489,49.419,45.502,49.282,45.502z M49.931,44.576c-0.123,0-0.252,0.012-0.383,0.037
			c-0.541,0.1-0.852,0.352-0.828,0.481c0.017,0.091,0.22,0.188,0.563,0.188c0.123,0,0.252-0.012,0.383-0.037
			c0.541-0.101,0.852-0.352,0.828-0.481C50.477,44.673,50.274,44.576,49.931,44.576z"/>
	</g>
	<g>
		<defs>
			
				<ellipse id="SVGID_9_" transform="matrix(0.9991 0.0433 -0.0433 0.9991 1.1961 -1.6605)" cx="38.964" cy="26.806" rx="3.451" ry="4.017"/>
		</defs>
		<clipPath id="SVGID_10_">
			<use xlink:href="#SVGID_9_"  overflow="visible"/>
		</clipPath>
		<circle opacity="0.4" clip-path="url(#SVGID_10_)" fill="#FFFFFF" cx="36.946" cy="29.904" r="1.89"/>
		<circle opacity="0.4" clip-path="url(#SVGID_10_)" fill="#FFFFFF" cx="40.221" cy="24.84" r="1.128"/>
	</g>
	<g>
		<defs>
			
				<ellipse id="SVGID_11_" transform="matrix(0.9991 0.0433 -0.0433 0.9991 1.1595 -2.3573)" cx="55.046" cy="25.612" rx="2.954" ry="3.439"/>
		</defs>
		<clipPath id="SVGID_12_">
			<use xlink:href="#SVGID_11_"  overflow="visible"/>
		</clipPath>
		<circle opacity="0.4" clip-path="url(#SVGID_12_)" fill="#FFFFFF" cx="53.318" cy="28.264" r="1.618"/>
		<circle opacity="0.4" clip-path="url(#SVGID_12_)" fill="#FFFFFF" cx="56.123" cy="23.929" r="0.966"/>
	</g>
	<g>
		<path fill="#E4EAE9" d="M48.579,21.026c0,0-0.647,4.547-0.208,5.796"/>
		<path fill="#5F5F5E" d="M48.579,21.026c0,0-0.004,0.091-0.012,0.251c-0.012,0.159-0.019,0.387-0.041,0.66
			c-0.038,0.544-0.09,1.269-0.141,1.994c-0.026,0.362-0.047,0.724-0.064,1.063c-0.003,0.169-0.018,0.334-0.02,0.489
			c-0.001,0.155-0.011,0.303-0.005,0.438c0.007,0.135-0.001,0.261,0.01,0.37c0.009,0.109,0.011,0.207,0.023,0.285
			c0.026,0.157,0.042,0.247,0.042,0.247s-0.032-0.084-0.083-0.238c-0.023-0.077-0.038-0.173-0.063-0.283
			c-0.027-0.11-0.036-0.236-0.052-0.373c-0.018-0.137-0.02-0.286-0.032-0.443c-0.011-0.158-0.012-0.323-0.013-0.495
			c-0.001-0.343,0.016-0.709,0.038-1.074c0.029-0.364,0.06-0.728,0.103-1.068c0.04-0.34,0.093-0.655,0.135-0.926
			c0.041-0.271,0.092-0.494,0.121-0.651C48.557,21.115,48.579,21.026,48.579,21.026z"/>
	</g>
	<path opacity="0.2" fill="#5F5F5E" d="M39.616,32.085c0,0,0.559,1.492,0.871,2.162c0.312,0.671,1.503,1.558,1.503,1.558
		l-0.602,0.449l-0.67,0.414l-0.542,0.055l-0.711-0.63l-0.822-1.137l-0.496-1.141l0.095-0.616l0.617-0.581L39.616,32.085z"/>
	<path opacity="0.2" fill="#5F5F5E" d="M45.947,41.871c0,0,0.891,2.467,1.828,2.302c-0.405,0.243-1.032,0.756-1.032,0.756
		l-0.023,0.304l-0.473-1.329L45.947,41.871z"/>
</g>
</svg>
